<?xml version="1.0" encoding="utf-8"?>
<!-- Generator: Adobe Illustrator 18.1.0, SVG Export Plug-In . SVG Version: 6.00 Build 0)  -->
<svg version="1.1" id="Layer_1" xmlns="http://www.w3.org/2000/svg" xmlns:xlink="http://www.w3.org/1999/xlink" x="0px" y="0px"
	 viewBox="0 0 79.5 68.5" enable-background="new 0 0 79.5 68.5" xml:space="preserve">
<path fill="#009245" d="M0.1,45.7C0,45.6,0,45.4,0,45.3C0,45.4,0,45.6,0.1,45.7z"/>
<path fill="#009245" d="M0.3,46.1c-0.1-0.1-0.1-0.2-0.2-0.4C0.1,45.8,0.2,46,0.3,46.1z"/>
<path fill="#009245" d="M0.6,46.4C0.6,46.4,0.6,46.4,0.6,46.4c-0.1-0.1-0.2-0.2-0.3-0.3C0.4,46.2,0.5,46.3,0.6,46.4z"/>
<path fill="#009245" d="M77,2.5C75.4,1,73.3,0,71,0H8.4C3.8,0,0,3.8,0,8.4v51.6c0,4.6,3.8,8.4,8.4,8.4H71c4.6,0,8.4-3.8,8.4-8.4
	V31.5c0-0.1,0.1-0.3,0.1-0.5V8.5C79.5,6.2,78.5,4,77,2.5z M76.5,28.5L64.8,22c-0.4,0.6-0.8,1.3-1.3,1.8c-0.2,0.2-0.4,0.4-0.6,0.6
	c-1.4,1.1-3.1,1.7-4.8,1.7c-1.3,0-2.5-0.3-3.6-0.9c-0.7-0.4-1.3-0.8-1.9-1.4c-0.2-0.2-0.3-0.4-0.5-0.5L40.8,34.4
	c0.8,0.7,1.4,1.5,1.8,2.5c0.5,1.1,0.8,2.3,0.7,3.6c-0.2,4.1-3.6,7.4-7.7,7.4c-0.1,0-0.2,0-0.4,0c-3.9-0.2-7-3.2-7.3-7
	c0-0.4,0-0.7,0-1.1c0-0.7,0.2-1.4,0.4-2.1l-9.1-4.2c-0.5,0.9-1.1,1.8-1.8,2.5c-1.4,1.2-3.2,1.9-5.1,1.9c-0.1,0-0.2,0-0.4,0
	c-0.7,0-1.4-0.2-2-0.4c-1-0.3-1.9-0.8-2.6-1.5L3.1,41V8.5c0-3,2.4-5.4,5.4-5.4H71c3,0,5.4,2.4,5.4,5.4V28.5z"/>
<path fill="#009245" d="M62.1,14.3c-1.1-1.1-2.5-1.7-4-1.7c-1.5,0-3,0.6-4,1.7c-2.2,2.2-2.2,5.9,0,8.1c1.1,1.1,2.5,1.7,4,1.7
	c1.5,0,3-0.6,4-1.7C64.3,20.2,64.3,16.6,62.1,14.3z M56.1,20.3c-1.1-1.1-1.1-2.8,0-3.8c0.5-0.5,1.2-0.8,1.9-0.8
	c0.7,0,1.4,0.3,1.9,0.8c1.1,1.1,1.1,2.8,0,3.8C58.9,21.3,57.1,21.3,56.1,20.3z"/>
<path fill="#009245" d="M39.7,36.2c-1-1.1-2.4-1.8-4-1.9c-3.2-0.2-5.8,2.3-6,5.4c-0.1,3.1,2.3,5.8,5.4,6c0.1,0,0.2,0,0.3,0
	c3.1,0,5.6-2.4,5.7-5.4C41.3,38.8,40.8,37.3,39.7,36.2z M35.5,42.8l-0.1,0c-1.5-0.1-2.7-1.3-2.6-2.8c0.1-1.5,1.3-2.6,2.7-2.6l0.1,0
	c0.7,0,1.4,0.3,1.9,0.9c0.5,0.5,0.7,1.2,0.7,2C38.2,41.6,37,42.8,35.5,42.8z"/>
<path fill="#009245" d="M12.2,35.8c3.1,0,5.6-2.4,5.7-5.4c0.1-1.5-0.5-3-1.5-4.1c-1-1.1-2.4-1.8-4-1.9c-3.2-0.2-5.8,2.3-6,5.4
	c-0.1,1.5,0.5,3,1.5,4.1c1,1.1,2.4,1.8,4,1.9C12,35.7,12.1,35.8,12.2,35.8z M10.1,31.9c-0.5-0.5-0.7-1.2-0.7-2
	c0.1-1.5,1.3-2.6,2.7-2.6l0.1,0c0.7,0,1.4,0.3,1.9,0.9c0.5,0.5,0.7,1.2,0.7,2c-0.1,1.5-1.3,2.6-2.7,2.6l-0.1,0
	C11.3,32.7,10.6,32.4,10.1,31.9z"/>
</svg>
