<?xml version="1.0" encoding="UTF-8" standalone="no"?>
<svg width="27px" height="10px" viewBox="0 0 27 10" version="1.1" xmlns="http://www.w3.org/2000/svg" xmlns:xlink="http://www.w3.org/1999/xlink" xmlns:sketch="http://www.bohemiancoding.com/sketch/ns">
    <!-- Generator: Sketch 3.2.2 (9983) - http://www.bohemiancoding.com/sketch -->
    <title>Imported Layers</title>
    <desc>Created with Sketch.</desc>
    <defs></defs>
    <g id="Page-1" stroke="none" stroke-width="1" fill="none" fill-rule="evenodd" sketch:type="MSPage">
        <g id="LINK-COPY-STATES" sketch:type="MSArtboardGroup" transform="translate(-303.000000, -156.000000)" stroke="#B0AFAF" stroke-width="1.5" stroke-linecap="round" opacity="0.595615672" stroke-linejoin="round">
            <g id="Rectangle-25-+-Imported-Layers-+-YES-2-+-Rectangle-232-+-Triangle-1-+-Click-to-copy-link" sketch:type="MSLayerGroup" transform="translate(244.000000, 90.000000)">
                <g id="Rectangle-25-+-Imported-Layers-+-YES-2" transform="translate(51.500000, 51.000000)" sketch:type="MSShapeGroup">
                    <path d="M22.75,22.8181818 C22.75,24.0845455 23.6008333,24.1818182 24.7608333,24.1818182 L30.6666667,24.1818182 C32.0416667,24.1818182 33.1666667,22.9545455 33.1666667,21.4545455 L33.1666667,18.7272727 C33.1666667,17.2272727 32.0416667,16 30.6666667,16 L24.7608333,16 C23.6008333,16 22.75,17.0063636 22.75,18.2727273 M19.4166667,22.8181818 C19.4166667,24.0845455 18.5658333,24.1818182 17.4058333,24.1818182 L11.5,24.1818182 C10.125,24.1818182 9,22.9545455 9,21.4545455 L9,18.7272727 C9,17.2272727 10.125,16 11.5,16 L17.4058333,16 C18.5658333,16 19.4166667,17.0063636 19.4166667,18.2727273 M15.25,20.5454545 L26.9166667,20.5454545" id="Imported-Layers"></path>
                </g>
            </g>
        </g>
    </g>
</svg>
