<svg id="kb-icon-edge.svg" viewBox="0 0 75 75" xmlns="http://www.w3.org/2000/svg">
	<path d="M70.283 45.797a4.197 4.197 0 00-3.972 2.877l-4.605-.068.056-4.193 1.057-.02a3.034 3.034 0 003.025-2.99l.028-2.606a.35.35 0 01.095-.255c.093-.086.122-.11.597-.102l.283.002a4.205 4.205 0 10-.04-2.674l-.076.012a3.58 3.58 0 00-2.639.751 3.262 3.262 0 00-.898 2.24l-.026 2.605a.353.353 0 01-.361.345l-1.017.02.03-2.79c-.01-.3.017-.656.02-.931.021-2.135-1.748-3.942-5.14-5.284a32.293 32.293 0 00-11.16-1.904 31.984 31.984 0 00-11.197 1.674c-3.42 1.271-5.19 3.129-5.21 5.265-.003.305 0 .526-.006.96l-.03 2.902-6.455-.081.028-2.64a.971.971 0 01.982-.961l.724.008h.047a3.642 3.642 0 003.64-3.602l.054-2.783a4.182 4.182 0 002.427-2.33l19.58.202a7.816 7.816 0 003.863-1.005 9.132 9.132 0 004.628-9.125 8.886 8.886 0 00-3.822-5.973 9.546 9.546 0 00-5.951-1.645A13.607 13.607 0 0039.33.482a13.752 13.752 0 00-15.71 7.204c-5.721-.656-11.005 2.115-12.917 6.83a10.82 10.82 0 001.313 10.29 11.253 11.253 0 008.23 4.332l2.526.026a4.244 4.244 0 002.665 2.484l-.05 2.676a.976.976 0 01-.981.961h-.002l-.721-.007a3.648 3.648 0 00-3.69 3.607l-.028 2.648-3.146-.017a3.03 3.03 0 00-3.026 3.004l-.014 2.606a.351.351 0 01-.105.252.4.4 0 01-.23.094l-2.925-.056a4.203 4.203 0 10.025 2.675l2.886.054a3.03 3.03 0 003.025-3.004l.014-2.606a.35.35 0 01.35-.346l12.25.12-.022 2.047c-.414-.04-.832-.072-1.256-.077a14.348 14.348 0 00-12.33 21.991l-7.214-.084a4.181 4.181 0 10-.149 2.672l9.563.114a14.367 14.367 0 0022.749-3.727 37.833 37.833 0 004.41.301l.437.003c8.34 0 14.63-2.43 16.045-6.065l2.974.008a4.2 4.2 0 10.006-2.672l-2.672.005.069-7.623 4.617.068a4.196 4.196 0 103.986-5.473zm.511-10.51a1.755 1.755 0 11-1.757 1.754 1.758 1.758 0 011.757-1.755zM24.38 24.132a4.203 4.203 0 00-.328.23c-.08.063-.151.133-.225.201-.097.09-.19.179-.278.276-.069.077-.131.158-.194.24-.08.102-.156.207-.226.317a4.174 4.174 0 00-.325.628c-.04.098-.078.196-.111.297-.019.058-.046.11-.063.168l-2.286-.023a8.508 8.508 0 01-6.174-3.25 8.093 8.093 0 01-.984-7.699c1.526-3.766 6.246-5.937 10.98-5.049l1.066.201.417-1A11.107 11.107 0 0138.6 3.055a10.983 10.983 0 017.7 10.21l.059 1.608 1.573-.354a6.843 6.843 0 015.348 1.027 6.205 6.205 0 012.686 4.159 6.438 6.438 0 01-3.305 6.413 4.832 4.832 0 01-2.594.654l-19.329-.199c-.016-.06-.043-.116-.062-.176a4.255 4.255 0 00-.425-.949 4.108 4.108 0 00-.225-.328c-.062-.083-.123-.165-.191-.243a4.17 4.17 0 00-.28-.285c-.074-.07-.145-.14-.224-.205a4.168 4.168 0 00-.332-.237c-.082-.054-.161-.112-.247-.161a4.162 4.162 0 00-.387-.184c-.086-.038-.168-.082-.257-.114a4.206 4.206 0 00-.463-.127c-.078-.018-.153-.045-.233-.06a4.268 4.268 0 00-.738-.065 4.221 4.221 0 00-.724.064c-.079.014-.153.04-.23.058a4.211 4.211 0 00-.456.124c-.088.032-.17.074-.256.111a4.173 4.173 0 00-.38.18c-.086.047-.165.104-.247.157zm.535 3.506a1.757 1.757 0 111.758 1.755 1.758 1.758 0 01-1.758-1.755zm-18.35 22.91a1.755 1.755 0 111.757-1.756 1.759 1.759 0 01-1.757 1.755zm-2.36 20.49a1.755 1.755 0 111.758-1.756 1.759 1.759 0 01-1.757 1.755zM37.755 57.86a.67.67 0 01-.007 1.34l-2.772-.029-.01.876 2.766.029a.67.67 0 01-.007 1.34l-2.772-.03-.01.877 2.766.028a.67.67 0 01-.007 1.34l-2.772-.028-.009.876 2.765.028a.67.67 0 01-.006 1.34l-2.772-.028-.01.896a.7.7 0 01-.209.489.692.692 0 01-.486.198l-1.6-.016-.03 2.77a.67.67 0 01-1.341-.014l.028-2.77-.877-.01-.028 2.77a.67.67 0 01-1.342-.013l.028-2.77-.877-.009-.028 2.77a.67.67 0 01-1.342-.014l.029-2.77-.878-.009-.028 2.77a.671.671 0 01-1.15.462.664.664 0 01-.192-.476l.029-2.77-.878-.009-.028 2.77a.671.671 0 01-1.15.462.664.664 0 01-.192-.476l.029-2.77-1.503-.015a.696.696 0 01-.689-.702l.01-.89-2.692-.027a.67.67 0 01.006-1.34l2.699.028.01-.876-2.693-.028a.67.67 0 01.007-1.34l2.699.028.009-.876-2.692-.028a.67.67 0 01.007-1.34l2.699.028.009-.876-2.692-.028a.67.67 0 01.007-1.34l2.699.028.009-.876-2.692-.027a.67.67 0 01.007-1.34l2.698.027.01-1.001a.698.698 0 01.21-.49.722.722 0 01.485-.197l1.506.015.027-2.664a.67.67 0 011.342.014l-.028 2.664.878.009.027-2.664a.664.664 0 01.206-.472.701.701 0 01.473-.191.67.67 0 01.663.676l-.028 2.664.878.01.027-2.664a.67.67 0 011.342.013l-.028 2.664.878.01.027-2.665a.67.67 0 011.342.014l-.028 2.664.877.01.028-2.665a.67.67 0 011.342.014l-.028 2.664 1.599.016a.697.697 0 01.689.702l-.01.996 2.764.028a.67.67 0 01-.006 1.34l-2.772-.029-.01.876zm21.172 2.293c-.29 2.343-5.79 4.806-14.077 4.72a36.038 36.038 0 01-3.405-.208 14.325 14.325 0 00.585-3.873c.004-.388-.02-.77-.046-1.15 1.069.102 2.162.175 3.289.187l.41.002c5.57 0 10.42-1.169 13.279-3.16zm.083-7.717c-.283 2.333-5.562 4.787-13.717 4.72a35.253 35.253 0 01-3.767-.242 14.308 14.308 0 00-2.936-5.574 33.094 33.094 0 006.753.76l.387.001c5.55 0 10.414-1.223 13.313-3.309zm.079-7.944c-.127 1.143-1.546 2.376-3.795 3.298v.001a26.414 26.414 0 01-9.921 1.636c-4.632-.048-8.948-1.058-11.545-2.702-.898-.568-1.987-1.465-2.08-2.464l.024-2.314c2.939 1.92 7.923 3.08 13.62 3.139l.45.003c5.529 0 10.38-1.066 13.269-2.882zm-3.51-3.514a29.538 29.538 0 01-10.158 1.473c-7.292-.075-12.6-2.107-13.616-4.06a1.44 1.44 0 01-.136-.368 1.257 1.257 0 01-.022-.207c.009-.911 1.43-2.027 3.618-2.841a29.09 29.09 0 0110.248-1.51 29.58 29.58 0 0110.216 1.72c2.171.86 3.568 2.004 3.558 2.916-.01.943-1.43 2.046-3.709 2.877zm12.67 17.432a1.755 1.755 0 11-1.758 1.755 1.758 1.758 0 011.758-1.755zm2.035-6.66a1.755 1.755 0 111.757-1.755 1.759 1.759 0 01-1.757 1.756z" fill="#00853f"/>
	<path d="M21.59 65.884l11.923.123.11-10.706-11.922-.122zm2.573-8.416l7.025.072-.064 6.282-7.026-.072z" fill="#00853f"/>
</svg>