<?xml version="1.0" encoding="utf-8"?>
<!-- Generator: Adobe Illustrator 18.1.0, SVG Export Plug-In . SVG Version: 6.00 Build 0)  -->
<svg version="1.1" id="Layer_1" xmlns="http://www.w3.org/2000/svg" xmlns:xlink="http://www.w3.org/1999/xlink" x="0px" y="0px"
	 viewBox="0 0 123.3 64" enable-background="new 0 0 123.3 64" xml:space="preserve">
<path fill="#009245" d="M119.2,6.7H96.9v14.4h3h20.4h3V10.8C123.3,8.5,121.4,6.7,119.2,6.7z M99.9,18.4c-0.1,0-0.1,0-0.2,0
	c-0.4,0-0.8-0.3-0.8-0.8c0-0.4,0.3-0.8,0.8-0.8c0.1,0,0.2,0,0.2,0c0.3,0.1,0.6,0.4,0.6,0.7C100.4,18,100.2,18.3,99.9,18.4z
	 M99.9,15.2c-0.1,0-0.1,0-0.2,0c-0.4,0-0.8-0.3-0.8-0.8s0.3-0.8,0.8-0.8c0.1,0,0.2,0,0.2,0c0.3,0.1,0.6,0.4,0.6,0.7
	S100.2,15.1,99.9,15.2z M99.9,12c-0.1,0-0.1,0-0.2,0c-0.4,0-0.8-0.3-0.8-0.8s0.3-0.8,0.8-0.8c0.1,0,0.2,0,0.2,0
	c0.3,0.1,0.6,0.4,0.6,0.7S100.2,11.9,99.9,12z M102.8,18.4c-0.4,0-0.8-0.3-0.8-0.8c0-0.4,0.3-0.8,0.8-0.8s0.8,0.3,0.8,0.8
	C103.6,18.1,103.3,18.4,102.8,18.4z M102.8,15.3c-0.4,0-0.8-0.3-0.8-0.8s0.3-0.8,0.8-0.8s0.8,0.3,0.8,0.8S103.3,15.3,102.8,15.3z
	 M102.8,12.1c-0.4,0-0.8-0.3-0.8-0.8s0.3-0.8,0.8-0.8s0.8,0.3,0.8,0.8S103.3,12.1,102.8,12.1z M106,18.4c-0.4,0-0.8-0.3-0.8-0.8
	c0-0.4,0.3-0.8,0.8-0.8c0.4,0,0.8,0.3,0.8,0.8C106.8,18.1,106.4,18.4,106,18.4z M106,15.3c-0.4,0-0.8-0.3-0.8-0.8s0.3-0.8,0.8-0.8
	c0.4,0,0.8,0.3,0.8,0.8S106.4,15.3,106,15.3z M106,12.1c-0.4,0-0.8-0.3-0.8-0.8s0.3-0.8,0.8-0.8c0.4,0,0.8,0.3,0.8,0.8
	S106.4,12.1,106,12.1z M109.2,18.4c-0.4,0-0.8-0.3-0.8-0.8c0-0.4,0.3-0.8,0.8-0.8s0.8,0.3,0.8,0.8C110,18.1,109.6,18.4,109.2,18.4z
	 M109.2,15.3c-0.4,0-0.8-0.3-0.8-0.8s0.3-0.8,0.8-0.8s0.8,0.3,0.8,0.8S109.6,15.3,109.2,15.3z M109.2,12.1c-0.4,0-0.8-0.3-0.8-0.8
	s0.3-0.8,0.8-0.8s0.8,0.3,0.8,0.8S109.6,12.1,109.2,12.1z M112.4,18.4c-0.4,0-0.8-0.3-0.8-0.8c0-0.4,0.3-0.8,0.8-0.8
	c0.4,0,0.8,0.3,0.8,0.8C113.2,18.1,112.8,18.4,112.4,18.4z M112.4,15.3c-0.4,0-0.8-0.3-0.8-0.8s0.3-0.8,0.8-0.8
	c0.4,0,0.8,0.3,0.8,0.8S112.8,15.3,112.4,15.3z M112.4,12.1c-0.4,0-0.8-0.3-0.8-0.8s0.3-0.8,0.8-0.8c0.4,0,0.8,0.3,0.8,0.8
	S112.8,12.1,112.4,12.1z M115.6,18.4c-0.4,0-0.8-0.3-0.8-0.8c0-0.4,0.3-0.8,0.8-0.8c0.4,0,0.8,0.3,0.8,0.8
	C116.3,18.1,116,18.4,115.6,18.4z M115.6,15.3c-0.4,0-0.8-0.3-0.8-0.8s0.3-0.8,0.8-0.8c0.4,0,0.8,0.3,0.8,0.8S116,15.3,115.6,15.3z
	 M115.6,12.1c-0.4,0-0.8-0.3-0.8-0.8s0.3-0.8,0.8-0.8c0.4,0,0.8,0.3,0.8,0.8S116,12.1,115.6,12.1z M118.7,18.4
	c-0.4,0-0.8-0.3-0.8-0.8c0-0.4,0.3-0.8,0.8-0.8c0.4,0,0.8,0.3,0.8,0.8C119.5,18.1,119.2,18.4,118.7,18.4z M118.7,15.3
	c-0.4,0-0.8-0.3-0.8-0.8s0.3-0.8,0.8-0.8c0.4,0,0.8,0.3,0.8,0.8S119.2,15.3,118.7,15.3z M118.7,12.1c-0.4,0-0.8-0.3-0.8-0.8
	s0.3-0.8,0.8-0.8c0.4,0,0.8,0.3,0.8,0.8S119.2,12.1,118.7,12.1z"/>
<path fill="#009245" d="M120.3,41.4H99.9h-3v15.1h22.3c2.3,0,4.1-1.8,4.1-4.1V41.4H120.3z M118.7,44.6c0.4,0,0.8,0.3,0.8,0.8
	c0,0.4-0.3,0.8-0.8,0.8c-0.4,0-0.8-0.3-0.8-0.8C118,45,118.3,44.6,118.7,44.6z M118.7,47.8c0.4,0,0.8,0.3,0.8,0.8
	c0,0.4-0.3,0.8-0.8,0.8c-0.4,0-0.8-0.3-0.8-0.8C118,48.2,118.3,47.8,118.7,47.8z M118.7,51c0.4,0,0.8,0.3,0.8,0.8s-0.3,0.8-0.8,0.8
	c-0.4,0-0.8-0.3-0.8-0.8S118.3,51,118.7,51z M115.6,44.6c0.4,0,0.8,0.3,0.8,0.8c0,0.4-0.3,0.8-0.8,0.8c-0.4,0-0.8-0.3-0.8-0.8
	C114.8,45,115.1,44.6,115.6,44.6z M115.6,47.8c0.4,0,0.8,0.3,0.8,0.8c0,0.4-0.3,0.8-0.8,0.8c-0.4,0-0.8-0.3-0.8-0.8
	C114.8,48.2,115.1,47.8,115.6,47.8z M115.6,51c0.4,0,0.8,0.3,0.8,0.8s-0.3,0.8-0.8,0.8c-0.4,0-0.8-0.3-0.8-0.8S115.1,51,115.6,51z
	 M112.4,44.6c0.4,0,0.8,0.3,0.8,0.8c0,0.4-0.3,0.8-0.8,0.8c-0.4,0-0.8-0.3-0.8-0.8C111.6,45,111.9,44.6,112.4,44.6z M112.4,47.8
	c0.4,0,0.8,0.3,0.8,0.8c0,0.4-0.3,0.8-0.8,0.8c-0.4,0-0.8-0.3-0.8-0.8C111.6,48.2,111.9,47.8,112.4,47.8z M112.4,51
	c0.4,0,0.8,0.3,0.8,0.8s-0.3,0.8-0.8,0.8c-0.4,0-0.8-0.3-0.8-0.8S111.9,51,112.4,51z M109.2,44.6c0.4,0,0.8,0.3,0.8,0.8
	c0,0.4-0.3,0.8-0.8,0.8s-0.8-0.3-0.8-0.8C108.4,45,108.8,44.6,109.2,44.6z M109.2,47.8c0.4,0,0.8,0.3,0.8,0.8c0,0.4-0.3,0.8-0.8,0.8
	s-0.8-0.3-0.8-0.8C108.4,48.2,108.8,47.8,109.2,47.8z M109.2,51c0.4,0,0.8,0.3,0.8,0.8s-0.3,0.8-0.8,0.8s-0.8-0.3-0.8-0.8
	S108.8,51,109.2,51z M106,44.6c0.4,0,0.8,0.3,0.8,0.8c0,0.4-0.3,0.8-0.8,0.8c-0.4,0-0.8-0.3-0.8-0.8C105.2,45,105.6,44.6,106,44.6z
	 M106,47.8c0.4,0,0.8,0.3,0.8,0.8c0,0.4-0.3,0.8-0.8,0.8c-0.4,0-0.8-0.3-0.8-0.8C105.2,48.2,105.6,47.8,106,47.8z M106,51
	c0.4,0,0.8,0.3,0.8,0.8s-0.3,0.8-0.8,0.8c-0.4,0-0.8-0.3-0.8-0.8S105.6,51,106,51z M102.8,44.6c0.4,0,0.8,0.3,0.8,0.8
	c0,0.4-0.3,0.8-0.8,0.8s-0.8-0.3-0.8-0.8C102,45,102.4,44.6,102.8,44.6z M102.8,47.8c0.4,0,0.8,0.3,0.8,0.8c0,0.4-0.3,0.8-0.8,0.8
	S102,49,102,48.6C102,48.2,102.4,47.8,102.8,47.8z M102.8,51c0.4,0,0.8,0.3,0.8,0.8s-0.3,0.8-0.8,0.8s-0.8-0.3-0.8-0.8
	S102.4,51,102.8,51z M99.6,44.6c0.1,0,0.2,0,0.2,0c0.3,0.1,0.6,0.4,0.6,0.7c0,0.4-0.2,0.6-0.6,0.7c-0.1,0-0.1,0-0.2,0
	c-0.4,0-0.8-0.3-0.8-0.8C98.9,45,99.2,44.6,99.6,44.6z M99.6,47.8c0.1,0,0.2,0,0.2,0c0.3,0.1,0.6,0.4,0.6,0.7s-0.2,0.6-0.6,0.7
	c-0.1,0-0.1,0-0.2,0c-0.4,0-0.8-0.3-0.8-0.8C98.9,48.2,99.2,47.8,99.6,47.8z M98.9,51.8c0-0.4,0.3-0.8,0.8-0.8c0.1,0,0.2,0,0.2,0
	c0.3,0.1,0.6,0.4,0.6,0.7s-0.2,0.6-0.6,0.7c-0.1,0-0.1,0-0.2,0C99.2,52.6,98.9,52.2,98.9,51.8z"/>
<path fill="#009245" d="M120.3,24.1H99.9v0h-3v14.2h3v0h20.4h3V24.1H120.3z M99.9,35L99.9,35c-0.1,0.1-0.1,0.1-0.2,0.1
	c-0.4,0-0.8-0.3-0.8-0.8c0-0.4,0.3-0.8,0.8-0.8c0.1,0,0.2,0,0.2,0v0c0.3,0.1,0.6,0.4,0.6,0.7C100.4,34.6,100.2,34.9,99.9,35z
	 M99.9,31.8L99.9,31.8c-0.1,0.1-0.1,0.1-0.2,0.1c-0.4,0-0.8-0.3-0.8-0.8c0-0.4,0.3-0.8,0.8-0.8c0.1,0,0.2,0,0.2,0v0
	c0.3,0.1,0.6,0.4,0.6,0.7S100.2,31.7,99.9,31.8z M99.9,28.6L99.9,28.6c-0.1,0.1-0.1,0.1-0.2,0.1c-0.4,0-0.8-0.3-0.8-0.8
	s0.3-0.8,0.8-0.8c0.1,0,0.2,0,0.2,0v0c0.3,0.1,0.6,0.4,0.6,0.7S100.2,28.5,99.9,28.6z M102.8,35c-0.4,0-0.8-0.3-0.8-0.8
	c0-0.4,0.3-0.8,0.8-0.8s0.8,0.3,0.8,0.8C103.6,34.7,103.3,35,102.8,35z M102.8,31.8c-0.4,0-0.8-0.3-0.8-0.8c0-0.4,0.3-0.8,0.8-0.8
	s0.8,0.3,0.8,0.8C103.6,31.5,103.3,31.8,102.8,31.8z M102.8,28.7c-0.4,0-0.8-0.3-0.8-0.8s0.3-0.8,0.8-0.8s0.8,0.3,0.8,0.8
	S103.3,28.7,102.8,28.7z M106,35c-0.4,0-0.8-0.3-0.8-0.8c0-0.4,0.3-0.8,0.8-0.8c0.4,0,0.8,0.3,0.8,0.8C106.8,34.7,106.4,35,106,35z
	 M106,31.8c-0.4,0-0.8-0.3-0.8-0.8c0-0.4,0.3-0.8,0.8-0.8c0.4,0,0.8,0.3,0.8,0.8C106.8,31.5,106.4,31.8,106,31.8z M106,28.7
	c-0.4,0-0.8-0.3-0.8-0.8s0.3-0.8,0.8-0.8c0.4,0,0.8,0.3,0.8,0.8S106.4,28.7,106,28.7z M109.2,35c-0.4,0-0.8-0.3-0.8-0.8
	c0-0.4,0.3-0.8,0.8-0.8s0.8,0.3,0.8,0.8C110,34.7,109.6,35,109.2,35z M109.2,31.8c-0.4,0-0.8-0.3-0.8-0.8c0-0.4,0.3-0.8,0.8-0.8
	s0.8,0.3,0.8,0.8C110,31.5,109.6,31.8,109.2,31.8z M109.2,28.7c-0.4,0-0.8-0.3-0.8-0.8s0.3-0.8,0.8-0.8s0.8,0.3,0.8,0.8
	S109.6,28.7,109.2,28.7z M112.4,35c-0.4,0-0.8-0.3-0.8-0.8c0-0.4,0.3-0.8,0.8-0.8c0.4,0,0.8,0.3,0.8,0.8
	C113.2,34.7,112.8,35,112.4,35z M112.4,31.8c-0.4,0-0.8-0.3-0.8-0.8c0-0.4,0.3-0.8,0.8-0.8c0.4,0,0.8,0.3,0.8,0.8
	C113.2,31.5,112.8,31.8,112.4,31.8z M112.4,28.7c-0.4,0-0.8-0.3-0.8-0.8s0.3-0.8,0.8-0.8c0.4,0,0.8,0.3,0.8,0.8
	S112.8,28.7,112.4,28.7z M115.6,35c-0.4,0-0.8-0.3-0.8-0.8c0-0.4,0.3-0.8,0.8-0.8c0.4,0,0.8,0.3,0.8,0.8C116.3,34.7,116,35,115.6,35
	z M115.6,31.8c-0.4,0-0.8-0.3-0.8-0.8c0-0.4,0.3-0.8,0.8-0.8c0.4,0,0.8,0.3,0.8,0.8C116.3,31.5,116,31.8,115.6,31.8z M115.6,28.7
	c-0.4,0-0.8-0.3-0.8-0.8s0.3-0.8,0.8-0.8c0.4,0,0.8,0.3,0.8,0.8S116,28.7,115.6,28.7z M118.7,35c-0.4,0-0.8-0.3-0.8-0.8
	c0-0.4,0.3-0.8,0.8-0.8c0.4,0,0.8,0.3,0.8,0.8C119.5,34.7,119.2,35,118.7,35z M118.7,31.8c-0.4,0-0.8-0.3-0.8-0.8
	c0-0.4,0.3-0.8,0.8-0.8c0.4,0,0.8,0.3,0.8,0.8C119.5,31.5,119.2,31.8,118.7,31.8z M118.7,28.7c-0.4,0-0.8-0.3-0.8-0.8
	s0.3-0.8,0.8-0.8c0.4,0,0.8,0.3,0.8,0.8S119.2,28.7,118.7,28.7z"/>
<g>
	<path fill="#009245" d="M0,41.4v10.9c0,2.3,1.8,4.1,4.1,4.1h22.3v-15H0z M20.8,44.6c0.4,0,0.8,0.3,0.8,0.8c0,0.4-0.3,0.8-0.8,0.8
		s-0.8-0.4-0.8-0.8C20.1,45,20.4,44.6,20.8,44.6z M20.8,47.8c0.4,0,0.8,0.3,0.8,0.8c0,0.4-0.3,0.8-0.8,0.8s-0.8-0.4-0.8-0.8
		C20.1,48.2,20.4,47.8,20.8,47.8z M20.8,51c0.4,0,0.8,0.3,0.8,0.8c0,0.4-0.3,0.8-0.8,0.8s-0.8-0.4-0.8-0.8
		C20.1,51.3,20.4,51,20.8,51z M17.7,44.6c0.4,0,0.8,0.3,0.8,0.8c0,0.4-0.3,0.8-0.8,0.8c-0.4,0-0.8-0.4-0.8-0.8
		C16.9,45,17.2,44.6,17.7,44.6z M17.7,47.8c0.4,0,0.8,0.3,0.8,0.8c0,0.4-0.3,0.8-0.8,0.8c-0.4,0-0.8-0.4-0.8-0.8
		C16.9,48.2,17.2,47.8,17.7,47.8z M17.7,51c0.4,0,0.8,0.3,0.8,0.8c0,0.4-0.3,0.8-0.8,0.8c-0.4,0-0.8-0.4-0.8-0.8
		C16.9,51.3,17.2,51,17.7,51z M12.5,46.4c1.1,0,2,0.9,2,2c0,1.1-0.9,2-2,2c-1.1,0-2-0.9-2-2C10.6,47.3,11.5,46.4,12.5,46.4z M7,46.4
		c1.1,0,2,0.9,2,2c0,1.1-0.9,2-2,2c-1.1,0-2-0.9-2-2C5.1,47.3,6,46.4,7,46.4z M24,52.6c-0.3,0-0.5-0.1-0.6-0.3
		c-0.1-0.1-0.2-0.3-0.2-0.5c0-0.2,0.1-0.3,0.2-0.5c0.1-0.2,0.4-0.3,0.6-0.3c0.4,0,0.8,0.3,0.8,0.8C24.8,52.2,24.5,52.6,24,52.6z
		 M24,49.4c-0.3,0-0.5-0.1-0.6-0.3c-0.1-0.1-0.2-0.3-0.2-0.5c0-0.2,0.1-0.3,0.2-0.5c0.1-0.2,0.4-0.3,0.6-0.3c0.4,0,0.8,0.3,0.8,0.8
		C24.8,49,24.5,49.4,24,49.4z M24,46.2c-0.3,0-0.5-0.1-0.6-0.3c-0.1-0.1-0.2-0.3-0.2-0.5c0-0.2,0.1-0.3,0.2-0.5
		c0.1-0.2,0.4-0.3,0.6-0.3c0.4,0,0.8,0.3,0.8,0.8C24.8,45.8,24.5,46.2,24,46.2z"/>
</g>
<path fill="#009245" d="M23.4,24.1H3H0v14.2h3h20.4h3V24.1H23.4z M7,32.9c-1.1,0-2-0.9-2-2s0.9-2,2-2s2,0.9,2,2S8.1,32.9,7,32.9z
	 M12.5,32.9c-1.1,0-2-0.9-2-2s0.9-2,2-2s2,0.9,2,2S13.6,32.9,12.5,32.9z M17.7,35.1c-0.4,0-0.8-0.3-0.8-0.8c0-0.4,0.3-0.8,0.8-0.8
	c0.4,0,0.8,0.3,0.8,0.8C18.4,34.7,18.1,35.1,17.7,35.1z M17.7,31.9c-0.4,0-0.8-0.3-0.8-0.8c0-0.4,0.3-0.8,0.8-0.8
	c0.4,0,0.8,0.3,0.8,0.8C18.4,31.5,18.1,31.9,17.7,31.9z M17.7,28.7c-0.4,0-0.8-0.3-0.8-0.8s0.3-0.8,0.8-0.8c0.4,0,0.8,0.3,0.8,0.8
	S18.1,28.7,17.7,28.7z M20.8,35.1c-0.4,0-0.8-0.3-0.8-0.8c0-0.4,0.3-0.8,0.8-0.8c0.4,0,0.8,0.3,0.8,0.8
	C21.6,34.7,21.3,35.1,20.8,35.1z M20.8,31.9c-0.4,0-0.8-0.3-0.8-0.8c0-0.4,0.3-0.8,0.8-0.8c0.4,0,0.8,0.3,0.8,0.8
	C21.6,31.5,21.3,31.9,20.8,31.9z M20.8,28.7c-0.4,0-0.8-0.3-0.8-0.8s0.3-0.8,0.8-0.8c0.4,0,0.8,0.3,0.8,0.8S21.3,28.7,20.8,28.7z
	 M24,35.1c-0.3,0-0.5-0.1-0.6-0.3c-0.1-0.1-0.2-0.3-0.2-0.5s0.1-0.3,0.2-0.5c0.1-0.2,0.4-0.3,0.6-0.3c0.4,0,0.8,0.3,0.8,0.8
	C24.8,34.7,24.5,35.1,24,35.1z M24,31.9c-0.3,0-0.5-0.1-0.6-0.3c-0.1-0.1-0.2-0.3-0.2-0.5s0.1-0.3,0.2-0.5c0.1-0.2,0.4-0.3,0.6-0.3
	c0.4,0,0.8,0.3,0.8,0.8C24.8,31.5,24.5,31.9,24,31.9z M24,28.7c-0.3,0-0.5-0.1-0.6-0.3c-0.1-0.1-0.2-0.3-0.2-0.5s0.1-0.3,0.2-0.5
	c0.1-0.2,0.4-0.3,0.6-0.3c0.4,0,0.8,0.3,0.8,0.8S24.5,28.7,24,28.7z"/>
<path fill="#009245" d="M4.1,6.7C1.8,6.7,0,8.5,0,10.8v10.3h3h20.4h3V6.7H4.1z M7,16.2c-1.1,0-2-0.9-2-2s0.9-2,2-2s2,0.9,2,2
	S8.1,16.2,7,16.2z M12.5,16.2c-1.1,0-2-0.9-2-2s0.9-2,2-2s2,0.9,2,2S13.6,16.2,12.5,16.2z M17.7,18.4c-0.4,0-0.8-0.3-0.8-0.8
	c0-0.4,0.3-0.8,0.8-0.8c0.4,0,0.8,0.3,0.8,0.8C18.4,18.1,18.1,18.4,17.7,18.4z M17.7,15.3c-0.4,0-0.8-0.3-0.8-0.8s0.3-0.8,0.8-0.8
	c0.4,0,0.8,0.3,0.8,0.8S18.1,15.3,17.7,15.3z M17.7,12.1c-0.4,0-0.8-0.3-0.8-0.8s0.3-0.8,0.8-0.8c0.4,0,0.8,0.3,0.8,0.8
	S18.1,12.1,17.7,12.1z M20.8,18.4c-0.4,0-0.8-0.3-0.8-0.8c0-0.4,0.3-0.8,0.8-0.8c0.4,0,0.8,0.3,0.8,0.8
	C21.6,18.1,21.3,18.4,20.8,18.4z M20.8,15.3c-0.4,0-0.8-0.3-0.8-0.8s0.3-0.8,0.8-0.8c0.4,0,0.8,0.3,0.8,0.8S21.3,15.3,20.8,15.3z
	 M20.8,12.1c-0.4,0-0.8-0.3-0.8-0.8s0.3-0.8,0.8-0.8c0.4,0,0.8,0.3,0.8,0.8S21.3,12.1,20.8,12.1z M24,18.4c-0.3,0-0.5-0.1-0.6-0.3
	c-0.1-0.1-0.2-0.3-0.2-0.5s0.1-0.3,0.2-0.5c0.1-0.2,0.4-0.3,0.6-0.3c0.4,0,0.8,0.3,0.8,0.8C24.8,18.1,24.5,18.4,24,18.4z M24,15.3
	c-0.3,0-0.5-0.1-0.6-0.3c-0.1-0.1-0.2-0.3-0.2-0.5s0.1-0.3,0.2-0.5c0.1-0.2,0.4-0.3,0.6-0.3c0.4,0,0.8,0.3,0.8,0.8
	S24.5,15.3,24,15.3z M24,12.1c-0.3,0-0.5-0.1-0.6-0.3c-0.1-0.1-0.2-0.3-0.2-0.5s0.1-0.3,0.2-0.5c0.1-0.2,0.4-0.3,0.6-0.3
	c0.4,0,0.8,0.3,0.8,0.8S24.5,12.1,24,12.1z"/>
<path fill="#009245" d="M37.5,6.2c-2.1,0-3.8,1.7-3.8,3.8c0,0.3,0,0.5,0.1,0.8c0.1,0.4,0.2,0.7,0.4,1.1c0.6,1.1,1.9,1.9,3.3,1.9
	c2.1,0,3.8-1.7,3.8-3.8C41.3,7.9,39.6,6.2,37.5,6.2z M37.5,11.3C37.5,11.3,37.5,11.3,37.5,11.3c-0.4,0-0.7-0.2-1-0.5
	c-0.2-0.2-0.3-0.5-0.3-0.8c0-0.7,0.6-1.3,1.3-1.3s1.3,0.6,1.3,1.3S38.2,11.3,37.5,11.3z"/>
<path fill="#009245" d="M45.7,6.2c-2.1,0-3.8,1.7-3.8,3.8c0,2.1,1.7,3.8,3.8,3.8s3.8-1.7,3.8-3.8C49.4,7.9,47.7,6.2,45.7,6.2z
	 M45.7,11.3c-0.7,0-1.3-0.6-1.3-1.3s0.6-1.3,1.3-1.3s1.3,0.6,1.3,1.3S46.4,11.3,45.7,11.3z"/>
<circle fill="#009245" cx="86.9" cy="6" r="1"/>
<circle fill="#009245" cx="82.8" cy="6" r="1"/>
<circle fill="#009245" cx="78.8" cy="6" r="1"/>
<circle fill="#009245" cx="74.7" cy="6" r="1"/>
<circle fill="#009245" cx="70.6" cy="6" r="1"/>
<circle fill="#009245" cx="66.5" cy="6" r="1"/>
<circle fill="#009245" cx="62.5" cy="6" r="1"/>
<circle fill="#009245" cx="58.4" cy="6" r="1"/>
<circle fill="#009245" cx="54.3" cy="6" r="1"/>
<circle fill="#009245" cx="86.9" cy="10" r="1"/>
<circle fill="#009245" cx="82.8" cy="10" r="1"/>
<circle fill="#009245" cx="78.8" cy="10" r="1"/>
<circle fill="#009245" cx="74.7" cy="10" r="1"/>
<circle fill="#009245" cx="70.6" cy="10" r="1"/>
<circle fill="#009245" cx="66.5" cy="10" r="1"/>
<circle fill="#009245" cx="62.5" cy="10" r="1"/>
<circle fill="#009245" cx="58.4" cy="10" r="1"/>
<circle fill="#009245" cx="54.3" cy="10" r="1"/>
<circle fill="#009245" cx="86.9" cy="14.1" r="1"/>
<circle fill="#009245" cx="82.8" cy="14.1" r="1"/>
<circle fill="#009245" cx="78.8" cy="14.1" r="1"/>
<circle fill="#009245" cx="74.7" cy="14.1" r="1"/>
<circle fill="#009245" cx="70.6" cy="14.1" r="1"/>
<circle fill="#009245" cx="66.5" cy="14.1" r="1"/>
<circle fill="#009245" cx="62.5" cy="14.1" r="1"/>
<circle fill="#009245" cx="58.4" cy="14.1" r="1"/>
<circle fill="#009245" cx="54.3" cy="14.1" r="1"/>
<path fill="#009245" d="M90.6,0H32.7c-2.2,0-4.1,1.8-4.1,4.1v11.9c0,2.2,1.8,4.1,4.1,4.1h57.9c2.2,0,4.1-1.8,4.1-4.1V4.1
	C94.6,1.8,92.8,0,90.6,0z M91.6,15.9c0,0.6-0.5,1.1-1.1,1.1H43.5h-0.8h-2.4h-0.8h-2.4h-0.8H34h-0.8h-0.5c-0.6,0-1.1-0.5-1.1-1.1V4.1
	c0-0.6,0.5-1.1,1.1-1.1h57.9c0.6,0,1.1,0.5,1.1,1.1V15.9z"/>
<path fill="#009245" d="M37.5,28.2c-2.1,0-3.8,1.7-3.8,3.8c0,0.3,0,0.5,0.1,0.8c0.1,0.4,0.2,0.7,0.4,1.1c0.6,1.1,1.9,1.9,3.3,1.9
	c2.1,0,3.8-1.7,3.8-3.8C41.3,29.9,39.6,28.2,37.5,28.2z M37.5,33.3C37.5,33.3,37.5,33.3,37.5,33.3c-0.4,0-0.7-0.2-1-0.5
	c-0.2-0.2-0.3-0.5-0.3-0.8c0-0.7,0.6-1.3,1.3-1.3s1.3,0.6,1.3,1.3S38.2,33.3,37.5,33.3z"/>
<path fill="#009245" d="M45.7,28.2c-2.1,0-3.8,1.7-3.8,3.8c0,2.1,1.7,3.8,3.8,3.8s3.8-1.7,3.8-3.8C49.4,29.9,47.7,28.2,45.7,28.2z
	 M45.7,33.3c-0.7,0-1.3-0.6-1.3-1.3s0.6-1.3,1.3-1.3s1.3,0.6,1.3,1.3S46.4,33.3,45.7,33.3z"/>
<circle fill="#009245" cx="86.9" cy="28" r="1"/>
<circle fill="#009245" cx="82.8" cy="28" r="1"/>
<circle fill="#009245" cx="78.8" cy="28" r="1"/>
<circle fill="#009245" cx="74.7" cy="28" r="1"/>
<circle fill="#009245" cx="70.6" cy="28" r="1"/>
<circle fill="#009245" cx="66.5" cy="28" r="1"/>
<circle fill="#009245" cx="62.5" cy="28" r="1"/>
<circle fill="#009245" cx="58.4" cy="28" r="1"/>
<circle fill="#009245" cx="54.3" cy="28" r="1"/>
<circle fill="#009245" cx="86.9" cy="32" r="1"/>
<circle fill="#009245" cx="82.8" cy="32" r="1"/>
<circle fill="#009245" cx="78.8" cy="32" r="1"/>
<circle fill="#009245" cx="74.7" cy="32" r="1"/>
<circle fill="#009245" cx="70.6" cy="32" r="1"/>
<circle fill="#009245" cx="66.5" cy="32" r="1"/>
<circle fill="#009245" cx="62.5" cy="32" r="1"/>
<circle fill="#009245" cx="58.4" cy="32" r="1"/>
<circle fill="#009245" cx="54.3" cy="32" r="1"/>
<circle fill="#009245" cx="86.9" cy="36.1" r="1"/>
<circle fill="#009245" cx="82.8" cy="36.1" r="1"/>
<circle fill="#009245" cx="78.8" cy="36.1" r="1"/>
<circle fill="#009245" cx="74.7" cy="36.1" r="1"/>
<circle fill="#009245" cx="70.6" cy="36.1" r="1"/>
<circle fill="#009245" cx="66.5" cy="36.1" r="1"/>
<circle fill="#009245" cx="62.5" cy="36.1" r="1"/>
<circle fill="#009245" cx="58.4" cy="36.1" r="1"/>
<circle fill="#009245" cx="54.3" cy="36.1" r="1"/>
<path fill="#009245" d="M90.6,22H32.7c-2.2,0-4.1,1.8-4.1,4.1v11.9c0,2.2,1.8,4.1,4.1,4.1h57.9c2.2,0,4.1-1.8,4.1-4.1V26.1
	C94.6,23.8,92.8,22,90.6,22z M91.6,37.9c0,0.6-0.5,1.1-1.1,1.1H43.5h-0.8h-2.4h-0.8h-2.4h-0.8H34h-0.8h-0.5c-0.6,0-1.1-0.5-1.1-1.1
	V26.1c0-0.6,0.5-1.1,1.1-1.1h57.9c0.6,0,1.1,0.5,1.1,1.1V37.9z"/>
<path fill="#009245" d="M37.5,50.2c-2.1,0-3.8,1.7-3.8,3.8c0,0.3,0,0.5,0.1,0.8c0.1,0.4,0.2,0.7,0.4,1.1c0.6,1.1,1.9,1.9,3.3,1.9
	c2.1,0,3.8-1.7,3.8-3.8C41.3,51.9,39.6,50.2,37.5,50.2z M37.5,55.3C37.5,55.3,37.5,55.3,37.5,55.3c-0.4,0-0.7-0.2-1-0.5
	c-0.2-0.2-0.3-0.5-0.3-0.8c0-0.7,0.6-1.3,1.3-1.3s1.3,0.6,1.3,1.3S38.2,55.3,37.5,55.3z"/>
<path fill="#009245" d="M45.7,50.2c-2.1,0-3.8,1.7-3.8,3.8c0,2.1,1.7,3.8,3.8,3.8s3.8-1.7,3.8-3.8C49.4,51.9,47.7,50.2,45.7,50.2z
	 M45.7,55.3c-0.7,0-1.3-0.6-1.3-1.3s0.6-1.3,1.3-1.3s1.3,0.6,1.3,1.3S46.4,55.3,45.7,55.3z"/>
<circle fill="#009245" cx="86.9" cy="50" r="1"/>
<circle fill="#009245" cx="82.8" cy="50" r="1"/>
<circle fill="#009245" cx="78.8" cy="50" r="1"/>
<circle fill="#009245" cx="74.7" cy="50" r="1"/>
<circle fill="#009245" cx="70.6" cy="50" r="1"/>
<circle fill="#009245" cx="66.5" cy="50" r="1"/>
<circle fill="#009245" cx="62.5" cy="50" r="1"/>
<circle fill="#009245" cx="58.4" cy="50" r="1"/>
<circle fill="#009245" cx="54.3" cy="50" r="1"/>
<circle fill="#009245" cx="86.9" cy="54" r="1"/>
<circle fill="#009245" cx="82.8" cy="54" r="1"/>
<circle fill="#009245" cx="78.8" cy="54" r="1"/>
<circle fill="#009245" cx="74.7" cy="54" r="1"/>
<circle fill="#009245" cx="70.6" cy="54" r="1"/>
<circle fill="#009245" cx="66.5" cy="54" r="1"/>
<circle fill="#009245" cx="62.5" cy="54" r="1"/>
<circle fill="#009245" cx="58.4" cy="54" r="1"/>
<circle fill="#009245" cx="54.3" cy="54" r="1"/>
<circle fill="#009245" cx="86.9" cy="58.1" r="1"/>
<circle fill="#009245" cx="82.8" cy="58.1" r="1"/>
<circle fill="#009245" cx="78.8" cy="58.1" r="1"/>
<circle fill="#009245" cx="74.7" cy="58.1" r="1"/>
<circle fill="#009245" cx="70.6" cy="58.1" r="1"/>
<circle fill="#009245" cx="66.5" cy="58.1" r="1"/>
<circle fill="#009245" cx="62.5" cy="58.1" r="1"/>
<circle fill="#009245" cx="58.4" cy="58.1" r="1"/>
<circle fill="#009245" cx="54.3" cy="58.1" r="1"/>
<path fill="#009245" d="M90.6,44H32.7c-2.2,0-4.1,1.8-4.1,4.1v11.9c0,2.2,1.8,4.1,4.1,4.1h57.9c2.2,0,4.1-1.8,4.1-4.1V48.1
	C94.6,45.8,92.8,44,90.6,44z M91.6,59.9c0,0.6-0.5,1.1-1.1,1.1H43.5h-0.8h-2.4h-0.8h-2.4h-0.8H34h-0.8h-0.5c-0.6,0-1.1-0.5-1.1-1.1
	V48.1c0-0.6,0.5-1.1,1.1-1.1h57.9c0.6,0,1.1,0.5,1.1,1.1V59.9z"/>
</svg>
