<?xml version="1.0" encoding="utf-8"?>
<!-- Generator: Adobe Illustrator 18.1.0, SVG Export Plug-In . SVG Version: 6.00 Build 0)  -->
<svg version="1.1" id="Layer_1" xmlns="http://www.w3.org/2000/svg" xmlns:xlink="http://www.w3.org/1999/xlink" x="0px" y="0px"
	 viewBox="0 0 75.2 64" enable-background="new 0 0 75.2 64" xml:space="preserve">
<path fill="#0C9ED9" d="M66,8.2V4.1C66,1.8,64.2,0,61.9,0H4.1C1.8,0,0,1.8,0,4.1v11.9C0,18.2,1.8,20,4.1,20h57.9
	c2.2,0,4.1-1.8,4.1-4.1v-4.8h6.2V30H66v-3.9c0-2.2-1.8-4.1-4.1-4.1H4.1C1.8,22,0,23.8,0,26.1v11.9C0,40.2,1.8,42,4.1,42h57.9
	c2.2,0,4.1-1.8,4.1-4.1v-5h6.2v18.8H66v-3.8c0-2.2-1.8-4.1-4.1-4.1H4.1C1.8,44,0,45.8,0,48.1v11.9C0,62.2,1.8,64,4.1,64h57.9
	c2.2,0,4.1-1.8,4.1-4.1v-5.1h9.2V8.2H66z M63,15.9c0,0.6-0.5,1.1-1.1,1.1H4.1C3.5,17,3,16.5,3,15.9V4.1C3,3.5,3.5,3,4.1,3h57.9
	C62.5,3,63,3.5,63,4.1V15.9z M63,37.9c0,0.6-0.5,1.1-1.1,1.1H4.1C3.5,39,3,38.5,3,37.9V26.1C3,25.5,3.5,25,4.1,25h57.9
	c0.6,0,1.1,0.5,1.1,1.1V37.9z M63,59.9c0,0.6-0.5,1.1-1.1,1.1H4.1C3.5,61,3,60.5,3,59.9V48.1C3,47.5,3.5,47,4.1,47h57.9
	c0.6,0,1.1,0.5,1.1,1.1V59.9z"/>
</svg>
