<?xml version="1.0" encoding="UTF-8" standalone="no"?>
<svg width="70px" height="75px" viewBox="0 0 70 75" version="1.1" xmlns="http://www.w3.org/2000/svg" xmlns:xlink="http://www.w3.org/1999/xlink" xmlns:sketch="http://www.bohemiancoding.com/sketch/ns">
    <!-- Generator: Sketch 3.2.2 (9983) - http://www.bohemiancoding.com/sketch -->
    <title>Imported Layers</title>
    <desc>Created with Sketch.</desc>
    <defs></defs>
    <g id="Page-1" stroke="none" stroke-width="1" fill="none" fill-rule="evenodd" sketch:type="MSPage">
        <g id="CLC_KB_Home_3a" sketch:type="MSArtboardGroup" transform="translate(-1032.000000, -595.000000)">
            <g id="Imported-Layers" sketch:type="MSLayerGroup" transform="translate(1034.000000, 597.000000)">
                <path d="M65.7027027,56.6350633 C65.7027027,55.2111013 64.554973,54.056962 63.1389189,54.056962 L4.86108108,54.056962 C3.44502703,54.056962 2.2972973,55.2111013 2.2972973,56.6350633 L2.2972973,68.1117722 C2.2972973,69.5357342 3.44502703,70.6898734 4.86108108,70.6898734 L63.1389189,70.6898734 C64.554973,70.6898734 65.7027027,69.5357342 65.7027027,68.1117722 L65.7027027,56.6350633 L65.7027027,56.6350633 Z" id="Fill-1" fill="#009245" sketch:type="MSShapeGroup"></path>
                <path d="M65.7027027,56.6350633 C65.7027027,55.2111013 64.554973,54.056962 63.1389189,54.056962 L4.86108108,54.056962 C3.44502703,54.056962 2.2972973,55.2111013 2.2972973,56.6350633 L2.2972973,68.1117722 C2.2972973,69.5357342 3.44502703,70.6898734 4.86108108,70.6898734 L63.1389189,70.6898734 C64.554973,70.6898734 65.7027027,69.5357342 65.7027027,68.1117722 L65.7027027,56.6350633 L65.7027027,56.6350633 Z" id="Stroke-2" stroke="#009245" stroke-width="3" sketch:type="MSShapeGroup"></path>
                <path d="M64.7837838,54.786962 C64.7837838,53.363 63.6360541,52.2088608 62.22,52.2088608 L3.94216216,52.2088608 C2.52610811,52.2088608 1.37837838,53.363 1.37837838,54.786962 L1.37837838,66.2636709 C1.37837838,67.6876329 2.52610811,68.8417722 3.94216216,68.8417722 L62.22,68.8417722 C63.6360541,68.8417722 64.7837838,67.6876329 64.7837838,66.2636709 L64.7837838,54.786962 L64.7837838,54.786962 Z" id="Fill-3" fill="#FFFFFF" sketch:type="MSShapeGroup"></path>
                <path d="M64.7837838,54.786962 C64.7837838,53.363 63.6360541,52.2088608 62.22,52.2088608 L3.94216216,52.2088608 C2.52610811,52.2088608 1.37837838,53.363 1.37837838,54.786962 L1.37837838,66.2636709 C1.37837838,67.6876329 2.52610811,68.8417722 3.94216216,68.8417722 L62.22,68.8417722 C63.6360541,68.8417722 64.7837838,67.6876329 64.7837838,66.2636709 L64.7837838,54.786962 L64.7837838,54.786962 Z" id="Stroke-4" stroke="#009245" stroke-width="3" sketch:type="MSShapeGroup"></path>
                <path d="M11.0444865,60.7480127 C11.0444865,62.1488734 9.91513514,63.2845316 8.52113514,63.2845316 C7.12805405,63.2845316 5.9987027,62.1488734 5.9987027,60.7480127 C5.9987027,59.3462278 7.12805405,58.2105696 8.52113514,58.2105696 C9.91513514,58.2105696 11.0444865,59.3462278 11.0444865,60.7480127 L11.0444865,60.7480127 Z M19.2256216,60.7480127 C19.2256216,62.1488734 18.0962703,63.2845316 16.7022703,63.2845316 C15.3091892,63.2845316 14.1798378,62.1488734 14.1798378,60.7480127 C14.1798378,59.3462278 15.3091892,58.2105696 16.7022703,58.2105696 C18.0962703,58.2105696 19.2256216,59.3462278 19.2256216,60.7480127 L19.2256216,60.7480127 Z" id="Stroke-5" stroke="#009245" stroke-width="2.5" sketch:type="MSShapeGroup"></path>
                <path d="M57.1347027,56.884557 C57.1347027,57.4417595 57.5840541,57.8936203 58.1390811,57.8936203 C58.6931892,57.8936203 59.1425405,57.4417595 59.1425405,56.884557 C59.1425405,56.3264304 58.6931892,55.8745696 58.1390811,55.8745696 C57.5840541,55.8745696 57.1347027,56.3264304 57.1347027,56.884557" id="Fill-6" fill="#009245" sketch:type="MSShapeGroup"></path>
                <path d="M53.0445946,56.884557 C53.0445946,57.4417595 53.4939459,57.8936203 54.0480541,57.8936203 C54.6030811,57.8936203 55.0524324,57.4417595 55.0524324,56.884557 C55.0524324,56.3264304 54.6030811,55.8745696 54.0480541,55.8745696 C53.4939459,55.8745696 53.0445946,56.3264304 53.0445946,56.884557" id="Fill-7" fill="#009245" sketch:type="MSShapeGroup"></path>
                <path d="M48.9535676,56.884557 C48.9535676,57.4417595 49.4029189,57.8936203 49.9579459,57.8936203 C50.5120541,57.8936203 50.9614054,57.4417595 50.9614054,56.884557 C50.9614054,56.3264304 50.5120541,55.8745696 49.9579459,55.8745696 C49.4029189,55.8745696 48.9535676,56.3264304 48.9535676,56.884557" id="Fill-8" fill="#009245" sketch:type="MSShapeGroup"></path>
                <path d="M44.8634595,56.884557 C44.8634595,57.4417595 45.3128108,57.8936203 45.8669189,57.8936203 C46.4219459,57.8936203 46.8712973,57.4417595 46.8712973,56.884557 C46.8712973,56.3264304 46.4219459,55.8745696 45.8669189,55.8745696 C45.3128108,55.8745696 44.8634595,56.3264304 44.8634595,56.884557" id="Fill-9" fill="#009245" sketch:type="MSShapeGroup"></path>
                <path d="M40.7724324,56.884557 C40.7724324,57.4417595 41.2217838,57.8936203 41.7768108,57.8936203 C42.3309189,57.8936203 42.7802703,57.4417595 42.7802703,56.884557 C42.7802703,56.3264304 42.3309189,55.8745696 41.7768108,55.8745696 C41.2217838,55.8745696 40.7724324,56.3264304 40.7724324,56.884557" id="Fill-10" fill="#009245" sketch:type="MSShapeGroup"></path>
                <path d="M36.6823243,56.884557 C36.6823243,57.4417595 37.1316757,57.8936203 37.6857838,57.8936203 C38.2408108,57.8936203 38.6901622,57.4417595 38.6901622,56.884557 C38.6901622,56.3264304 38.2408108,55.8745696 37.6857838,55.8745696 C37.1316757,55.8745696 36.6823243,56.3264304 36.6823243,56.884557" id="Fill-11" fill="#009245" sketch:type="MSShapeGroup"></path>
                <path d="M32.5912973,56.884557 C32.5912973,57.4417595 33.0415676,57.8936203 33.5956757,57.8936203 C34.1497838,57.8936203 34.6000541,57.4417595 34.6000541,56.884557 C34.6000541,56.3264304 34.1497838,55.8745696 33.5956757,55.8745696 C33.0415676,55.8745696 32.5912973,56.3264304 32.5912973,56.884557" id="Fill-12" fill="#009245" sketch:type="MSShapeGroup"></path>
                <path d="M28.5011892,56.884557 C28.5011892,57.4417595 28.9505405,57.8936203 29.5055676,57.8936203 C30.0596757,57.8936203 30.509027,57.4417595 30.509027,56.884557 C30.509027,56.3264304 30.0596757,55.8745696 29.5055676,55.8745696 C28.9505405,55.8745696 28.5011892,56.3264304 28.5011892,56.884557" id="Fill-13" fill="#009245" sketch:type="MSShapeGroup"></path>
                <path d="M24.4110811,56.884557 C24.4110811,57.4417595 24.8604324,57.8936203 25.4145405,57.8936203 C25.9695676,57.8936203 26.4189189,57.4417595 26.4189189,56.884557 C26.4189189,56.3264304 25.9695676,55.8745696 25.4145405,55.8745696 C24.8604324,55.8745696 24.4110811,56.3264304 24.4110811,56.884557" id="Fill-14" fill="#009245" sketch:type="MSShapeGroup"></path>
                <path d="M57.1347027,60.9975063 C57.1347027,61.5547089 57.5840541,62.0074937 58.1390811,62.0074937 C58.6931892,62.0074937 59.1425405,61.5547089 59.1425405,60.9975063 C59.1425405,60.4403038 58.6931892,59.987519 58.1390811,59.987519 C57.5840541,59.987519 57.1347027,60.4403038 57.1347027,60.9975063" id="Fill-15" fill="#009245" sketch:type="MSShapeGroup"></path>
                <path d="M53.0445946,60.9975063 C53.0445946,61.5547089 53.4939459,62.0074937 54.0480541,62.0074937 C54.6030811,62.0074937 55.0524324,61.5547089 55.0524324,60.9975063 C55.0524324,60.4403038 54.6030811,59.987519 54.0480541,59.987519 C53.4939459,59.987519 53.0445946,60.4403038 53.0445946,60.9975063" id="Fill-16" fill="#009245" sketch:type="MSShapeGroup"></path>
                <path d="M48.9535676,60.9975063 C48.9535676,61.5547089 49.4029189,62.0074937 49.9579459,62.0074937 C50.5120541,62.0074937 50.9614054,61.5547089 50.9614054,60.9975063 C50.9614054,60.4403038 50.5120541,59.987519 49.9579459,59.987519 C49.4029189,59.987519 48.9535676,60.4403038 48.9535676,60.9975063" id="Fill-17" fill="#009245" sketch:type="MSShapeGroup"></path>
                <path d="M44.8634595,60.9975063 C44.8634595,61.5547089 45.3128108,62.0074937 45.8669189,62.0074937 C46.4219459,62.0074937 46.8712973,61.5547089 46.8712973,60.9975063 C46.8712973,60.4403038 46.4219459,59.987519 45.8669189,59.987519 C45.3128108,59.987519 44.8634595,60.4403038 44.8634595,60.9975063" id="Fill-18" fill="#009245" sketch:type="MSShapeGroup"></path>
                <path d="M40.7724324,60.9975063 C40.7724324,61.5547089 41.2217838,62.0074937 41.7768108,62.0074937 C42.3309189,62.0074937 42.7802703,61.5547089 42.7802703,60.9975063 C42.7802703,60.4403038 42.3309189,59.987519 41.7768108,59.987519 C41.2217838,59.987519 40.7724324,60.4403038 40.7724324,60.9975063" id="Fill-19" fill="#009245" sketch:type="MSShapeGroup"></path>
                <path d="M36.6823243,60.9975063 C36.6823243,61.5547089 37.1316757,62.0074937 37.6857838,62.0074937 C38.2408108,62.0074937 38.6901622,61.5547089 38.6901622,60.9975063 C38.6901622,60.4403038 38.2408108,59.987519 37.6857838,59.987519 C37.1316757,59.987519 36.6823243,60.4403038 36.6823243,60.9975063" id="Fill-20" fill="#009245" sketch:type="MSShapeGroup"></path>
                <path d="M32.5912973,60.9975063 C32.5912973,61.5547089 33.0415676,62.0074937 33.5956757,62.0074937 C34.1497838,62.0074937 34.6000541,61.5547089 34.6000541,60.9975063 C34.6000541,60.4403038 34.1497838,59.987519 33.5956757,59.987519 C33.0415676,59.987519 32.5912973,60.4403038 32.5912973,60.9975063" id="Fill-21" fill="#009245" sketch:type="MSShapeGroup"></path>
                <path d="M28.5011892,60.9975063 C28.5011892,61.5547089 28.9505405,62.0074937 29.5055676,62.0074937 C30.0596757,62.0074937 30.509027,61.5547089 30.509027,60.9975063 C30.509027,60.4403038 30.0596757,59.987519 29.5055676,59.987519 C28.9505405,59.987519 28.5011892,60.4403038 28.5011892,60.9975063" id="Fill-22" fill="#009245" sketch:type="MSShapeGroup"></path>
                <path d="M24.4110811,60.9975063 C24.4110811,61.5547089 24.8604324,62.0074937 25.4145405,62.0074937 C25.9695676,62.0074937 26.4189189,61.5547089 26.4189189,60.9975063 C26.4189189,60.4403038 25.9695676,59.987519 25.4145405,59.987519 C24.8604324,59.987519 24.4110811,60.4403038 24.4110811,60.9975063" id="Fill-23" fill="#009245" sketch:type="MSShapeGroup"></path>
                <path d="M57.1347027,65.1113797 C57.1347027,65.6685823 57.5840541,66.120443 58.1390811,66.120443 C58.6931892,66.120443 59.1425405,65.6685823 59.1425405,65.1113797 C59.1425405,64.5532532 58.6931892,64.1013924 58.1390811,64.1013924 C57.5840541,64.1013924 57.1347027,64.5532532 57.1347027,65.1113797" id="Fill-24" fill="#009245" sketch:type="MSShapeGroup"></path>
                <path d="M53.0445946,65.1113797 C53.0445946,65.6685823 53.4939459,66.120443 54.0480541,66.120443 C54.6030811,66.120443 55.0524324,65.6685823 55.0524324,65.1113797 C55.0524324,64.5532532 54.6030811,64.1013924 54.0480541,64.1013924 C53.4939459,64.1013924 53.0445946,64.5532532 53.0445946,65.1113797" id="Fill-25" fill="#009245" sketch:type="MSShapeGroup"></path>
                <path d="M48.9535676,65.1113797 C48.9535676,65.6685823 49.4029189,66.120443 49.9579459,66.120443 C50.5120541,66.120443 50.9614054,65.6685823 50.9614054,65.1113797 C50.9614054,64.5532532 50.5120541,64.1013924 49.9579459,64.1013924 C49.4029189,64.1013924 48.9535676,64.5532532 48.9535676,65.1113797" id="Fill-26" fill="#009245" sketch:type="MSShapeGroup"></path>
                <path d="M44.8634595,65.1113797 C44.8634595,65.6685823 45.3128108,66.120443 45.8669189,66.120443 C46.4219459,66.120443 46.8712973,65.6685823 46.8712973,65.1113797 C46.8712973,64.5532532 46.4219459,64.1013924 45.8669189,64.1013924 C45.3128108,64.1013924 44.8634595,64.5532532 44.8634595,65.1113797" id="Fill-27" fill="#009245" sketch:type="MSShapeGroup"></path>
                <path d="M40.7724324,65.1113797 C40.7724324,65.6685823 41.2217838,66.120443 41.7768108,66.120443 C42.3309189,66.120443 42.7802703,65.6685823 42.7802703,65.1113797 C42.7802703,64.5532532 42.3309189,64.1013924 41.7768108,64.1013924 C41.2217838,64.1013924 40.7724324,64.5532532 40.7724324,65.1113797" id="Fill-28" fill="#009245" sketch:type="MSShapeGroup"></path>
                <path d="M36.6823243,65.1113797 C36.6823243,65.6685823 37.1316757,66.120443 37.6857838,66.120443 C38.2408108,66.120443 38.6901622,65.6685823 38.6901622,65.1113797 C38.6901622,64.5532532 38.2408108,64.1013924 37.6857838,64.1013924 C37.1316757,64.1013924 36.6823243,64.5532532 36.6823243,65.1113797" id="Fill-29" fill="#009245" sketch:type="MSShapeGroup"></path>
                <path d="M32.5912973,65.1113797 C32.5912973,65.6685823 33.0415676,66.120443 33.5956757,66.120443 C34.1497838,66.120443 34.6000541,65.6685823 34.6000541,65.1113797 C34.6000541,64.5532532 34.1497838,64.1013924 33.5956757,64.1013924 C33.0415676,64.1013924 32.5912973,64.5532532 32.5912973,65.1113797" id="Fill-30" fill="#009245" sketch:type="MSShapeGroup"></path>
                <path d="M28.5011892,65.1113797 C28.5011892,65.6685823 28.9505405,66.120443 29.5055676,66.120443 C30.0596757,66.120443 30.509027,65.6685823 30.509027,65.1113797 C30.509027,64.5532532 30.0596757,64.1013924 29.5055676,64.1013924 C28.9505405,64.1013924 28.5011892,64.5532532 28.5011892,65.1113797" id="Fill-31" fill="#009245" sketch:type="MSShapeGroup"></path>
                <path d="M24.4110811,65.1113797 C24.4110811,65.6685823 24.8604324,66.120443 25.4145405,66.120443 C25.9695676,66.120443 26.4189189,65.6685823 26.4189189,65.1113797 C26.4189189,64.5532532 25.9695676,64.1013924 25.4145405,64.1013924 C24.8604324,64.1013924 24.4110811,64.5532532 24.4110811,65.1113797" id="Fill-32" fill="#009245" sketch:type="MSShapeGroup"></path>
                <path d="M63.8648649,25.2173418 C63.8648649,23.7933797 62.7171351,22.6392405 61.3010811,22.6392405 L3.02324324,22.6392405 C1.60718919,22.6392405 0.459459459,23.7933797 0.459459459,25.2173418 L0.459459459,36.6940506 C0.459459459,38.1180127 1.60718919,39.2721519 3.02324324,39.2721519 L61.3010811,39.2721519 C62.7171351,39.2721519 63.8648649,38.1180127 63.8648649,36.6940506 L63.8648649,25.2173418 L63.8648649,25.2173418 Z" id="Stroke-33" stroke="#009245" stroke-width="3" stroke-linecap="round" stroke-linejoin="round" stroke-dasharray="4.857,5.828" sketch:type="MSShapeGroup"></path>
                <path d="M64.3243243,2.57810127 C64.3243243,1.15413924 63.1765946,0 61.7605405,0 L3.4827027,0 C2.06664865,0 0.918918919,1.15413924 0.918918919,2.57810127 L0.918918919,14.0548101 C0.918918919,15.4787722 2.06664865,16.6329114 3.4827027,16.6329114 L61.7605405,16.6329114 C63.1765946,16.6329114 64.3243243,15.4787722 64.3243243,14.0548101 L64.3243243,2.57810127" id="Fill-34" fill="#FFFFFF" sketch:type="MSShapeGroup"></path>
                <path d="M63.8648649,3.04012658 C63.8648649,1.61616456 62.7171351,0.462025316 61.3010811,0.462025316 L3.02324324,0.462025316 C1.60718919,0.462025316 0.459459459,1.61616456 0.459459459,3.04012658 L0.459459459,14.5168354 C0.459459459,15.9407975 1.60718919,17.0949367 3.02324324,17.0949367 L61.3010811,17.0949367 C62.7171351,17.0949367 63.8648649,15.9407975 63.8648649,14.5168354 L63.8648649,3.04012658 L63.8648649,3.04012658 Z" id="Stroke-35" stroke="#009245" stroke-width="3" stroke-linecap="round" stroke-linejoin="round" stroke-dasharray="4.857,5.828" sketch:type="MSShapeGroup"></path>
                <path d="M16.0691351,43.0496709 L12.5184324,46.5582911 L14.7229189,46.5582911 L14.7229189,48.7935696 L17.4153514,48.7935696 L17.4153514,46.5582911 L19.6198378,46.5582911 L16.0691351,43.0496709" id="Fill-36" fill="#009245" sketch:type="MSShapeGroup"></path>
                <path d="M49.3238919,43.0496709 L45.7731892,46.5582911 L47.9776757,46.5582911 L47.9776757,48.7935696 L50.6701081,48.7935696 L50.6701081,46.5582911 L52.8745946,46.5582911 L49.3238919,43.0496709" id="Fill-37" fill="#009245" sketch:type="MSShapeGroup"></path>
            </g>
        </g>
    </g>
</svg>