<?xml version="1.0" encoding="UTF-8" standalone="no"?>
<svg width="70px" height="67px" viewBox="0 0 70 67" version="1.1" xmlns="http://www.w3.org/2000/svg" xmlns:xlink="http://www.w3.org/1999/xlink" xmlns:sketch="http://www.bohemiancoding.com/sketch/ns">
    <!-- Generator: Sketch 3.2.2 (9983) - http://www.bohemiancoding.com/sketch -->
    <title>Imported Layers</title>
    <desc>Created with Sketch.</desc>
    <defs></defs>
    <g id="Page-1" stroke="none" stroke-width="1" fill="none" fill-rule="evenodd" sketch:type="MSPage">
        <g id="CLC_KB_Home_3a" sketch:type="MSArtboardGroup" transform="translate(-675.000000, -602.000000)" stroke="#009245" stroke-width="2.5">
            <g id="Imported-Layers" sketch:type="MSLayerGroup" transform="translate(676.000000, 603.000000)">
                <path d="M67.607,15.385 L67.607,17.886 L65.107,17.886" id="Stroke-1" stroke-linecap="round" stroke-linejoin="round" sketch:type="MSShapeGroup"></path>
                <path d="M58.99,17.886 L5.978,17.886" id="Stroke-2" stroke-linecap="round" stroke-linejoin="round" stroke-dasharray="5.097,6.117" sketch:type="MSShapeGroup"></path>
                <path d="M2.92,17.886 L0.42,17.886 L0.42,15.385" id="Stroke-3" stroke-linecap="round" stroke-linejoin="round" sketch:type="MSShapeGroup"></path>
                <path d="M0.42,10.961 L0.42,5.062" id="Stroke-4" stroke-linecap="round" stroke-linejoin="round" stroke-dasharray="3.687,4.424" sketch:type="MSShapeGroup"></path>
                <path d="M0.42,2.85 L0.42,0.35 L2.92,0.35" id="Stroke-5" stroke-linecap="round" stroke-linejoin="round" sketch:type="MSShapeGroup"></path>
                <path d="M9.037,0.35 L62.049,0.35" id="Stroke-6" stroke-linecap="round" stroke-linejoin="round" stroke-dasharray="5.097,6.117" sketch:type="MSShapeGroup"></path>
                <path d="M65.107,0.35 L67.607,0.35 L67.607,2.85" id="Stroke-7" stroke-linecap="round" stroke-linejoin="round" sketch:type="MSShapeGroup"></path>
                <path d="M67.607,7.274 L67.607,13.173" id="Stroke-8" stroke-linecap="round" stroke-linejoin="round" stroke-dasharray="3.687,4.424" sketch:type="MSShapeGroup"></path>
                <path d="M67.607,38.425 L67.607,40.925 L65.107,40.925" id="Stroke-9" stroke-linecap="round" stroke-linejoin="round" sketch:type="MSShapeGroup"></path>
                <path d="M58.99,40.925 L5.978,40.925" id="Stroke-10" stroke-linecap="round" stroke-linejoin="round" stroke-dasharray="5.097,6.117" sketch:type="MSShapeGroup"></path>
                <path d="M2.92,40.925 L0.42,40.925 L0.42,38.425" id="Stroke-11" stroke-linecap="round" stroke-linejoin="round" sketch:type="MSShapeGroup"></path>
                <path d="M0.42,34 L0.42,28.101" id="Stroke-12" stroke-linecap="round" stroke-linejoin="round" stroke-dasharray="3.687,4.424" sketch:type="MSShapeGroup"></path>
                <path d="M0.42,25.889 L0.42,23.389 L2.92,23.389" id="Stroke-13" stroke-linecap="round" stroke-linejoin="round" sketch:type="MSShapeGroup"></path>
                <path d="M9.037,23.389 L62.049,23.389" id="Stroke-14" stroke-linecap="round" stroke-linejoin="round" stroke-dasharray="5.097,6.117" sketch:type="MSShapeGroup"></path>
                <path d="M65.107,23.389 L67.607,23.389 L67.607,25.889" id="Stroke-15" stroke-linecap="round" stroke-linejoin="round" sketch:type="MSShapeGroup"></path>
                <path d="M67.607,30.313 L67.607,36.213" id="Stroke-16" stroke-linecap="round" stroke-linejoin="round" stroke-dasharray="3.687,4.424" sketch:type="MSShapeGroup"></path>
                <path d="M67.607,61.464 L67.607,63.964 L65.107,63.964" id="Stroke-17" stroke-linecap="round" stroke-linejoin="round" sketch:type="MSShapeGroup"></path>
                <path d="M58.99,63.964 L5.978,63.964" id="Stroke-18" stroke-linecap="round" stroke-linejoin="round" stroke-dasharray="5.097,6.117" sketch:type="MSShapeGroup"></path>
                <path d="M2.92,63.964 L0.42,63.964 L0.42,61.464" id="Stroke-19" stroke-linecap="round" stroke-linejoin="round" sketch:type="MSShapeGroup"></path>
                <path d="M0.42,57.04 L0.42,51.141" id="Stroke-20" stroke-linecap="round" stroke-linejoin="round" stroke-dasharray="3.687,4.424" sketch:type="MSShapeGroup"></path>
                <path d="M0.42,48.928 L0.42,46.428 L2.92,46.428" id="Stroke-21" stroke-linecap="round" stroke-linejoin="round" sketch:type="MSShapeGroup"></path>
                <path d="M9.037,46.428 L62.049,46.428" id="Stroke-22" stroke-linecap="round" stroke-linejoin="round" stroke-dasharray="5.097,6.117" sketch:type="MSShapeGroup"></path>
                <path d="M65.107,46.428 L67.607,46.428 L67.607,48.928" id="Stroke-23" stroke-linecap="round" stroke-linejoin="round" sketch:type="MSShapeGroup"></path>
                <path d="M67.607,53.353 L67.607,59.252" id="Stroke-24" stroke-linecap="round" stroke-linejoin="round" stroke-dasharray="3.687,4.424" sketch:type="MSShapeGroup"></path>
                <path d="M60.192,9.167 C60.192,10.784 58.881,12.095 57.264,12.095 C55.646,12.095 54.335,10.784 54.335,9.167 C54.335,7.55 55.646,6.238 57.264,6.238 C58.881,6.238 60.192,7.55 60.192,9.167 L60.192,9.167 Z M60.192,32.655 C60.192,34.272 58.881,35.583 57.264,35.583 C55.646,35.583 54.335,34.272 54.335,32.655 C54.335,31.037 55.646,29.726 57.264,29.726 C58.881,29.726 60.192,31.037 60.192,32.655 L60.192,32.655 Z M60.192,55.181 C60.192,56.799 58.881,58.11 57.264,58.11 C55.646,58.11 54.335,56.799 54.335,55.181 C54.335,53.564 55.646,52.253 57.264,52.253 C58.881,52.253 60.192,53.564 60.192,55.181 L60.192,55.181 Z" id="Stroke-25" sketch:type="MSShapeGroup"></path>
            </g>
        </g>
    </g>
</svg>