<?xml version="1.0" encoding="utf-8"?>
<!-- Generator: Adobe Illustrator 18.1.0, SVG Export Plug-In . SVG Version: 6.00 Build 0)  -->
<svg version="1.1" id="Layer_1" xmlns="http://www.w3.org/2000/svg" xmlns:xlink="http://www.w3.org/1999/xlink" x="0px" y="0px"
	 viewBox="0 0 22 20.1" enable-background="new 0 0 22 20.1" xml:space="preserve">
<g>
	<g>
		<path fill="#009245" d="M4.9,20.1c-1.3,0-2.5-0.5-3.5-1.4C0.5,17.7,0,16.5,0,15.1c0-1.3,0.5-2.5,1.4-3.4c0,0,0,0,0.1-0.1l0.1-0.1
			c0,0,0,0,0,0L11.1,2c1.2-1.2,2.9-1.9,4.6-2C17.4,0,19,0.6,20.2,1.8C21.4,3,22,4.6,22,6.4c0,1.7-0.7,3.4-2,4.6l-7.5,7.5
			c-0.3,0.3-0.8,0.3-1.1,0s-0.3-0.8,0-1.1L19,9.9c2-2,2.1-5.1,0.2-7C18.2,2,17,1.4,15.7,1.5c-1.3,0-2.6,0.6-3.6,1.5l-9.5,9.5
			c0,0,0,0,0,0c-1.4,1.4-1.5,3.7-0.1,5.1c1.4,1.4,3.6,1.3,5.1-0.1L17,8c0,0,0-0.1,0.1-0.1c0.5-0.5,0.7-1,0.7-1.7
			c0-0.6-0.2-1.2-0.6-1.6c-0.4-0.4-1-0.6-1.6-0.6c-0.6,0-1.2,0.3-1.7,0.7l-6.9,6.9C6.8,12,6.3,12,6,11.7s-0.3-0.8,0-1.1l6.9-6.9
			c0.7-0.7,1.7-1.1,2.7-1.2c1,0,2,0.3,2.7,1c0.7,0.7,1.1,1.7,1,2.7c0,1-0.4,1.9-1.1,2.6c0,0-0.1,0.1-0.1,0.1l-9.6,9.6
			C7.6,19.6,6.2,20.1,4.9,20.1z"/>
	</g>
</g>
</svg>
