<?xml version="1.0" encoding="UTF-8" standalone="no"?>
<svg width="63px" height="79px" viewBox="0 0 63 79" version="1.1" xmlns="http://www.w3.org/2000/svg" xmlns:xlink="http://www.w3.org/1999/xlink" xmlns:sketch="http://www.bohemiancoding.com/sketch/ns">
    <!-- Generator: Sketch 3.2.2 (9983) - http://www.bohemiancoding.com/sketch -->
    <title>Imported Layers</title>
    <desc>Created with Sketch.</desc>
    <defs></defs>
    <g id="Page-1" stroke="none" stroke-width="1" fill="none" fill-rule="evenodd" sketch:type="MSPage">
        <g id="CLC_KB_Home_3a" sketch:type="MSArtboardGroup" transform="translate(-504.000000, -781.000000)">
            <g id="Imported-Layers" sketch:type="MSLayerGroup" transform="translate(506.000000, 783.000000)">
                <path d="M0.0118125,12.053425 L59.0506875,12.053425 L59.0506875,74.866325 L0.0118125,74.866325 L0.0118125,12.053425 Z" id="Fill-1" fill="#FFFFFF" sketch:type="MSShapeGroup"></path>
                <path d="M0.0118125,12.053425 L59.0506875,12.053425 L59.0506875,74.866325 L0.0118125,74.866325 L0.0118125,12.053425 Z" id="Stroke-2" stroke="#009245" stroke-width="3" stroke-linejoin="round" sketch:type="MSShapeGroup"></path>
                <path d="M6.69571875,12.087 L52.3667813,12.087 L52.3667813,67.7899 L6.69571875,67.7899 L6.69571875,12.087 Z" id="Fill-3" fill="#FFFFFF" sketch:type="MSShapeGroup"></path>
                <path d="M6.69571875,12.087 L52.3667813,12.087 L52.3667813,67.7899 L6.69571875,67.7899 L6.69571875,12.087 Z" id="Stroke-4" stroke="#009245" stroke-width="3" stroke-linejoin="round" sketch:type="MSShapeGroup"></path>
                <path d="M36.059625,8.063925 C36.1049062,7.7499 36.1373906,7.431925 36.1373906,7.1050625 C36.1373906,3.2814625 33.0484219,0.1826875 29.2369219,0.1826875 C25.4264062,0.1826875 22.3374375,3.2814625 22.3374375,7.1050625 C22.3374375,7.431925 22.3689375,7.7499 22.4142187,8.063925 L4.54485937,8.063925 L4.54485937,14.5448875 L53.9299688,14.5448875 L53.9299688,8.063925 L36.059625,8.063925 L36.059625,8.063925 Z" id="Fill-5" fill="#FFFFFF" sketch:type="MSShapeGroup"></path>
                <path d="M36.059625,8.063925 C36.1049062,7.7499 36.1373906,7.431925 36.1373906,7.1050625 C36.1373906,3.2814625 33.0484219,0.1826875 29.2369219,0.1826875 C25.4264062,0.1826875 22.3374375,3.2814625 22.3374375,7.1050625 C22.3374375,7.431925 22.3689375,7.7499 22.4142187,8.063925 L4.54485937,8.063925 L4.54485937,14.5448875 L53.9299688,14.5448875 L53.9299688,8.063925 L36.059625,8.063925 L36.059625,8.063925 Z" id="Stroke-6" stroke="#009245" stroke-width="3" stroke-linejoin="round" sketch:type="MSShapeGroup"></path>
                <path d="M31.1249531,7.1050625 C31.1249531,8.150825 30.279375,8.9981 29.2369219,8.9981 C28.1954531,8.9981 27.349875,8.150825 27.349875,7.1050625 C27.349875,6.0593 28.1954531,5.2110375 29.2369219,5.2110375 C30.279375,5.2110375 31.1249531,6.0593 31.1249531,7.1050625" id="Fill-7" fill="#009245" sketch:type="MSShapeGroup"></path>
                <path d="M44.7703594,42.97995 L44.7703594,39.3963125 C44.7703594,38.9637875 44.4209063,38.6122375 43.98975,38.6122375 L41.5760625,38.6122375 C41.2285781,38.6122375 40.9175156,38.3831375 40.8269531,38.0473875 C40.5552656,37.0352 40.1556094,36.077325 39.6457031,35.19055 C39.4724531,34.8873875 39.5295469,34.5042375 39.7756406,34.2573625 L41.4835312,32.54405 C41.7886875,32.237925 41.7886875,31.7422 41.4835312,31.436075 L38.957625,28.90215 C38.6534531,28.596025 38.1583125,28.596025 37.8531562,28.90215 L36.1452656,30.6154625 C35.8991719,30.8623375 35.5172344,30.9206 35.2160156,30.7458125 C34.3310625,30.235275 33.3762187,29.83435 32.3682187,29.5618 C32.0325469,29.47095 31.8041719,29.1579125 31.8041719,28.8103125 L31.8041719,26.3889625 C31.8041719,25.9564375 31.4547188,25.6048875 31.0235625,25.6048875 L27.4512656,25.6048875 C27.0201094,25.6048875 26.6706563,25.9564375 26.6706563,26.3889625 L26.6706563,28.8103125 C26.6706563,29.1579125 26.4422813,29.47095 26.1066094,29.5618 C25.0986094,29.83435 24.1437656,30.235275 23.2588125,30.7458125 C22.9575937,30.9206 22.5756563,30.8623375 22.3295625,30.6154625 L20.6216719,28.90215 C20.3165156,28.596025 19.821375,28.596025 19.5162188,28.90215 L16.9903125,31.436075 C16.6861406,31.7422 16.6861406,32.237925 16.9903125,32.54405 L18.6982031,34.2573625 C18.9452813,34.5042375 19.002375,34.8873875 18.829125,35.19055 C18.3192187,36.077325 17.9195625,37.0352 17.647875,38.0473875 C17.5573125,38.3831375 17.24625,38.6122375 16.8987656,38.6122375 L14.4850781,38.6122375 C14.0539219,38.6122375 13.7044688,38.9637875 13.7044688,39.3963125 L13.7044688,42.97995 C13.7044688,43.412475 14.0539219,43.7630375 14.4850781,43.7630375 L16.8987656,43.7630375 C17.24625,43.7630375 17.5573125,43.9921375 17.647875,44.328875 C17.9195625,45.340075 18.3192187,46.29795 18.829125,47.1857125 C19.002375,47.4878875 18.9452813,47.8710375 18.6982031,48.1179125 L16.9903125,49.831225 C16.6861406,50.13735 16.6861406,50.633075 16.9903125,50.9392 L19.5162188,53.473125 C19.821375,53.77925 20.3165156,53.77925 20.6216719,53.473125 L22.3295625,51.7598125 C22.5756563,51.5129375 22.9575937,51.454675 23.2588125,51.6294625 C24.1437656,52.14 25.0986094,52.540925 26.1066094,52.813475 C26.4422813,52.904325 26.6706563,53.2173625 26.6706563,53.56595 L26.6706563,55.9873 C26.6706563,56.419825 27.0201094,56.7703875 27.4512656,56.7703875 L31.0235625,56.7703875 C31.4547188,56.7703875 31.8041719,56.419825 31.8041719,55.9873 L31.8041719,53.56595 C31.8041719,53.2173625 32.0325469,52.904325 32.3682187,52.813475 C33.3762187,52.540925 34.3310625,52.14 35.2160156,51.6294625 C35.5172344,51.454675 35.8991719,51.5129375 36.1452656,51.7598125 L37.8531562,53.473125 C38.1583125,53.77925 38.6534531,53.77925 38.957625,53.473125 L41.4835312,50.9392 C41.7886875,50.633075 41.7886875,50.13735 41.4835312,49.831225 L39.7756406,48.1179125 C39.5295469,47.8710375 39.4724531,47.4878875 39.6457031,47.1857125 C40.1556094,46.29795 40.5552656,45.340075 40.8269531,44.328875 C40.9175156,43.9921375 41.2285781,43.7630375 41.5760625,43.7630375 L43.98975,43.7630375 C44.4209063,43.7630375 44.7703594,43.412475 44.7703594,42.97995 L44.7703594,42.97995 Z" id="Fill-8" fill="#009245" sketch:type="MSShapeGroup"></path>
                <path d="M44.7703594,42.97995 L44.7703594,39.3963125 C44.7703594,38.9637875 44.4209063,38.6122375 43.98975,38.6122375 L41.5760625,38.6122375 C41.2285781,38.6122375 40.9175156,38.3831375 40.8269531,38.0473875 C40.5552656,37.0352 40.1556094,36.077325 39.6457031,35.19055 C39.4724531,34.8873875 39.5295469,34.5042375 39.7756406,34.2573625 L41.4835312,32.54405 C41.7886875,32.237925 41.7886875,31.7422 41.4835312,31.436075 L38.957625,28.90215 C38.6534531,28.596025 38.1583125,28.596025 37.8531562,28.90215 L36.1452656,30.6154625 C35.8991719,30.8623375 35.5172344,30.9206 35.2160156,30.7458125 C34.3310625,30.235275 33.3762187,29.83435 32.3682187,29.5618 C32.0325469,29.47095 31.8041719,29.1579125 31.8041719,28.8103125 L31.8041719,26.3889625 C31.8041719,25.9564375 31.4547188,25.6048875 31.0235625,25.6048875 L27.4512656,25.6048875 C27.0201094,25.6048875 26.6706563,25.9564375 26.6706563,26.3889625 L26.6706563,28.8103125 C26.6706563,29.1579125 26.4422813,29.47095 26.1066094,29.5618 C25.0986094,29.83435 24.1437656,30.235275 23.2588125,30.7458125 C22.9575937,30.9206 22.5756563,30.8623375 22.3295625,30.6154625 L20.6216719,28.90215 C20.3165156,28.596025 19.821375,28.596025 19.5162188,28.90215 L16.9903125,31.436075 C16.6861406,31.7422 16.6861406,32.237925 16.9903125,32.54405 L18.6982031,34.2573625 C18.9452813,34.5042375 19.002375,34.8873875 18.829125,35.19055 C18.3192187,36.077325 17.9195625,37.0352 17.647875,38.0473875 C17.5573125,38.3831375 17.24625,38.6122375 16.8987656,38.6122375 L14.4850781,38.6122375 C14.0539219,38.6122375 13.7044688,38.9637875 13.7044688,39.3963125 L13.7044688,42.97995 C13.7044688,43.412475 14.0539219,43.7630375 14.4850781,43.7630375 L16.8987656,43.7630375 C17.24625,43.7630375 17.5573125,43.9921375 17.647875,44.328875 C17.9195625,45.340075 18.3192187,46.29795 18.829125,47.1857125 C19.002375,47.4878875 18.9452813,47.8710375 18.6982031,48.1179125 L16.9903125,49.831225 C16.6861406,50.13735 16.6861406,50.633075 16.9903125,50.9392 L19.5162188,53.473125 C19.821375,53.77925 20.3165156,53.77925 20.6216719,53.473125 L22.3295625,51.7598125 C22.5756563,51.5129375 22.9575937,51.454675 23.2588125,51.6294625 C24.1437656,52.14 25.0986094,52.540925 26.1066094,52.813475 C26.4422813,52.904325 26.6706563,53.2173625 26.6706563,53.56595 L26.6706563,55.9873 C26.6706563,56.419825 27.0201094,56.7703875 27.4512656,56.7703875 L31.0235625,56.7703875 C31.4547188,56.7703875 31.8041719,56.419825 31.8041719,55.9873 L31.8041719,53.56595 C31.8041719,53.2173625 32.0325469,52.904325 32.3682187,52.813475 C33.3762187,52.540925 34.3310625,52.14 35.2160156,51.6294625 C35.5172344,51.454675 35.8991719,51.5129375 36.1452656,51.7598125 L37.8531562,53.473125 C38.1583125,53.77925 38.6534531,53.77925 38.957625,53.473125 L41.4835312,50.9392 C41.7886875,50.633075 41.7886875,50.13735 41.4835312,49.831225 L39.7756406,48.1179125 C39.5295469,47.8710375 39.4724531,47.4878875 39.6457031,47.1857125 C40.1556094,46.29795 40.5552656,45.340075 40.8269531,44.328875 C40.9175156,43.9921375 41.2285781,43.7630375 41.5760625,43.7630375 L43.98975,43.7630375 C44.4209063,43.7630375 44.7703594,43.412475 44.7703594,42.97995 L44.7703594,42.97995 Z" id="Stroke-9" stroke="#009245" stroke-width="3" stroke-linejoin="round" sketch:type="MSShapeGroup"></path>
                <path d="M34.0308281,40.5576125 C34.4295,43.7294625 31.7707031,46.3967 28.6088906,45.9967625 C26.4550781,45.7242125 24.7147031,43.9793 24.444,41.81865 C24.0453281,38.6458125 26.704125,35.9795625 29.8659375,36.3785125 C32.01975,36.6510625 33.760125,38.395975 34.0308281,40.5576125" id="Fill-10" fill="#FFFFFF" sketch:type="MSShapeGroup"></path>
            </g>
        </g>
    </g>
</svg>