<?xml version="1.0" encoding="utf-8"?>
<!-- Generator: Adobe Illustrator 18.1.0, SVG Export Plug-In . SVG Version: 6.00 Build 0)  -->
<svg version="1.1" id="Layer_1" xmlns="http://www.w3.org/2000/svg" xmlns:xlink="http://www.w3.org/1999/xlink" x="0px" y="0px"
	 viewBox="0 0 78.7 45.9" enable-background="new 0 0 78.7 45.9" xml:space="preserve">
<g>
	<g>
		<g>
			<g>
				<g>
					<path fill="#009245" d="M68.8,20.6c-0.1,0-0.3,0-0.4-0.1c-0.7-0.2-1.5-0.4-2.2-0.5c-0.5-0.1-0.9-0.4-1-0.8
						c-0.3-0.7-0.6-1.4-0.9-2.1c-0.3-0.6-0.1-1.4,0.5-1.7c0.6-0.3,1.4-0.1,1.7,0.5c0.3,0.6,0.6,1.2,0.8,1.8c0.6,0.1,1.3,0.3,1.9,0.5
						c0.7,0.2,1,0.9,0.8,1.6C69.8,20.2,69.3,20.6,68.8,20.6z"/>
				</g>
				<g>
					<path fill="#009245" d="M61.3,13c-0.3,0-0.6-0.1-0.8-0.3c-1.1-0.9-2.2-1.6-3.5-2.1c-0.6-0.3-0.9-1-0.7-1.6
						c0.3-0.6,1-0.9,1.6-0.7c1.5,0.6,2.9,1.5,4.1,2.5c0.5,0.4,0.6,1.2,0.2,1.8C62.1,12.8,61.7,13,61.3,13z"/>
				</g>
				<g>
					<path fill="#009245" d="M49,9.7c-0.4,0-0.7-0.2-0.9-0.4c-0.5-0.6-1.1-1.2-1.6-1.7c-0.5-0.5-0.5-1.3-0.1-1.8
						c0.5-0.5,1.3-0.5,1.8-0.1c0.5,0.4,0.9,0.9,1.4,1.4C50.1,7,50.8,7,51.4,7c0.7,0,1.3,0.6,1.3,1.3s-0.5,1.2-1.2,1.2h-0.1
						c-0.7,0-1.5,0.1-2.2,0.2C49.1,9.7,49,9.7,49,9.7z"/>
				</g>
				<g>
					<path fill="#009245" d="M18.4,8.7c-0.3,0-0.6-0.1-0.9-0.4c-0.5-0.5-0.5-1.3,0-1.8c0.6-0.6,1.2-1.2,1.9-1.7
						C20,4.4,20.5,4,21.1,3.6c0.6-0.4,1.4-0.2,1.7,0.4c0.4,0.6,0.2,1.4-0.4,1.7C22,6,21.5,6.4,21,6.8c-0.6,0.5-1.2,1-1.7,1.5
						C19,8.6,18.7,8.7,18.4,8.7z M42.1,4.4c-0.2,0-0.4,0-0.5-0.1c-1.3-0.6-2.6-1-3.9-1.4c-0.7-0.2-1.1-0.8-0.9-1.5
						c0.2-0.7,0.8-1.1,1.5-0.9c1.5,0.4,3,0.9,4.4,1.5c0.6,0.3,0.9,1,0.6,1.7C43,4.2,42.6,4.4,42.1,4.4z M27.4,3.3
						c-0.5,0-1-0.4-1.2-0.9C26,1.7,26.4,1,27.1,0.8c1.5-0.4,3.1-0.7,4.6-0.8C32.4,0,33,0.5,33,1.2s-0.5,1.3-1.2,1.3
						c-1.4,0.1-2.8,0.3-4.1,0.7C27.6,3.3,27.5,3.3,27.4,3.3z"/>
				</g>
				<g>
					<path fill="#009245" d="M11.3,16.6c-0.5,0-1-0.3-1.2-0.8c-0.2-0.7,0.1-1.4,0.8-1.6c0.6-0.2,1.3-0.4,1.9-0.5
						c0.2-0.6,0.5-1.2,0.8-1.8c0.3-0.6,1.1-0.9,1.7-0.5c0.6,0.3,0.9,1.1,0.5,1.7c-0.4,0.7-0.7,1.4-0.9,2.1c-0.2,0.4-0.5,0.7-1,0.8
						c-0.8,0.1-1.5,0.3-2.2,0.6C11.6,16.6,11.5,16.6,11.3,16.6z"/>
				</g>
				<g>
					<path fill="#009245" d="M58.3,45.9h-5c-0.7,0-1.2-0.6-1.2-1.2s0.6-1.2,1.2-1.2h5c0.7,0,1.2,0.6,1.2,1.2S59,45.9,58.3,45.9z
						 M46.3,45.9h-5c-0.7,0-1.2-0.6-1.2-1.2s0.6-1.2,1.2-1.2h5c0.7,0,1.2,0.6,1.2,1.2S47,45.9,46.3,45.9z M34.2,45.9h-5
						c-0.7,0-1.2-0.6-1.2-1.2s0.6-1.2,1.2-1.2h5c0.7,0,1.2,0.6,1.2,1.2S34.9,45.9,34.2,45.9z M22.2,45.9h-5c-0.7,0-1.2-0.6-1.2-1.2
						s0.6-1.2,1.2-1.2h5c0.7,0,1.2,0.6,1.2,1.2S22.9,45.9,22.2,45.9z M65.3,45.9c-0.7,0-1.2-0.5-1.2-1.2c0-0.7,0.5-1.3,1.2-1.3
						c1.5-0.1,3-0.4,4.4-1.1c0.6-0.3,1.4,0,1.7,0.6s0,1.4-0.6,1.7C69,45.4,67.2,45.8,65.3,45.9C65.4,45.9,65.3,45.9,65.3,45.9z
						 M10.3,44.7c-0.2,0-0.3,0-0.5-0.1c-1.7-0.7-3.2-1.7-4.5-2.9c-0.5-0.5-0.5-1.3-0.1-1.8c0.5-0.5,1.3-0.5,1.8-0.1
						c1.1,1,2.4,1.9,3.8,2.5c0.6,0.3,0.9,1,0.7,1.6C11.3,44.4,10.8,44.7,10.3,44.7z M75.5,40.3c-0.2,0-0.5-0.1-0.7-0.2
						c-0.6-0.4-0.7-1.2-0.3-1.7c0.9-1.3,1.5-2.6,1.8-4.1c0.1-0.7,0.8-1.1,1.5-1c0.7,0.1,1.1,0.8,1,1.5c-0.4,1.8-1.1,3.5-2.2,5
						C76.3,40.1,75.9,40.3,75.5,40.3z M2.2,36.2c-0.5,0-1-0.3-1.2-0.8c-0.6-1.7-1-3.5-1-5.3c0-0.7,0.5-1.3,1.2-1.3c0,0,0,0,0,0
						c0.7,0,1.2,0.5,1.2,1.2c0,1.5,0.3,3.1,0.9,4.5c0.2,0.6-0.1,1.4-0.7,1.6C2.5,36.2,2.4,36.2,2.2,36.2z M77.1,28.8
						c-0.5,0-1-0.3-1.2-0.8c-0.5-1.4-1.2-2.8-2.2-3.9c-0.5-0.5-0.4-1.3,0.1-1.8c0.5-0.5,1.3-0.4,1.8,0.1c1.2,1.4,2.1,3,2.7,4.7
						c0.2,0.7-0.1,1.4-0.8,1.6C77.3,28.7,77.2,28.8,77.1,28.8z M2.6,24.5c-0.2,0-0.4,0-0.5-0.1c-0.6-0.3-0.9-1-0.6-1.7
						c0.8-1.6,1.8-3.1,3.1-4.5c0.5-0.5,1.3-0.5,1.8,0c0.5,0.5,0.5,1.3,0,1.8c-1.1,1.1-1.9,2.4-2.6,3.8C3.6,24.2,3.1,24.5,2.6,24.5z"
						/>
				</g>
			</g>
		</g>
	</g>
	<g>
		<path fill="none" d="M38.4,16.4h-1.4c-1.6,0-2.9,1.3-2.9,2.9v0.6h7.1v-0.6C41.3,17.7,40,16.4,38.4,16.4z"/>
		<path fill="#009245" d="M43.9,20v-0.8c0-3-2.5-5.5-5.5-5.5h-1.4c-3,0-5.5,2.5-5.5,5.5V20c-1.7,0.4-3,2-3,3.8v9.8
			c0,2.2,1.8,3.9,3.9,3.9H43c2.2,0,3.9-1.8,3.9-3.9v-9.8C47,22,45.7,20.4,43.9,20z M36.1,31.5l0.8-2.7c-0.4-0.3-0.7-0.7-0.7-1.3
			c0-0.8,0.7-1.5,1.5-1.5c0.8,0,1.5,0.7,1.5,1.5c0,0.5-0.3,1-0.7,1.3l0.8,2.7H36.1z M34.2,19.9v-0.6c0-1.6,1.3-2.9,2.9-2.9h1.4
			c1.6,0,2.9,1.3,2.9,2.9v0.6H34.2z"/>
	</g>
</g>
</svg>
