<?xml version="1.0" encoding="utf-8"?>
<!-- Generator: Adobe Illustrator 18.1.0, SVG Export Plug-In . SVG Version: 6.00 Build 0)  -->
<svg version="1.1" id="Layer_1" xmlns="http://www.w3.org/2000/svg" xmlns:xlink="http://www.w3.org/1999/xlink" x="0px" y="0px"
	 viewBox="0 0 134.5 71" enable-background="new 0 0 134.5 71" xml:space="preserve">
<path fill="#009245" d="M25.8,44.3H3H0v10.9c0,2.2,1.8,4,4,4h24.8V44.3H25.8z"/>
<polygon fill="#009245" points="25.8,29 3,29 0,29 0,41.8 3,41.8 25.8,41.8 28.8,41.8 28.8,29 "/>
<path fill="#009245" d="M4,11.8c-2.2,0-4,1.8-4,4v10.8h3h22.8h3V11.8H4z"/>
<path fill="#009245" d="M131.5,44.3h-22.8h-3v14.9h24.8c2.2,0,4-1.8,4-4V44.3H131.5z"/>
<polygon fill="#009245" points="131.5,29 108.7,29 105.7,29 105.7,41.8 108.7,41.8 131.5,41.8 134.5,41.8 134.5,29 "/>
<path fill="#009245" d="M130.5,11.8l-24.8,0v14.7h3h22.8h3V15.8C134.5,13.6,132.7,11.8,130.5,11.8z"/>
<circle fill="#009245" cx="51.6" cy="10.7" r="1.3"/>
<circle fill="#009245" cx="42.5" cy="10.7" r="1.3"/>
<circle fill="#009245" cx="42.5" cy="34.7" r="1.3"/>
<circle fill="#009245" cx="51.6" cy="34.7" r="1.3"/>
<circle fill="#009245" cx="42.5" cy="58.7" r="1.3"/>
<circle fill="#009245" cx="51.6" cy="58.7" r="1.3"/>
<path fill="#009245" d="M103,22.4V5.3c0-2.9-2.4-5.3-5.3-5.3H37.1c-2.9,0-5.3,2.4-5.3,5.3v17.1H103z M42.5,14.5
	c-2.1,0-3.8-1.7-3.8-3.8c0-2.1,1.7-3.8,3.8-3.8s3.8,1.7,3.8,3.8C46.2,12.8,44.5,14.5,42.5,14.5z M51.6,14.5c-2.1,0-3.8-1.7-3.8-3.8
	c0-2.1,1.7-3.8,3.8-3.8s3.8,1.7,3.8,3.8C55.4,12.8,53.7,14.5,51.6,14.5z M60.3,16.1c-0.6,0-1-0.4-1-1s0.4-1,1-1c0.6,0,1,0.4,1,1
	S60.8,16.1,60.3,16.1z M60.3,12c-0.6,0-1-0.4-1-1c0-0.6,0.4-1,1-1c0.6,0,1,0.4,1,1C61.3,11.5,60.8,12,60.3,12z M60.3,7.9
	c-0.6,0-1-0.4-1-1s0.4-1,1-1c0.6,0,1,0.4,1,1S60.8,7.9,60.3,7.9z M64.3,16.1c-0.6,0-1-0.4-1-1s0.4-1,1-1s1,0.4,1,1
	S64.9,16.1,64.3,16.1z M64.3,12c-0.6,0-1-0.4-1-1c0-0.6,0.4-1,1-1s1,0.4,1,1C65.3,11.5,64.9,12,64.3,12z M64.3,7.9c-0.6,0-1-0.4-1-1
	s0.4-1,1-1s1,0.4,1,1S64.9,7.9,64.3,7.9z M68.4,16.1c-0.6,0-1-0.4-1-1s0.4-1,1-1c0.6,0,1,0.4,1,1S69,16.1,68.4,16.1z M68.4,12
	c-0.6,0-1-0.4-1-1c0-0.6,0.4-1,1-1c0.6,0,1,0.4,1,1C69.4,11.5,69,12,68.4,12z M68.4,7.9c-0.6,0-1-0.4-1-1s0.4-1,1-1c0.6,0,1,0.4,1,1
	S69,7.9,68.4,7.9z M72.5,16.1c-0.6,0-1-0.4-1-1s0.4-1,1-1c0.6,0,1,0.4,1,1S73,16.1,72.5,16.1z M72.5,12c-0.6,0-1-0.4-1-1
	c0-0.6,0.4-1,1-1c0.6,0,1,0.4,1,1C73.5,11.5,73,12,72.5,12z M72.5,7.9c-0.6,0-1-0.4-1-1s0.4-1,1-1c0.6,0,1,0.4,1,1S73,7.9,72.5,7.9z
	 M76.6,16.1c-0.6,0-1-0.4-1-1s0.4-1,1-1c0.6,0,1,0.4,1,1S77.1,16.1,76.6,16.1z M76.6,12c-0.6,0-1-0.4-1-1c0-0.6,0.4-1,1-1
	c0.6,0,1,0.4,1,1C77.6,11.5,77.1,12,76.6,12z M76.6,7.9c-0.6,0-1-0.4-1-1s0.4-1,1-1c0.6,0,1,0.4,1,1S77.1,7.9,76.6,7.9z M80.6,16.1
	c-0.6,0-1-0.4-1-1s0.4-1,1-1c0.6,0,1,0.4,1,1S81.2,16.1,80.6,16.1z M80.6,12c-0.6,0-1-0.4-1-1c0-0.6,0.4-1,1-1c0.6,0,1,0.4,1,1
	C81.6,11.5,81.2,12,80.6,12z M80.6,7.9c-0.6,0-1-0.4-1-1s0.4-1,1-1c0.6,0,1,0.4,1,1S81.2,7.9,80.6,7.9z M84.7,16.1c-0.6,0-1-0.4-1-1
	s0.4-1,1-1s1,0.4,1,1S85.2,16.1,84.7,16.1z M84.7,12c-0.6,0-1-0.4-1-1c0-0.6,0.4-1,1-1s1,0.4,1,1C85.7,11.5,85.2,12,84.7,12z
	 M84.7,7.9c-0.6,0-1-0.4-1-1s0.4-1,1-1s1,0.4,1,1S85.2,7.9,84.7,7.9z M88.8,16.1c-0.6,0-1-0.4-1-1s0.4-1,1-1c0.6,0,1,0.4,1,1
	S89.3,16.1,88.8,16.1z M88.8,12c-0.6,0-1-0.4-1-1c0-0.6,0.4-1,1-1c0.6,0,1,0.4,1,1C89.8,11.5,89.3,12,88.8,12z M88.8,7.9
	c-0.6,0-1-0.4-1-1s0.4-1,1-1c0.6,0,1,0.4,1,1S89.3,7.9,88.8,7.9z M92.8,16.1c-0.6,0-1-0.4-1-1s0.4-1,1-1c0.6,0,1,0.4,1,1
	S93.4,16.1,92.8,16.1z M92.8,12c-0.6,0-1-0.4-1-1c0-0.6,0.4-1,1-1c0.6,0,1,0.4,1,1C93.8,11.5,93.4,12,92.8,12z M92.8,7.9
	c-0.6,0-1-0.4-1-1s0.4-1,1-1c0.6,0,1,0.4,1,1S93.4,7.9,92.8,7.9z"/>
<path fill="#009245" d="M100,24.9H34.8h-3v1.6V29v12.8v2.5v1.5h3H100h3v-1.5v-2.5V29v-2.5v-1.6H100z M42.5,38.5
	c-2.1,0-3.8-1.7-3.8-3.8c0-2.1,1.7-3.8,3.8-3.8s3.8,1.7,3.8,3.8C46.2,36.8,44.5,38.5,42.5,38.5z M51.6,38.5c-2.1,0-3.8-1.7-3.8-3.8
	c0-2.1,1.7-3.8,3.8-3.8s3.8,1.7,3.8,3.8C55.4,36.8,53.7,38.5,51.6,38.5z M60.3,40.1c-0.6,0-1-0.4-1-1s0.4-1,1-1c0.6,0,1,0.4,1,1
	S60.8,40.1,60.3,40.1z M60.3,36c-0.6,0-1-0.4-1-1c0-0.6,0.4-1,1-1c0.6,0,1,0.4,1,1C61.3,35.5,60.8,36,60.3,36z M60.3,31.9
	c-0.6,0-1-0.4-1-1s0.4-1,1-1c0.6,0,1,0.4,1,1S60.8,31.9,60.3,31.9z M64.3,40.1c-0.6,0-1-0.4-1-1s0.4-1,1-1s1,0.4,1,1
	S64.9,40.1,64.3,40.1z M64.3,36c-0.6,0-1-0.4-1-1c0-0.6,0.4-1,1-1s1,0.4,1,1C65.3,35.5,64.9,36,64.3,36z M64.3,31.9
	c-0.6,0-1-0.4-1-1s0.4-1,1-1s1,0.4,1,1S64.9,31.9,64.3,31.9z M68.4,40.1c-0.6,0-1-0.4-1-1s0.4-1,1-1c0.6,0,1,0.4,1,1
	S69,40.1,68.4,40.1z M68.4,36c-0.6,0-1-0.4-1-1c0-0.6,0.4-1,1-1c0.6,0,1,0.4,1,1C69.4,35.5,69,36,68.4,36z M68.4,31.9
	c-0.6,0-1-0.4-1-1s0.4-1,1-1c0.6,0,1,0.4,1,1S69,31.9,68.4,31.9z M72.5,40.1c-0.6,0-1-0.4-1-1s0.4-1,1-1c0.6,0,1,0.4,1,1
	S73,40.1,72.5,40.1z M72.5,36c-0.6,0-1-0.4-1-1c0-0.6,0.4-1,1-1c0.6,0,1,0.4,1,1C73.5,35.5,73,36,72.5,36z M72.5,31.9
	c-0.6,0-1-0.4-1-1s0.4-1,1-1c0.6,0,1,0.4,1,1S73,31.9,72.5,31.9z M76.6,40.1c-0.6,0-1-0.4-1-1s0.4-1,1-1c0.6,0,1,0.4,1,1
	S77.1,40.1,76.6,40.1z M76.6,36c-0.6,0-1-0.4-1-1c0-0.6,0.4-1,1-1c0.6,0,1,0.4,1,1C77.6,35.5,77.1,36,76.6,36z M76.6,31.9
	c-0.6,0-1-0.4-1-1s0.4-1,1-1c0.6,0,1,0.4,1,1S77.1,31.9,76.6,31.9z M80.6,40.1c-0.6,0-1-0.4-1-1s0.4-1,1-1c0.6,0,1,0.4,1,1
	S81.2,40.1,80.6,40.1z M80.6,36c-0.6,0-1-0.4-1-1c0-0.6,0.4-1,1-1c0.6,0,1,0.4,1,1C81.6,35.5,81.2,36,80.6,36z M80.6,31.9
	c-0.6,0-1-0.4-1-1s0.4-1,1-1c0.6,0,1,0.4,1,1S81.2,31.9,80.6,31.9z M84.7,40.1c-0.6,0-1-0.4-1-1s0.4-1,1-1s1,0.4,1,1
	S85.2,40.1,84.7,40.1z M84.7,36c-0.6,0-1-0.4-1-1c0-0.6,0.4-1,1-1s1,0.4,1,1C85.7,35.5,85.2,36,84.7,36z M84.7,31.9
	c-0.6,0-1-0.4-1-1s0.4-1,1-1s1,0.4,1,1S85.2,31.9,84.7,31.9z M88.8,40.1c-0.6,0-1-0.4-1-1s0.4-1,1-1c0.6,0,1,0.4,1,1
	S89.3,40.1,88.8,40.1z M88.8,36c-0.6,0-1-0.4-1-1c0-0.6,0.4-1,1-1c0.6,0,1,0.4,1,1C89.8,35.5,89.3,36,88.8,36z M88.8,31.9
	c-0.6,0-1-0.4-1-1s0.4-1,1-1c0.6,0,1,0.4,1,1S89.3,31.9,88.8,31.9z M92.8,40.1c-0.6,0-1-0.4-1-1s0.4-1,1-1c0.6,0,1,0.4,1,1
	S93.4,40.1,92.8,40.1z M92.8,36c-0.6,0-1-0.4-1-1c0-0.6,0.4-1,1-1c0.6,0,1,0.4,1,1C93.8,35.5,93.4,36,92.8,36z M92.8,31.9
	c-0.6,0-1-0.4-1-1s0.4-1,1-1c0.6,0,1,0.4,1,1S93.4,31.9,92.8,31.9z"/>
<path fill="#009245" d="M100,48.3H34.8h-3v17.4c0,2.9,2.4,5.3,5.3,5.3h60.6c2.9,0,5.3-2.4,5.3-5.3V48.3H100z M42.5,62.5
	c-2.1,0-3.8-1.7-3.8-3.8c0-2.1,1.7-3.8,3.8-3.8s3.8,1.7,3.8,3.8C46.2,60.8,44.5,62.5,42.5,62.5z M51.6,62.5c-2.1,0-3.8-1.7-3.8-3.8
	c0-2.1,1.7-3.8,3.8-3.8s3.8,1.7,3.8,3.8C55.4,60.8,53.7,62.5,51.6,62.5z M60.3,64.1c-0.6,0-1-0.4-1-1s0.4-1,1-1c0.6,0,1,0.4,1,1
	S60.8,64.1,60.3,64.1z M60.3,60c-0.6,0-1-0.4-1-1c0-0.6,0.4-1,1-1c0.6,0,1,0.4,1,1C61.3,59.5,60.8,60,60.3,60z M60.3,55.9
	c-0.6,0-1-0.4-1-1s0.4-1,1-1c0.6,0,1,0.4,1,1S60.8,55.9,60.3,55.9z M64.3,64.1c-0.6,0-1-0.4-1-1s0.4-1,1-1s1,0.4,1,1
	S64.9,64.1,64.3,64.1z M64.3,60c-0.6,0-1-0.4-1-1c0-0.6,0.4-1,1-1s1,0.4,1,1C65.3,59.5,64.9,60,64.3,60z M64.3,55.9
	c-0.6,0-1-0.4-1-1s0.4-1,1-1s1,0.4,1,1S64.9,55.9,64.3,55.9z M68.4,64.1c-0.6,0-1-0.4-1-1s0.4-1,1-1c0.6,0,1,0.4,1,1
	S69,64.1,68.4,64.1z M68.4,60c-0.6,0-1-0.4-1-1c0-0.6,0.4-1,1-1c0.6,0,1,0.4,1,1C69.4,59.5,69,60,68.4,60z M68.4,55.9
	c-0.6,0-1-0.4-1-1s0.4-1,1-1c0.6,0,1,0.4,1,1S69,55.9,68.4,55.9z M72.5,64.1c-0.6,0-1-0.4-1-1s0.4-1,1-1c0.6,0,1,0.4,1,1
	S73,64.1,72.5,64.1z M72.5,60c-0.6,0-1-0.4-1-1c0-0.6,0.4-1,1-1c0.6,0,1,0.4,1,1C73.5,59.5,73,60,72.5,60z M72.5,55.9
	c-0.6,0-1-0.4-1-1s0.4-1,1-1c0.6,0,1,0.4,1,1S73,55.9,72.5,55.9z M76.6,64.1c-0.6,0-1-0.4-1-1s0.4-1,1-1c0.6,0,1,0.4,1,1
	S77.1,64.1,76.6,64.1z M76.6,60c-0.6,0-1-0.4-1-1c0-0.6,0.4-1,1-1c0.6,0,1,0.4,1,1C77.6,59.5,77.1,60,76.6,60z M76.6,55.9
	c-0.6,0-1-0.4-1-1s0.4-1,1-1c0.6,0,1,0.4,1,1S77.1,55.9,76.6,55.9z M80.6,64.1c-0.6,0-1-0.4-1-1s0.4-1,1-1c0.6,0,1,0.4,1,1
	S81.2,64.1,80.6,64.1z M80.6,60c-0.6,0-1-0.4-1-1c0-0.6,0.4-1,1-1c0.6,0,1,0.4,1,1C81.6,59.5,81.2,60,80.6,60z M80.6,55.9
	c-0.6,0-1-0.4-1-1s0.4-1,1-1c0.6,0,1,0.4,1,1S81.2,55.9,80.6,55.9z M84.7,64.1c-0.6,0-1-0.4-1-1s0.4-1,1-1s1,0.4,1,1
	S85.2,64.1,84.7,64.1z M84.7,60c-0.6,0-1-0.4-1-1c0-0.6,0.4-1,1-1s1,0.4,1,1C85.7,59.5,85.2,60,84.7,60z M84.7,55.9
	c-0.6,0-1-0.4-1-1s0.4-1,1-1s1,0.4,1,1S85.2,55.9,84.7,55.9z M88.8,64.1c-0.6,0-1-0.4-1-1s0.4-1,1-1c0.6,0,1,0.4,1,1
	S89.3,64.1,88.8,64.1z M88.8,60c-0.6,0-1-0.4-1-1c0-0.6,0.4-1,1-1c0.6,0,1,0.4,1,1C89.8,59.5,89.3,60,88.8,60z M88.8,55.9
	c-0.6,0-1-0.4-1-1s0.4-1,1-1c0.6,0,1,0.4,1,1S89.3,55.9,88.8,55.9z M92.8,64.1c-0.6,0-1-0.4-1-1s0.4-1,1-1c0.6,0,1,0.4,1,1
	S93.4,64.1,92.8,64.1z M92.8,60c-0.6,0-1-0.4-1-1c0-0.6,0.4-1,1-1c0.6,0,1,0.4,1,1C93.8,59.5,93.4,60,92.8,60z M92.8,55.9
	c-0.6,0-1-0.4-1-1s0.4-1,1-1c0.6,0,1,0.4,1,1S93.4,55.9,92.8,55.9z"/>
</svg>
