<?xml version="1.0" encoding="utf-8"?>
<!-- Generator: Adobe Illustrator 18.1.0, SVG Export Plug-In . SVG Version: 6.00 Build 0)  -->
<svg version="1.1" id="Layer_1" xmlns="http://www.w3.org/2000/svg" xmlns:xlink="http://www.w3.org/1999/xlink" x="0px" y="0px"
	 viewBox="0 0 66 66.6" enable-background="new 0 0 66 66.6" xml:space="preserve">
<g>
	<g>
		<g>
			<path fill="#0C9ED9" d="M44.4,20.4H12.2c-1.4,0-2.5-1.1-2.5-2.5s1.1-2.5,2.5-2.5h32.2c1.4,0,2.5,1.1,2.5,2.5S45.8,20.4,44.4,20.4
				z"/>
		</g>
		<g>
			<path fill="#0C9ED9" d="M44.4,28.2H12.2c-1.4,0-2.5-1.1-2.5-2.5s1.1-2.5,2.5-2.5h32.2c1.4,0,2.5,1.1,2.5,2.5S45.8,28.2,44.4,28.2
				z"/>
		</g>
		<g>
			<path fill="#0C9ED9" d="M44.4,35.9H12.2c-1.4,0-2.5-1.1-2.5-2.5s1.1-2.5,2.5-2.5h32.2c1.4,0,2.5,1.1,2.5,2.5S45.8,35.9,44.4,35.9
				z"/>
		</g>
		<g>
			<path fill="#0C9ED9" d="M44.4,43.6H12.2c-1.4,0-2.5-1.1-2.5-2.5s1.1-2.5,2.5-2.5h32.2c1.4,0,2.5,1.1,2.5,2.5S45.8,43.6,44.4,43.6
				z"/>
		</g>
	</g>
	<g>
		<polygon fill="none" points="51.8,10.4 46.2,10.4 46.2,4.8 		"/>
		<path fill="none" d="M53.6,13.4v30.4c-5.3,0.5-9.6,4.6-10.3,9.9H3V3h40.2v8.9c0,0.8,0.7,1.5,1.5,1.5H53.6z"/>
		<path fill="#0C9ED9" d="M56.6,43.9V11.6c0-0.4-0.1-0.8-0.4-1.1L46.1,0.4C45.8,0.2,45.4,0,45,0H1.5C0.7,0,0,0.7,0,1.5v53.7
			c0,0.8,0.7,1.5,1.5,1.5h41.8c0.7,5.6,5.5,9.9,11.3,9.9c6.3,0,11.4-5.1,11.4-11.4C66,49.5,62,44.9,56.6,43.9z M51.8,10.4h-5.6V4.8
			L51.8,10.4z M3,53.7V3h40.2v8.9c0,0.8,0.7,1.5,1.5,1.5h9v30.4c-5.3,0.5-9.6,4.6-10.3,9.9H3z M54.6,63.6c-4.7,0-8.4-3.8-8.4-8.4
			c0-4.7,3.8-8.4,8.4-8.4c4.6,0,8.4,3.8,8.4,8.4C63,59.8,59.3,63.6,54.6,63.6z"/>
		<path fill="#0C9ED9" d="M54.6,58.1c-0.7,0-1.3,0.6-1.3,1.3c0,0.7,0.6,1.3,1.3,1.3c0.7,0,1.3-0.6,1.3-1.3
			C55.9,58.7,55.3,58.1,54.6,58.1z"/>
		<path fill="#0C9ED9" d="M54.1,56c0,0.1,0.2,0.3,0.3,0.3h0.5c0.1,0,0.3-0.1,0.3-0.3l0.6-4.4v-1.8c0-0.2-0.1-0.3-0.3-0.3h-1.7
			c-0.2,0-0.3,0.1-0.3,0.3v1.8L54.1,56z"/>
	</g>
</g>
</svg>
