<?xml version="1.0" encoding="UTF-8" standalone="no"?>
<svg width="78px" height="51px" viewBox="0 0 78 51" version="1.1" xmlns="http://www.w3.org/2000/svg" xmlns:xlink="http://www.w3.org/1999/xlink" xmlns:sketch="http://www.bohemiancoding.com/sketch/ns">
    <!-- Generator: Sketch 3.2.2 (9983) - http://www.bohemiancoding.com/sketch -->
    <title>Imported Layers 3</title>
    <desc>Created with Sketch.</desc>
    <defs></defs>
    <g id="Page-1" stroke="none" stroke-width="1" fill="none" fill-rule="evenodd" sketch:type="MSPage">
        <g id="CLC_KB_Home_3v3c" sketch:type="MSArtboardGroup" transform="translate(-850.000000, -770.000000)">
            <g id="Imported-Layers-3" sketch:type="MSLayerGroup" transform="translate(851.000000, 771.000000)">
                <path d="M59.329,0.789 L17.322,0.789 L2.768,16.777 L73.552,16.777 L59.329,0.789 L59.329,0.789 Z M66.398,47.585 L10.271,47.585 L0.789,16.836 L75.531,16.836 L66.398,47.585 L66.398,47.585 Z" id="Stroke-1" stroke="#009245" stroke-width="3" stroke-linecap="round" stroke-linejoin="round" sketch:type="MSShapeGroup"></path>
                <path d="M46.52,29.215 L46.778,32.829 L29.542,32.829 L29.8,29.215 L26.393,29.215 L25.521,35.928 L50.799,35.928 L49.927,29.215 L46.52,29.215" id="Fill-2" fill="#009245" sketch:type="MSShapeGroup"></path>
                <path d="M58.593,3.639 L17.727,3.639 L16.455,5.051 L59.866,5.051 L58.593,3.639" id="Fill-3" fill="#009245" sketch:type="MSShapeGroup"></path>
                <path d="M61.26,6.598 L15.06,6.598 L13.787,8.01 L62.533,8.01 L61.26,6.598" id="Fill-4" fill="#009245" sketch:type="MSShapeGroup"></path>
                <path d="M63.927,9.557 L12.393,9.557 L11.12,10.968 L65.2,10.968 L63.927,9.557" id="Fill-5" fill="#009245" sketch:type="MSShapeGroup"></path>
                <path d="M66.594,12.515 L9.725,12.515 L8.453,13.927 L67.867,13.927 L66.594,12.515" id="Fill-6" fill="#009245" sketch:type="MSShapeGroup"></path>
            </g>
        </g>
    </g>
</svg>