<?xml version="1.0" encoding="UTF-8" standalone="no"?>
<svg width="79px" height="47px" viewBox="0 0 79 47" version="1.1" xmlns="http://www.w3.org/2000/svg" xmlns:xlink="http://www.w3.org/1999/xlink" xmlns:sketch="http://www.bohemiancoding.com/sketch/ns">
    <!-- Generator: Sketch 3.2.2 (9983) - http://www.bohemiancoding.com/sketch -->
    <title>Imported Layers 2</title>
    <desc>Created with Sketch.</desc>
    <defs></defs>
    <g id="Page-1" stroke="none" stroke-width="1" fill="none" fill-rule="evenodd" sketch:type="MSPage">
        <g id="CLC_KB_Home_3v3c" sketch:type="MSArtboardGroup" transform="translate(-1034.000000, -606.000000)">
            <g id="Imported-Layers-2" sketch:type="MSLayerGroup" transform="translate(1035.000000, 607.000000)">
                <path d="M65.556,18.585 C63.358,12.388 57.406,8.019 50.622,8.019 C49.807,8.019 48.996,8.082 48.194,8.206 C44.271,3.649 38.554,0.993 32.458,0.993 C27.726,0.993 23.096,2.627 19.42,5.594 C16.502,7.949 14.272,11.066 12.977,14.55 C5.88,15.764 0.46,21.96 0.46,29.398 C0.46,37.147 6.246,43.571 13.934,44.378 C14.327,44.434 14.698,44.462 15.063,44.462 L63.477,44.462 C63.549,44.462 63.62,44.46 63.691,44.457 C63.789,44.46 63.888,44.462 63.987,44.462 C71.148,44.462 76.973,38.637 76.973,31.476 C76.973,24.847 71.98,19.362 65.556,18.585" id="Fill-1" fill="#FFFFFF" sketch:type="MSShapeGroup"></path>
                <path d="M67.995,19.124 C67.212,18.869 66.396,18.687 65.556,18.585 C65.275,17.793 64.933,17.031 64.536,16.305" id="Stroke-2" stroke="#009245" stroke-width="2.5" stroke-linecap="round" stroke-linejoin="round" sketch:type="MSShapeGroup"></path>
                <path d="M60.565,11.553 C58.621,9.981 56.307,8.861 53.795,8.343" id="Stroke-3" stroke="#009245" stroke-width="2.5" stroke-linecap="round" stroke-linejoin="round" stroke-dasharray="4.45,6.23" sketch:type="MSShapeGroup"></path>
                <path d="M50.69,8.019 L50.622,8.019 C49.807,8.019 48.996,8.082 48.195,8.206 C47.647,7.571 47.065,6.972 46.452,6.413" id="Stroke-4" stroke="#009245" stroke-width="2.5" stroke-linecap="round" stroke-linejoin="round" sketch:type="MSShapeGroup"></path>
                <path d="M41.319,2.973 C38.59,1.686 35.573,0.993 32.458,0.993 C27.726,0.993 23.096,2.627 19.42,5.594 C17.968,6.765 16.687,8.125 15.607,9.625" id="Stroke-5" stroke="#009245" stroke-width="2.5" stroke-linecap="round" stroke-linejoin="round" stroke-dasharray="4.43,6.202" sketch:type="MSShapeGroup"></path>
                <path d="M13.986,12.267 C13.604,13.007 13.267,13.769 12.977,14.55 C12.146,14.692 11.338,14.902 10.559,15.175" id="Stroke-6" stroke="#009245" stroke-width="2.5" stroke-linecap="round" stroke-linejoin="round" sketch:type="MSShapeGroup"></path>
                <path d="M4.697,18.935 C2.076,21.647 0.46,25.337 0.46,29.398 C0.46,37.147 6.246,43.571 13.934,44.378 C14.327,44.434 14.698,44.462 15.063,44.462 L63.477,44.462 C63.549,44.462 63.62,44.46 63.691,44.457 C63.789,44.46 63.888,44.462 63.987,44.462 C71.148,44.462 76.973,38.636 76.973,31.476 C76.973,26.961 74.656,22.976 71.148,20.648" id="Stroke-7" stroke="#009245" stroke-width="2.5" stroke-linecap="round" stroke-linejoin="round" stroke-dasharray="5.017,7.024" sketch:type="MSShapeGroup"></path>
                <path d="M37.65,27.302 L36.284,27.302 C33.518,27.302 31.268,25.052 31.268,22.286 L31.268,19.03 C31.268,16.265 33.518,14.014 36.284,14.014 L37.65,14.014 C40.416,14.014 42.666,16.265 42.666,19.03 L42.666,22.286 C42.666,25.052 40.416,27.302 37.65,27.302 L37.65,27.302 Z M36.284,15.675 C34.434,15.675 32.929,17.181 32.929,19.03 L32.929,22.286 C32.929,24.136 34.434,25.641 36.284,25.641 L37.65,25.641 C39.5,25.641 41.005,24.136 41.005,22.286 L41.005,19.03 C41.005,17.181 39.5,15.675 37.65,15.675 L36.284,15.675 L36.284,15.675 Z" id="Fill-8" fill="#009245" sketch:type="MSShapeGroup"></path>
                <path d="M37.65,27.302 L36.284,27.302 C33.518,27.302 31.268,25.052 31.268,22.286 L31.268,19.03 C31.268,16.265 33.518,14.014 36.284,14.014 L37.65,14.014 C40.416,14.014 42.666,16.265 42.666,19.03 L42.666,22.286 C42.666,25.052 40.416,27.302 37.65,27.302 L37.65,27.302 Z M36.284,15.675 C34.434,15.675 32.929,17.181 32.929,19.03 L32.929,22.286 C32.929,24.136 34.434,25.641 36.284,25.641 L37.65,25.641 C39.5,25.641 41.005,24.136 41.005,22.286 L41.005,19.03 C41.005,17.181 39.5,15.675 37.65,15.675 L36.284,15.675 L36.284,15.675 Z" id="Stroke-9" stroke="#009245" sketch:type="MSShapeGroup"></path>
                <path d="M44.679,33.454 C44.679,34.802 43.586,35.894 42.238,35.894 L31.696,35.894 C30.348,35.894 29.256,34.802 29.256,33.454 L29.256,23.611 C29.256,22.263 30.348,21.171 31.696,21.171 L42.238,21.171 C43.586,21.171 44.679,22.263 44.679,23.611 L44.679,33.454 L44.679,33.454 Z" id="Fill-10" fill="#009245" sketch:type="MSShapeGroup"></path>
                <path d="M44.679,33.454 C44.679,34.802 43.586,35.894 42.238,35.894 L31.696,35.894 C30.348,35.894 29.256,34.802 29.256,33.454 L29.256,23.611 C29.256,22.263 30.348,21.171 31.696,21.171 L42.238,21.171 C43.586,21.171 44.679,22.263 44.679,23.611 L44.679,33.454 L44.679,33.454 Z" id="Stroke-11" stroke="#009245" stroke-width="3" stroke-linecap="round" stroke-linejoin="round" sketch:type="MSShapeGroup"></path>
                <path d="M38.598,31.306 L37.77,28.582 C38.196,28.314 38.48,27.842 38.48,27.302 C38.48,26.466 37.803,25.789 36.967,25.789 C36.132,25.789 35.455,26.466 35.455,27.302 C35.455,27.842 35.738,28.315 36.164,28.582 L35.337,31.306 L38.598,31.306" id="Fill-12" fill="#FFFFFF" sketch:type="MSShapeGroup"></path>
            </g>
        </g>
    </g>
</svg>