<?xml version="1.0" encoding="UTF-8" standalone="no"?>
<svg width="86px" height="44px" viewBox="0 0 86 44" version="1.1" xmlns="http://www.w3.org/2000/svg" xmlns:xlink="http://www.w3.org/1999/xlink" xmlns:sketch="http://www.bohemiancoding.com/sketch/ns">
    <!-- Generator: Sketch 3.2.2 (9983) - http://www.bohemiancoding.com/sketch -->
    <title>Imported Layers</title>
    <desc>Created with Sketch.</desc>
    <defs></defs>
    <g id="Page-1" stroke="none" stroke-width="1" fill="none" fill-rule="evenodd" sketch:type="MSPage">
        <g id="CLC_KB_Home_3a" sketch:type="MSArtboardGroup" transform="translate(-312.000000, -811.000000)">
            <g id="Imported-Layers" sketch:type="MSLayerGroup" transform="translate(312.000000, 812.000000)">
                <path d="M25.265,11.318 C25.265,12.062 24.662,12.665 23.918,12.665 L1.346,12.665 C0.603,12.665 0,12.062 0,11.318 C0,10.575 0.603,9.972 1.346,9.972 L23.918,9.972 C24.662,9.972 25.265,10.575 25.265,11.318" id="Fill-1" fill="#009245" sketch:type="MSShapeGroup"></path>
                <path d="M25.265,19.798 C25.265,20.542 24.662,21.144 23.918,21.144 L8.085,21.144 C7.341,21.144 6.738,20.542 6.738,19.798 C6.738,19.054 7.341,18.451 8.085,18.451 L23.918,18.451 C24.662,18.451 25.265,19.054 25.265,19.798" id="Fill-2" fill="#009245" sketch:type="MSShapeGroup"></path>
                <path d="M25.265,28.278 C25.265,29.021 24.662,29.624 23.918,29.624 L14.823,29.624 C14.079,29.624 13.477,29.021 13.477,28.278 C13.477,27.534 14.079,26.931 14.823,26.931 L23.918,26.931 C24.662,26.931 25.265,27.534 25.265,28.278" id="Fill-3" fill="#009245" sketch:type="MSShapeGroup"></path>
                <path d="M23.355,3.571 L26.5,3.571 L26.5,31.294 L23.355,31.294 L23.355,3.571 Z" id="Fill-4" fill="#FFFFFF" sketch:type="MSShapeGroup"></path>
                <path d="M25.826,0.763 L84,0.763 L84,41.273 L25.826,41.273 L25.826,0.763 Z M83.925,0.727 L54.876,29.624 L25.826,0.727 L83.925,0.727 Z" id="Stroke-5" stroke="#009245" stroke-width="3" stroke-linecap="round" stroke-linejoin="round" sketch:type="MSShapeGroup"></path>
            </g>
        </g>
    </g>
</svg>