<?xml version="1.0" encoding="iso-8859-1"?>
<!-- Generator: Adobe Illustrator 18.0.0, SVG Export Plug-In . SVG Version: 6.00 Build 0)  -->
<!DOCTYPE svg PUBLIC "-//W3C//DTD SVG 1.1//EN" "http://www.w3.org/Graphics/SVG/1.1/DTD/svg11.dtd">
<svg version="1.1" xmlns="http://www.w3.org/2000/svg" xmlns:xlink="http://www.w3.org/1999/xlink" x="0px" y="0px"
	 viewBox="0 0 349 399.591" style="enable-background:new 0 0 349 399.591;" xml:space="preserve">
<g id="Object_Storage">
	<g id="object_storage">
		<g>
			<path style="fill:#00853f;" d="M349,44.977h-0.049C346.886,20.044,269.576,0,174.5,0S2.114,20.044,0.049,44.977H0l0.035,0.302
				C0.021,45.519,0,45.759,0,46c0,1.214,0.182,2.417,0.532,3.608L36.5,362.716c-0.003,0.095-0.014,0.189-0.014,0.284
				c0,20.209,62.124,36.591,138.757,36.591S314,383.209,314,363l34.504-313.512C348.831,48.336,349,47.173,349,46
				c0-0.238-0.021-0.475-0.034-0.712L349,44.977z M175.293,93.591C98.632,93.591,36.486,77.209,36.486,57
				c0-20.209,62.146-36.591,138.807-36.591S314.1,36.791,314.1,57C314.1,77.209,251.954,93.591,175.293,93.591z"/>
		</g>
	</g>
</g>
<g id="Layer_1">
</g>
</svg>
