<?xml version="1.0" encoding="UTF-8" standalone="no"?>
<svg width="76px" height="64px" viewBox="0 0 76 64" version="1.1" xmlns="http://www.w3.org/2000/svg" xmlns:xlink="http://www.w3.org/1999/xlink" xmlns:sketch="http://www.bohemiancoding.com/sketch/ns">
    <!-- Generator: Sketch 3.2.2 (9983) - http://www.bohemiancoding.com/sketch -->
    <title>Imported Layers</title>
    <desc>Created with Sketch.</desc>
    <defs></defs>
    <g id="Page-1" stroke="none" stroke-width="1" fill="none" fill-rule="evenodd" sketch:type="MSPage">
        <g id="CLC_KB_Home_3a" sketch:type="MSArtboardGroup" transform="translate(-320.000000, -604.000000)">
            <g id="Imported-Layers" sketch:type="MSLayerGroup" transform="translate(321.000000, 605.000000)">
                <path d="M11.276,8.783 C11.276,10.17 10.152,11.294 8.765,11.294 C7.378,11.294 6.254,10.17 6.254,8.783 C6.254,7.396 7.378,6.272 8.765,6.272 C10.152,6.272 11.276,7.396 11.276,8.783 L11.276,8.783 Z M19.418,8.783 C19.418,10.17 18.294,11.294 16.907,11.294 C15.52,11.294 14.396,10.17 14.396,8.783 C14.396,7.396 15.52,6.272 16.907,6.272 C18.294,6.272 19.418,7.396 19.418,8.783 L19.418,8.783 Z M11.276,30.73 C11.276,32.117 10.152,33.241 8.765,33.241 C7.378,33.241 6.254,32.117 6.254,30.73 C6.254,29.343 7.378,28.219 8.765,28.219 C10.152,28.219 11.276,29.343 11.276,30.73 L11.276,30.73 Z M19.418,30.73 C19.418,32.117 18.294,33.241 16.907,33.241 C15.52,33.241 14.396,32.117 14.396,30.73 C14.396,29.343 15.52,28.219 16.907,28.219 C18.294,28.219 19.418,29.343 19.418,30.73 L19.418,30.73 Z M11.276,52.271 C11.276,53.657 10.152,54.781 8.765,54.781 C7.378,54.781 6.254,53.657 6.254,52.271 C6.254,50.884 7.378,49.76 8.765,49.76 C10.152,49.76 11.276,50.884 11.276,52.271 L11.276,52.271 Z M19.418,52.271 C19.418,53.657 18.294,54.781 16.907,54.781 C15.52,54.781 14.396,53.657 14.396,52.271 C14.396,50.884 15.52,49.76 16.907,49.76 C18.294,49.76 19.418,50.884 19.418,52.271 L19.418,52.271 Z" id="Stroke-1" stroke="#009245" stroke-width="2.5" sketch:type="MSShapeGroup"></path>
                <path d="M57.145,4.959 C57.145,5.511 57.593,5.958 58.145,5.958 C58.696,5.958 59.144,5.511 59.144,4.959 C59.144,4.407 58.696,3.96 58.145,3.96 C57.593,3.96 57.145,4.407 57.145,4.959" id="Fill-2" fill="#009245" sketch:type="MSShapeGroup"></path>
                <path d="M53.074,4.959 C53.074,5.511 53.522,5.958 54.074,5.958 C54.626,5.958 55.073,5.511 55.073,4.959 C55.073,4.407 54.626,3.96 54.074,3.96 C53.522,3.96 53.074,4.407 53.074,4.959" id="Fill-3" fill="#009245" sketch:type="MSShapeGroup"></path>
                <path d="M49.004,4.959 C49.004,5.511 49.451,5.958 50.003,5.958 C50.555,5.958 51.002,5.511 51.002,4.959 C51.002,4.407 50.555,3.96 50.003,3.96 C49.451,3.96 49.004,4.407 49.004,4.959" id="Fill-4" fill="#009245" sketch:type="MSShapeGroup"></path>
                <path d="M44.933,4.959 C44.933,5.511 45.38,5.958 45.932,5.958 C46.484,5.958 46.931,5.511 46.931,4.959 C46.931,4.407 46.484,3.96 45.932,3.96 C45.38,3.96 44.933,4.407 44.933,4.959" id="Fill-5" fill="#009245" sketch:type="MSShapeGroup"></path>
                <path d="M40.862,4.959 C40.862,5.511 41.309,5.958 41.861,5.958 C42.413,5.958 42.86,5.511 42.86,4.959 C42.86,4.407 42.413,3.96 41.861,3.96 C41.309,3.96 40.862,4.407 40.862,4.959" id="Fill-6" fill="#009245" sketch:type="MSShapeGroup"></path>
                <path d="M36.791,4.959 C36.791,5.511 37.238,5.958 37.79,5.958 C38.342,5.958 38.789,5.511 38.789,4.959 C38.789,4.407 38.342,3.96 37.79,3.96 C37.238,3.96 36.791,4.407 36.791,4.959" id="Fill-7" fill="#009245" sketch:type="MSShapeGroup"></path>
                <path d="M32.72,4.959 C32.72,5.511 33.167,5.958 33.719,5.958 C34.271,5.958 34.718,5.511 34.718,4.959 C34.718,4.407 34.271,3.96 33.719,3.96 C33.167,3.96 32.72,4.407 32.72,4.959" id="Fill-8" fill="#009245" sketch:type="MSShapeGroup"></path>
                <path d="M28.649,4.959 C28.649,5.511 29.096,5.958 29.648,5.958 C30.2,5.958 30.647,5.511 30.647,4.959 C30.647,4.407 30.2,3.96 29.648,3.96 C29.096,3.96 28.649,4.407 28.649,4.959" id="Fill-9" fill="#009245" sketch:type="MSShapeGroup"></path>
                <path d="M24.578,4.959 C24.578,5.511 25.026,5.958 25.577,5.958 C26.129,5.958 26.577,5.511 26.577,4.959 C26.577,4.407 26.129,3.96 25.577,3.96 C25.026,3.96 24.578,4.407 24.578,4.959" id="Fill-10" fill="#009245" sketch:type="MSShapeGroup"></path>
                <path d="M57.145,9.03 C57.145,9.582 57.593,10.029 58.145,10.029 C58.696,10.029 59.144,9.582 59.144,9.03 C59.144,8.478 58.696,8.031 58.145,8.031 C57.593,8.031 57.145,8.478 57.145,9.03" id="Fill-11" fill="#009245" sketch:type="MSShapeGroup"></path>
                <path d="M53.074,9.03 C53.074,9.582 53.522,10.029 54.074,10.029 C54.626,10.029 55.073,9.582 55.073,9.03 C55.073,8.478 54.626,8.031 54.074,8.031 C53.522,8.031 53.074,8.478 53.074,9.03" id="Fill-12" fill="#009245" sketch:type="MSShapeGroup"></path>
                <path d="M49.004,9.03 C49.004,9.582 49.451,10.029 50.003,10.029 C50.555,10.029 51.002,9.582 51.002,9.03 C51.002,8.478 50.555,8.031 50.003,8.031 C49.451,8.031 49.004,8.478 49.004,9.03" id="Fill-13" fill="#009245" sketch:type="MSShapeGroup"></path>
                <path d="M44.933,9.03 C44.933,9.582 45.38,10.029 45.932,10.029 C46.484,10.029 46.931,9.582 46.931,9.03 C46.931,8.478 46.484,8.031 45.932,8.031 C45.38,8.031 44.933,8.478 44.933,9.03" id="Fill-14" fill="#009245" sketch:type="MSShapeGroup"></path>
                <path d="M40.862,9.03 C40.862,9.582 41.309,10.029 41.861,10.029 C42.413,10.029 42.86,9.582 42.86,9.03 C42.86,8.478 42.413,8.031 41.861,8.031 C41.309,8.031 40.862,8.478 40.862,9.03" id="Fill-15" fill="#009245" sketch:type="MSShapeGroup"></path>
                <path d="M36.791,9.03 C36.791,9.582 37.238,10.029 37.79,10.029 C38.342,10.029 38.789,9.582 38.789,9.03 C38.789,8.478 38.342,8.031 37.79,8.031 C37.238,8.031 36.791,8.478 36.791,9.03" id="Fill-16" fill="#009245" sketch:type="MSShapeGroup"></path>
                <path d="M32.72,9.03 C32.72,9.582 33.167,10.029 33.719,10.029 C34.271,10.029 34.718,9.582 34.718,9.03 C34.718,8.478 34.271,8.031 33.719,8.031 C33.167,8.031 32.72,8.478 32.72,9.03" id="Fill-17" fill="#009245" sketch:type="MSShapeGroup"></path>
                <path d="M28.649,9.03 C28.649,9.582 29.096,10.029 29.648,10.029 C30.2,10.029 30.647,9.582 30.647,9.03 C30.647,8.478 30.2,8.031 29.648,8.031 C29.096,8.031 28.649,8.478 28.649,9.03" id="Fill-18" fill="#009245" sketch:type="MSShapeGroup"></path>
                <path d="M24.578,9.03 C24.578,9.582 25.026,10.029 25.577,10.029 C26.129,10.029 26.577,9.582 26.577,9.03 C26.577,8.478 26.129,8.031 25.577,8.031 C25.026,8.031 24.578,8.478 24.578,9.03" id="Fill-19" fill="#009245" sketch:type="MSShapeGroup"></path>
                <path d="M57.145,13.101 C57.145,13.653 57.593,14.1 58.145,14.1 C58.696,14.1 59.144,13.653 59.144,13.101 C59.144,12.549 58.696,12.102 58.145,12.102 C57.593,12.102 57.145,12.549 57.145,13.101" id="Fill-20" fill="#009245" sketch:type="MSShapeGroup"></path>
                <path d="M53.074,13.101 C53.074,13.653 53.522,14.1 54.074,14.1 C54.626,14.1 55.073,13.653 55.073,13.101 C55.073,12.549 54.626,12.102 54.074,12.102 C53.522,12.102 53.074,12.549 53.074,13.101" id="Fill-21" fill="#009245" sketch:type="MSShapeGroup"></path>
                <path d="M49.004,13.101 C49.004,13.653 49.451,14.1 50.003,14.1 C50.555,14.1 51.002,13.653 51.002,13.101 C51.002,12.549 50.555,12.102 50.003,12.102 C49.451,12.102 49.004,12.549 49.004,13.101" id="Fill-22" fill="#009245" sketch:type="MSShapeGroup"></path>
                <path d="M44.933,13.101 C44.933,13.653 45.38,14.1 45.932,14.1 C46.484,14.1 46.931,13.653 46.931,13.101 C46.931,12.549 46.484,12.102 45.932,12.102 C45.38,12.102 44.933,12.549 44.933,13.101" id="Fill-23" fill="#009245" sketch:type="MSShapeGroup"></path>
                <path d="M40.862,13.101 C40.862,13.653 41.309,14.1 41.861,14.1 C42.413,14.1 42.86,13.653 42.86,13.101 C42.86,12.549 42.413,12.102 41.861,12.102 C41.309,12.102 40.862,12.549 40.862,13.101" id="Fill-24" fill="#009245" sketch:type="MSShapeGroup"></path>
                <path d="M36.791,13.101 C36.791,13.653 37.238,14.1 37.79,14.1 C38.342,14.1 38.789,13.653 38.789,13.101 C38.789,12.549 38.342,12.102 37.79,12.102 C37.238,12.102 36.791,12.549 36.791,13.101" id="Fill-25" fill="#009245" sketch:type="MSShapeGroup"></path>
                <path d="M32.72,13.101 C32.72,13.653 33.167,14.1 33.719,14.1 C34.271,14.1 34.718,13.653 34.718,13.101 C34.718,12.549 34.271,12.102 33.719,12.102 C33.167,12.102 32.72,12.549 32.72,13.101" id="Fill-26" fill="#009245" sketch:type="MSShapeGroup"></path>
                <path d="M28.649,13.101 C28.649,13.653 29.096,14.1 29.648,14.1 C30.2,14.1 30.647,13.653 30.647,13.101 C30.647,12.549 30.2,12.102 29.648,12.102 C29.096,12.102 28.649,12.549 28.649,13.101" id="Fill-27" fill="#009245" sketch:type="MSShapeGroup"></path>
                <path d="M24.578,13.101 C24.578,13.653 25.026,14.1 25.577,14.1 C26.129,14.1 26.577,13.653 26.577,13.101 C26.577,12.549 26.129,12.102 25.577,12.102 C25.026,12.102 24.578,12.549 24.578,13.101" id="Fill-28" fill="#009245" sketch:type="MSShapeGroup"></path>
                <path d="M63.5,3.051 C63.5,1.642 62.358,0.5 60.949,0.5 L3.051,0.5 C1.642,0.5 0.5,1.642 0.5,3.051 L0.5,14.949 C0.5,16.358 1.642,17.5 3.051,17.5 L60.949,17.5 C62.358,17.5 63.5,16.358 63.5,14.949 L63.5,3.051 L63.5,3.051 Z M63.5,25.051 C63.5,23.642 62.358,22.5 60.949,22.5 L3.051,22.5 C1.642,22.5 0.5,23.642 0.5,25.051 L0.5,36.949 C0.5,38.358 1.642,39.5 3.051,39.5 L60.949,39.5 C62.358,39.5 63.5,38.358 63.5,36.949 L63.5,25.051 L63.5,25.051 Z M63.5,47.051 C63.5,45.642 62.358,44.5 60.949,44.5 L3.051,44.5 C1.642,44.5 0.5,45.642 0.5,47.051 L0.5,58.949 C0.5,60.358 1.642,61.5 3.051,61.5 L60.949,61.5 C62.358,61.5 63.5,60.358 63.5,58.949 L63.5,47.051 L63.5,47.051 Z" id="Stroke-29" stroke="#009245" stroke-width="3" sketch:type="MSShapeGroup"></path>
                <path d="M57.145,26.499 C57.145,27.051 57.593,27.499 58.145,27.499 C58.696,27.499 59.144,27.051 59.144,26.499 C59.144,25.948 58.696,25.5 58.145,25.5 C57.593,25.5 57.145,25.948 57.145,26.499" id="Fill-30" fill="#009245" sketch:type="MSShapeGroup"></path>
                <path d="M53.074,26.499 C53.074,27.051 53.522,27.499 54.074,27.499 C54.626,27.499 55.073,27.051 55.073,26.499 C55.073,25.948 54.626,25.5 54.074,25.5 C53.522,25.5 53.074,25.948 53.074,26.499" id="Fill-31" fill="#009245" sketch:type="MSShapeGroup"></path>
                <path d="M49.004,26.499 C49.004,27.051 49.451,27.499 50.003,27.499 C50.555,27.499 51.002,27.051 51.002,26.499 C51.002,25.948 50.555,25.5 50.003,25.5 C49.451,25.5 49.004,25.948 49.004,26.499" id="Fill-32" fill="#009245" sketch:type="MSShapeGroup"></path>
                <path d="M44.933,26.499 C44.933,27.051 45.38,27.499 45.932,27.499 C46.484,27.499 46.931,27.051 46.931,26.499 C46.931,25.948 46.484,25.5 45.932,25.5 C45.38,25.5 44.933,25.948 44.933,26.499" id="Fill-33" fill="#009245" sketch:type="MSShapeGroup"></path>
                <path d="M40.862,26.499 C40.862,27.051 41.309,27.499 41.861,27.499 C42.413,27.499 42.86,27.051 42.86,26.499 C42.86,25.948 42.413,25.5 41.861,25.5 C41.309,25.5 40.862,25.948 40.862,26.499" id="Fill-34" fill="#009245" sketch:type="MSShapeGroup"></path>
                <path d="M36.791,26.499 C36.791,27.051 37.238,27.499 37.79,27.499 C38.342,27.499 38.789,27.051 38.789,26.499 C38.789,25.948 38.342,25.5 37.79,25.5 C37.238,25.5 36.791,25.948 36.791,26.499" id="Fill-35" fill="#009245" sketch:type="MSShapeGroup"></path>
                <path d="M32.72,26.499 C32.72,27.051 33.167,27.499 33.719,27.499 C34.271,27.499 34.718,27.051 34.718,26.499 C34.718,25.948 34.271,25.5 33.719,25.5 C33.167,25.5 32.72,25.948 32.72,26.499" id="Fill-36" fill="#009245" sketch:type="MSShapeGroup"></path>
                <path d="M28.649,26.499 C28.649,27.051 29.096,27.499 29.648,27.499 C30.2,27.499 30.647,27.051 30.647,26.499 C30.647,25.948 30.2,25.5 29.648,25.5 C29.096,25.5 28.649,25.948 28.649,26.499" id="Fill-37" fill="#009245" sketch:type="MSShapeGroup"></path>
                <path d="M24.578,26.499 C24.578,27.051 25.026,27.499 25.577,27.499 C26.129,27.499 26.577,27.051 26.577,26.499 C26.577,25.948 26.129,25.5 25.577,25.5 C25.026,25.5 24.578,25.948 24.578,26.499" id="Fill-38" fill="#009245" sketch:type="MSShapeGroup"></path>
                <path d="M57.145,30.57 C57.145,31.122 57.593,31.569 58.145,31.569 C58.696,31.569 59.144,31.122 59.144,30.57 C59.144,30.018 58.696,29.571 58.145,29.571 C57.593,29.571 57.145,30.018 57.145,30.57" id="Fill-39" fill="#009245" sketch:type="MSShapeGroup"></path>
                <path d="M53.074,30.57 C53.074,31.122 53.522,31.569 54.074,31.569 C54.626,31.569 55.073,31.122 55.073,30.57 C55.073,30.018 54.626,29.571 54.074,29.571 C53.522,29.571 53.074,30.018 53.074,30.57" id="Fill-40" fill="#009245" sketch:type="MSShapeGroup"></path>
                <path d="M49.004,30.57 C49.004,31.122 49.451,31.569 50.003,31.569 C50.555,31.569 51.002,31.122 51.002,30.57 C51.002,30.018 50.555,29.571 50.003,29.571 C49.451,29.571 49.004,30.018 49.004,30.57" id="Fill-41" fill="#009245" sketch:type="MSShapeGroup"></path>
                <path d="M44.933,30.57 C44.933,31.122 45.38,31.569 45.932,31.569 C46.484,31.569 46.931,31.122 46.931,30.57 C46.931,30.018 46.484,29.571 45.932,29.571 C45.38,29.571 44.933,30.018 44.933,30.57" id="Fill-42" fill="#009245" sketch:type="MSShapeGroup"></path>
                <path d="M40.862,30.57 C40.862,31.122 41.309,31.569 41.861,31.569 C42.413,31.569 42.86,31.122 42.86,30.57 C42.86,30.018 42.413,29.571 41.861,29.571 C41.309,29.571 40.862,30.018 40.862,30.57" id="Fill-43" fill="#009245" sketch:type="MSShapeGroup"></path>
                <path d="M36.791,30.57 C36.791,31.122 37.238,31.569 37.79,31.569 C38.342,31.569 38.789,31.122 38.789,30.57 C38.789,30.018 38.342,29.571 37.79,29.571 C37.238,29.571 36.791,30.018 36.791,30.57" id="Fill-44" fill="#009245" sketch:type="MSShapeGroup"></path>
                <path d="M32.72,30.57 C32.72,31.122 33.167,31.569 33.719,31.569 C34.271,31.569 34.718,31.122 34.718,30.57 C34.718,30.018 34.271,29.571 33.719,29.571 C33.167,29.571 32.72,30.018 32.72,30.57" id="Fill-45" fill="#009245" sketch:type="MSShapeGroup"></path>
                <path d="M28.649,30.57 C28.649,31.122 29.096,31.569 29.648,31.569 C30.2,31.569 30.647,31.122 30.647,30.57 C30.647,30.018 30.2,29.571 29.648,29.571 C29.096,29.571 28.649,30.018 28.649,30.57" id="Fill-46" fill="#009245" sketch:type="MSShapeGroup"></path>
                <path d="M24.578,30.57 C24.578,31.122 25.026,31.569 25.577,31.569 C26.129,31.569 26.577,31.122 26.577,30.57 C26.577,30.018 26.129,29.571 25.577,29.571 C25.026,29.571 24.578,30.018 24.578,30.57" id="Fill-47" fill="#009245" sketch:type="MSShapeGroup"></path>
                <path d="M57.145,34.641 C57.145,35.193 57.593,35.64 58.145,35.64 C58.696,35.64 59.144,35.193 59.144,34.641 C59.144,34.089 58.696,33.642 58.145,33.642 C57.593,33.642 57.145,34.089 57.145,34.641" id="Fill-48" fill="#009245" sketch:type="MSShapeGroup"></path>
                <path d="M53.074,34.641 C53.074,35.193 53.522,35.64 54.074,35.64 C54.626,35.64 55.073,35.193 55.073,34.641 C55.073,34.089 54.626,33.642 54.074,33.642 C53.522,33.642 53.074,34.089 53.074,34.641" id="Fill-49" fill="#009245" sketch:type="MSShapeGroup"></path>
                <path d="M49.004,34.641 C49.004,35.193 49.451,35.64 50.003,35.64 C50.555,35.64 51.002,35.193 51.002,34.641 C51.002,34.089 50.555,33.642 50.003,33.642 C49.451,33.642 49.004,34.089 49.004,34.641" id="Fill-50" fill="#009245" sketch:type="MSShapeGroup"></path>
                <path d="M44.933,34.641 C44.933,35.193 45.38,35.64 45.932,35.64 C46.484,35.64 46.931,35.193 46.931,34.641 C46.931,34.089 46.484,33.642 45.932,33.642 C45.38,33.642 44.933,34.089 44.933,34.641" id="Fill-51" fill="#009245" sketch:type="MSShapeGroup"></path>
                <path d="M40.862,34.641 C40.862,35.193 41.309,35.64 41.861,35.64 C42.413,35.64 42.86,35.193 42.86,34.641 C42.86,34.089 42.413,33.642 41.861,33.642 C41.309,33.642 40.862,34.089 40.862,34.641" id="Fill-52" fill="#009245" sketch:type="MSShapeGroup"></path>
                <path d="M36.791,34.641 C36.791,35.193 37.238,35.64 37.79,35.64 C38.342,35.64 38.789,35.193 38.789,34.641 C38.789,34.089 38.342,33.642 37.79,33.642 C37.238,33.642 36.791,34.089 36.791,34.641" id="Fill-53" fill="#009245" sketch:type="MSShapeGroup"></path>
                <path d="M32.72,34.641 C32.72,35.193 33.167,35.64 33.719,35.64 C34.271,35.64 34.718,35.193 34.718,34.641 C34.718,34.089 34.271,33.642 33.719,33.642 C33.167,33.642 32.72,34.089 32.72,34.641" id="Fill-54" fill="#009245" sketch:type="MSShapeGroup"></path>
                <path d="M28.649,34.641 C28.649,35.193 29.096,35.64 29.648,35.64 C30.2,35.64 30.647,35.193 30.647,34.641 C30.647,34.089 30.2,33.642 29.648,33.642 C29.096,33.642 28.649,34.089 28.649,34.641" id="Fill-55" fill="#009245" sketch:type="MSShapeGroup"></path>
                <path d="M24.578,34.641 C24.578,35.193 25.026,35.64 25.577,35.64 C26.129,35.64 26.577,35.193 26.577,34.641 C26.577,34.089 26.129,33.642 25.577,33.642 C25.026,33.642 24.578,34.089 24.578,34.641" id="Fill-56" fill="#009245" sketch:type="MSShapeGroup"></path>
                <path d="M57.145,48.447 C57.145,48.999 57.593,49.446 58.145,49.446 C58.696,49.446 59.144,48.999 59.144,48.447 C59.144,47.895 58.696,47.448 58.145,47.448 C57.593,47.448 57.145,47.895 57.145,48.447" id="Fill-57" fill="#009245" sketch:type="MSShapeGroup"></path>
                <path d="M53.074,48.447 C53.074,48.999 53.522,49.446 54.074,49.446 C54.626,49.446 55.073,48.999 55.073,48.447 C55.073,47.895 54.626,47.448 54.074,47.448 C53.522,47.448 53.074,47.895 53.074,48.447" id="Fill-58" fill="#009245" sketch:type="MSShapeGroup"></path>
                <path d="M49.004,48.447 C49.004,48.999 49.451,49.446 50.003,49.446 C50.555,49.446 51.002,48.999 51.002,48.447 C51.002,47.895 50.555,47.448 50.003,47.448 C49.451,47.448 49.004,47.895 49.004,48.447" id="Fill-59" fill="#009245" sketch:type="MSShapeGroup"></path>
                <path d="M44.933,48.447 C44.933,48.999 45.38,49.446 45.932,49.446 C46.484,49.446 46.931,48.999 46.931,48.447 C46.931,47.895 46.484,47.448 45.932,47.448 C45.38,47.448 44.933,47.895 44.933,48.447" id="Fill-60" fill="#009245" sketch:type="MSShapeGroup"></path>
                <path d="M40.862,48.447 C40.862,48.999 41.309,49.446 41.861,49.446 C42.413,49.446 42.86,48.999 42.86,48.447 C42.86,47.895 42.413,47.448 41.861,47.448 C41.309,47.448 40.862,47.895 40.862,48.447" id="Fill-61" fill="#009245" sketch:type="MSShapeGroup"></path>
                <path d="M36.791,48.447 C36.791,48.999 37.238,49.446 37.79,49.446 C38.342,49.446 38.789,48.999 38.789,48.447 C38.789,47.895 38.342,47.448 37.79,47.448 C37.238,47.448 36.791,47.895 36.791,48.447" id="Fill-62" fill="#009245" sketch:type="MSShapeGroup"></path>
                <path d="M32.72,48.447 C32.72,48.999 33.167,49.446 33.719,49.446 C34.271,49.446 34.718,48.999 34.718,48.447 C34.718,47.895 34.271,47.448 33.719,47.448 C33.167,47.448 32.72,47.895 32.72,48.447" id="Fill-63" fill="#009245" sketch:type="MSShapeGroup"></path>
                <path d="M28.649,48.447 C28.649,48.999 29.096,49.446 29.648,49.446 C30.2,49.446 30.647,48.999 30.647,48.447 C30.647,47.895 30.2,47.448 29.648,47.448 C29.096,47.448 28.649,47.895 28.649,48.447" id="Fill-64" fill="#009245" sketch:type="MSShapeGroup"></path>
                <path d="M24.578,48.447 C24.578,48.999 25.026,49.446 25.577,49.446 C26.129,49.446 26.577,48.999 26.577,48.447 C26.577,47.895 26.129,47.448 25.577,47.448 C25.026,47.448 24.578,47.895 24.578,48.447" id="Fill-65" fill="#009245" sketch:type="MSShapeGroup"></path>
                <path d="M57.145,52.518 C57.145,53.07 57.593,53.517 58.145,53.517 C58.696,53.517 59.144,53.07 59.144,52.518 C59.144,51.966 58.696,51.518 58.145,51.518 C57.593,51.518 57.145,51.966 57.145,52.518" id="Fill-66" fill="#009245" sketch:type="MSShapeGroup"></path>
                <path d="M53.074,52.518 C53.074,53.07 53.522,53.517 54.074,53.517 C54.626,53.517 55.073,53.07 55.073,52.518 C55.073,51.966 54.626,51.518 54.074,51.518 C53.522,51.518 53.074,51.966 53.074,52.518" id="Fill-67" fill="#009245" sketch:type="MSShapeGroup"></path>
                <path d="M49.004,52.518 C49.004,53.07 49.451,53.517 50.003,53.517 C50.555,53.517 51.002,53.07 51.002,52.518 C51.002,51.966 50.555,51.518 50.003,51.518 C49.451,51.518 49.004,51.966 49.004,52.518" id="Fill-68" fill="#009245" sketch:type="MSShapeGroup"></path>
                <path d="M44.933,52.518 C44.933,53.07 45.38,53.517 45.932,53.517 C46.484,53.517 46.931,53.07 46.931,52.518 C46.931,51.966 46.484,51.518 45.932,51.518 C45.38,51.518 44.933,51.966 44.933,52.518" id="Fill-69" fill="#009245" sketch:type="MSShapeGroup"></path>
                <path d="M40.862,52.518 C40.862,53.07 41.309,53.517 41.861,53.517 C42.413,53.517 42.86,53.07 42.86,52.518 C42.86,51.966 42.413,51.518 41.861,51.518 C41.309,51.518 40.862,51.966 40.862,52.518" id="Fill-70" fill="#009245" sketch:type="MSShapeGroup"></path>
                <path d="M36.791,52.518 C36.791,53.07 37.238,53.517 37.79,53.517 C38.342,53.517 38.789,53.07 38.789,52.518 C38.789,51.966 38.342,51.518 37.79,51.518 C37.238,51.518 36.791,51.966 36.791,52.518" id="Fill-71" fill="#009245" sketch:type="MSShapeGroup"></path>
                <path d="M32.72,52.518 C32.72,53.07 33.167,53.517 33.719,53.517 C34.271,53.517 34.718,53.07 34.718,52.518 C34.718,51.966 34.271,51.518 33.719,51.518 C33.167,51.518 32.72,51.966 32.72,52.518" id="Fill-72" fill="#009245" sketch:type="MSShapeGroup"></path>
                <path d="M28.649,52.518 C28.649,53.07 29.096,53.517 29.648,53.517 C30.2,53.517 30.647,53.07 30.647,52.518 C30.647,51.966 30.2,51.518 29.648,51.518 C29.096,51.518 28.649,51.966 28.649,52.518" id="Fill-73" fill="#009245" sketch:type="MSShapeGroup"></path>
                <path d="M24.578,52.518 C24.578,53.07 25.026,53.517 25.577,53.517 C26.129,53.517 26.577,53.07 26.577,52.518 C26.577,51.966 26.129,51.518 25.577,51.518 C25.026,51.518 24.578,51.966 24.578,52.518" id="Fill-74" fill="#009245" sketch:type="MSShapeGroup"></path>
                <path d="M57.145,56.589 C57.145,57.14 57.593,57.588 58.145,57.588 C58.696,57.588 59.144,57.14 59.144,56.589 C59.144,56.037 58.696,55.589 58.145,55.589 C57.593,55.589 57.145,56.037 57.145,56.589" id="Fill-75" fill="#009245" sketch:type="MSShapeGroup"></path>
                <path d="M53.074,56.589 C53.074,57.14 53.522,57.588 54.074,57.588 C54.626,57.588 55.073,57.14 55.073,56.589 C55.073,56.037 54.626,55.589 54.074,55.589 C53.522,55.589 53.074,56.037 53.074,56.589" id="Fill-76" fill="#009245" sketch:type="MSShapeGroup"></path>
                <path d="M49.004,56.589 C49.004,57.14 49.451,57.588 50.003,57.588 C50.555,57.588 51.002,57.14 51.002,56.589 C51.002,56.037 50.555,55.589 50.003,55.589 C49.451,55.589 49.004,56.037 49.004,56.589" id="Fill-77" fill="#009245" sketch:type="MSShapeGroup"></path>
                <path d="M44.933,56.589 C44.933,57.14 45.38,57.588 45.932,57.588 C46.484,57.588 46.931,57.14 46.931,56.589 C46.931,56.037 46.484,55.589 45.932,55.589 C45.38,55.589 44.933,56.037 44.933,56.589" id="Fill-78" fill="#009245" sketch:type="MSShapeGroup"></path>
                <path d="M40.862,56.589 C40.862,57.14 41.309,57.588 41.861,57.588 C42.413,57.588 42.86,57.14 42.86,56.589 C42.86,56.037 42.413,55.589 41.861,55.589 C41.309,55.589 40.862,56.037 40.862,56.589" id="Fill-79" fill="#009245" sketch:type="MSShapeGroup"></path>
                <path d="M36.791,56.589 C36.791,57.14 37.238,57.588 37.79,57.588 C38.342,57.588 38.789,57.14 38.789,56.589 C38.789,56.037 38.342,55.589 37.79,55.589 C37.238,55.589 36.791,56.037 36.791,56.589" id="Fill-80" fill="#009245" sketch:type="MSShapeGroup"></path>
                <path d="M32.72,56.589 C32.72,57.14 33.167,57.588 33.719,57.588 C34.271,57.588 34.718,57.14 34.718,56.589 C34.718,56.037 34.271,55.589 33.719,55.589 C33.167,55.589 32.72,56.037 32.72,56.589" id="Fill-81" fill="#009245" sketch:type="MSShapeGroup"></path>
                <path d="M28.649,56.589 C28.649,57.14 29.096,57.588 29.648,57.588 C30.2,57.588 30.647,57.14 30.647,56.589 C30.647,56.037 30.2,55.589 29.648,55.589 C29.096,55.589 28.649,56.037 28.649,56.589" id="Fill-82" fill="#009245" sketch:type="MSShapeGroup"></path>
                <path d="M24.578,56.589 C24.578,57.14 25.026,57.588 25.577,57.588 C26.129,57.588 26.577,57.14 26.577,56.589 C26.577,56.037 26.129,55.589 25.577,55.589 C25.026,55.589 24.578,56.037 24.578,56.589" id="Fill-83" fill="#009245" sketch:type="MSShapeGroup"></path>
                <path d="M63.907,8.652 L72.659,8.652 L72.659,52.34 L63.907,52.34 M64.517,30.496 L73.066,30.496" id="Stroke-84" stroke="#009245" stroke-width="3" sketch:type="MSShapeGroup"></path>
            </g>
        </g>
    </g>
</svg>