<?xml version="1.0" encoding="utf-8"?>
<!-- Generator: Adobe Illustrator 18.1.0, SVG Export Plug-In . SVG Version: 6.00 Build 0)  -->
<svg version="1.1" id="Layer_1" xmlns="http://www.w3.org/2000/svg" xmlns:xlink="http://www.w3.org/1999/xlink" x="0px" y="0px"
	 viewBox="0 0 100 100" enable-background="new 0 0 100 100" xml:space="preserve">
<path fill="#009245" d="M42,83.2H8.5c-0.5,0-1-0.1-1.5-0.2c1,0.8,2.2,1.2,3.5,1.2h31.5v-0.7C41.9,83.4,42,83.3,42,83.2z"/>
<path fill="#009245" d="M82.2,9.7v67.8c0,3.2-2.6,5.8-5.8,5.8H44.9c0,0.1,0,0.2,0,0.3v0.7h33.5c3.2,0,5.8-2.6,5.8-5.8V10.7
	c0-2.7-1.8-4.9-4.2-5.6C81.3,6.2,82.2,7.8,82.2,9.7z"/>
<path fill="#009245" d="M42,83.2c0.1-0.7,0.7-1.2,1.5-1.2s1.3,0.5,1.5,1.2h31.5c3.2,0,5.8-2.6,5.8-5.8V9.7c0-1.9-0.9-3.5-2.2-4.6
	c-1-0.8-2.2-1.2-3.5-1.2h-68c-3.2,0-5.8,2.6-5.8,5.8v67.8c0,2.7,1.8,4.9,4.2,5.6c0.5,0.1,1,0.2,1.5,0.2H42z M79.2,9.7v67.8
	c0,1.5-1.2,2.8-2.8,2.8h-68c-1.5,0-2.8-1.2-2.8-2.8V9.7c0-1.5,1.2-2.8,2.8-2.8h68C78,6.9,79.2,8.1,79.2,9.7z"/>
<path fill="#009245" d="M18.6,18c-2.1,0-3.8,1.7-3.8,3.8c0,2.1,1.7,3.8,3.8,3.8s3.8-1.7,3.8-3.8C22.3,19.7,20.6,18,18.6,18z
	 M18.6,23c-0.7,0-1.3-0.6-1.3-1.3s0.6-1.3,1.3-1.3s1.3,0.6,1.3,1.3S19.3,23,18.6,23z"/>
<path fill="#009245" d="M26.7,18c-2.1,0-3.8,1.7-3.8,3.8c0,2.1,1.7,3.8,3.8,3.8s3.8-1.7,3.8-3.8C30.5,19.7,28.8,18,26.7,18z
	 M26.7,23c-0.7,0-1.3-0.6-1.3-1.3s0.6-1.3,1.3-1.3s1.3,0.6,1.3,1.3S27.4,23,26.7,23z"/>
<path fill="#009245" d="M18.6,40c-2.1,0-3.8,1.7-3.8,3.8s1.7,3.8,3.8,3.8s3.8-1.7,3.8-3.8S20.6,40,18.6,40z M18.6,45
	c-0.7,0-1.3-0.6-1.3-1.3s0.6-1.3,1.3-1.3s1.3,0.6,1.3,1.3S19.3,45,18.6,45z"/>
<path fill="#009245" d="M26.7,40c-2.1,0-3.8,1.7-3.8,3.8s1.7,3.8,3.8,3.8s3.8-1.7,3.8-3.8S28.8,40,26.7,40z M26.7,45
	c-0.7,0-1.3-0.6-1.3-1.3s0.6-1.3,1.3-1.3S28,43,28,43.7S27.4,45,26.7,45z"/>
<path fill="#009245" d="M18.6,61.5c-2.1,0-3.8,1.7-3.8,3.8s1.7,3.8,3.8,3.8s3.8-1.7,3.8-3.8S20.6,61.5,18.6,61.5z M18.6,66.5
	c-0.7,0-1.3-0.6-1.3-1.3s0.6-1.3,1.3-1.3s1.3,0.6,1.3,1.3S19.3,66.5,18.6,66.5z"/>
<path fill="#009245" d="M26.7,61.5c-2.1,0-3.8,1.7-3.8,3.8s1.7,3.8,3.8,3.8s3.8-1.7,3.8-3.8S28.8,61.5,26.7,61.5z M26.7,66.5
	c-0.7,0-1.3-0.6-1.3-1.3S26,64,26.7,64s1.3,0.6,1.3,1.3S27.4,66.5,26.7,66.5z"/>
<circle fill="#009245" cx="67.9" cy="18" r="1"/>
<circle fill="#009245" cx="63.9" cy="18" r="1"/>
<circle fill="#009245" cx="59.8" cy="18" r="1"/>
<circle fill="#009245" cx="55.7" cy="18" r="1"/>
<circle fill="#009245" cx="51.7" cy="18" r="1"/>
<circle fill="#009245" cx="47.6" cy="18" r="1"/>
<circle fill="#009245" cx="43.5" cy="18" r="1"/>
<circle fill="#009245" cx="39.4" cy="18" r="1"/>
<circle fill="#009245" cx="35.4" cy="18" r="1"/>
<circle fill="#009245" cx="67.9" cy="22" r="1"/>
<circle fill="#009245" cx="63.9" cy="22" r="1"/>
<circle fill="#009245" cx="59.8" cy="22" r="1"/>
<circle fill="#009245" cx="55.7" cy="22" r="1"/>
<circle fill="#009245" cx="51.7" cy="22" r="1"/>
<circle fill="#009245" cx="47.6" cy="22" r="1"/>
<circle fill="#009245" cx="43.5" cy="22" r="1"/>
<circle fill="#009245" cx="39.4" cy="22" r="1"/>
<circle fill="#009245" cx="35.4" cy="22" r="1"/>
<circle fill="#009245" cx="67.9" cy="26.1" r="1"/>
<circle fill="#009245" cx="63.9" cy="26.1" r="1"/>
<circle fill="#009245" cx="59.8" cy="26.1" r="1"/>
<circle fill="#009245" cx="55.7" cy="26.1" r="1"/>
<circle fill="#009245" cx="51.7" cy="26.1" r="1"/>
<circle fill="#009245" cx="47.6" cy="26.1" r="1"/>
<circle fill="#009245" cx="43.5" cy="26.1" r="1"/>
<circle fill="#009245" cx="39.4" cy="26.1" r="1"/>
<circle fill="#009245" cx="35.4" cy="26.1" r="1"/>
<path fill="#009245" d="M71.4,12H13.6c-2.2,0-4.1,1.8-4.1,4.1v11.9c0,2.2,1.8,4.1,4.1,4.1h57.9c2.2,0,4.1-1.8,4.1-4.1V16.1
	C75.5,13.8,73.7,12,71.4,12z M72.5,27.9c0,0.6-0.5,1.1-1.1,1.1H13.6c-0.6,0-1.1-0.5-1.1-1.1V16.1c0-0.6,0.5-1.1,1.1-1.1h57.9
	c0.6,0,1.1,0.5,1.1,1.1V27.9z"/>
<path fill="#009245" d="M71.4,34H13.6c-2.2,0-4.1,1.8-4.1,4.1v11.9c0,2.2,1.8,4.1,4.1,4.1h57.9c2.2,0,4.1-1.8,4.1-4.1V38.1
	C75.5,35.8,73.7,34,71.4,34z M72.5,49.9c0,0.6-0.5,1.1-1.1,1.1H13.6c-0.6,0-1.1-0.5-1.1-1.1V38.1c0-0.6,0.5-1.1,1.1-1.1h57.9
	c0.6,0,1.1,0.5,1.1,1.1V49.9z"/>
<path fill="#009245" d="M71.4,56H13.6c-2.2,0-4.1,1.8-4.1,4.1v11.9c0,2.2,1.8,4.1,4.1,4.1h57.9c2.2,0,4.1-1.8,4.1-4.1V60.1
	C75.5,57.8,73.7,56,71.4,56z M72.5,71.9c0,0.6-0.5,1.1-1.1,1.1H13.6c-0.6,0-1.1-0.5-1.1-1.1V60.1c0-0.6,0.5-1.1,1.1-1.1h57.9
	c0.6,0,1.1,0.5,1.1,1.1V71.9z"/>
<circle fill="#009245" cx="67.9" cy="39.5" r="1"/>
<circle fill="#009245" cx="63.9" cy="39.5" r="1"/>
<circle fill="#009245" cx="59.8" cy="39.5" r="1"/>
<circle fill="#009245" cx="55.7" cy="39.5" r="1"/>
<circle fill="#009245" cx="51.7" cy="39.5" r="1"/>
<circle fill="#009245" cx="47.6" cy="39.5" r="1"/>
<circle fill="#009245" cx="43.5" cy="39.5" r="1"/>
<circle fill="#009245" cx="39.4" cy="39.5" r="1"/>
<circle fill="#009245" cx="35.4" cy="39.5" r="1"/>
<circle fill="#009245" cx="67.9" cy="43.6" r="1"/>
<circle fill="#009245" cx="63.9" cy="43.6" r="1"/>
<circle fill="#009245" cx="59.8" cy="43.6" r="1"/>
<circle fill="#009245" cx="55.7" cy="43.6" r="1"/>
<circle fill="#009245" cx="51.7" cy="43.6" r="1"/>
<circle fill="#009245" cx="47.6" cy="43.6" r="1"/>
<circle fill="#009245" cx="43.5" cy="43.6" r="1"/>
<circle fill="#009245" cx="39.4" cy="43.6" r="1"/>
<circle fill="#009245" cx="35.4" cy="43.6" r="1"/>
<circle fill="#009245" cx="67.9" cy="47.6" r="1"/>
<circle fill="#009245" cx="63.9" cy="47.6" r="1"/>
<circle fill="#009245" cx="59.8" cy="47.6" r="1"/>
<circle fill="#009245" cx="55.7" cy="47.6" r="1"/>
<circle fill="#009245" cx="51.7" cy="47.6" r="1"/>
<circle fill="#009245" cx="47.6" cy="47.6" r="1"/>
<circle fill="#009245" cx="43.5" cy="47.6" r="1"/>
<circle fill="#009245" cx="39.4" cy="47.6" r="1"/>
<circle fill="#009245" cx="35.4" cy="47.6" r="1"/>
<circle fill="#009245" cx="67.9" cy="61.4" r="1"/>
<circle fill="#009245" cx="63.9" cy="61.4" r="1"/>
<circle fill="#009245" cx="59.8" cy="61.4" r="1"/>
<circle fill="#009245" cx="55.7" cy="61.4" r="1"/>
<circle fill="#009245" cx="51.7" cy="61.4" r="1"/>
<circle fill="#009245" cx="47.6" cy="61.4" r="1"/>
<circle fill="#009245" cx="43.5" cy="61.4" r="1"/>
<circle fill="#009245" cx="39.4" cy="61.4" r="1"/>
<circle fill="#009245" cx="35.4" cy="61.4" r="1"/>
<circle fill="#009245" cx="67.9" cy="65.5" r="1"/>
<circle fill="#009245" cx="63.9" cy="65.5" r="1"/>
<circle fill="#009245" cx="59.8" cy="65.5" r="1"/>
<circle fill="#009245" cx="55.7" cy="65.5" r="1"/>
<circle fill="#009245" cx="51.7" cy="65.5" r="1"/>
<circle fill="#009245" cx="47.6" cy="65.5" r="1"/>
<circle fill="#009245" cx="43.5" cy="65.5" r="1"/>
<circle fill="#009245" cx="39.4" cy="65.5" r="1"/>
<circle fill="#009245" cx="35.4" cy="65.5" r="1"/>
<circle fill="#009245" cx="67.9" cy="69.6" r="1"/>
<circle fill="#009245" cx="63.9" cy="69.6" r="1"/>
<circle fill="#009245" cx="59.8" cy="69.6" r="1"/>
<circle fill="#009245" cx="55.7" cy="69.6" r="1"/>
<circle fill="#009245" cx="51.7" cy="69.6" r="1"/>
<circle fill="#009245" cx="47.6" cy="69.6" r="1"/>
<circle fill="#009245" cx="43.5" cy="69.6" r="1"/>
<circle fill="#009245" cx="39.4" cy="69.6" r="1"/>
<circle fill="#009245" cx="35.4" cy="69.6" r="1"/>
<path fill="#009245" d="M95.8,45.1h1.4c0.8,0,1.5-0.7,1.5-1.5s-0.7-1.5-1.5-1.5h-1.4c-2.7,0-4.9,2.2-4.9,4.9v6.6
	c0-0.8,0.7-1.5,1.5-1.5h1.5v-5.1C93.9,45.9,94.8,45.1,95.8,45.1z"/>
<path fill="#009245" d="M90.9,83.4v8.2c0,1-0.8,1.9-1.9,1.9H46.8c-1,0-1.9-0.8-1.9-1.9v-7.4v-0.7c0-0.1,0-0.2,0-0.3
	c-0.1-0.7-0.7-1.2-1.5-1.2s-1.3,0.5-1.5,1.2c0,0.1,0,0.2,0,0.3v0.7v7.4c0,2.7,2.2,4.9,4.9,4.9h42.2c2.7,0,4.9-2.2,4.9-4.9v-6.7h-1.5
	C91.6,84.9,90.9,84.2,90.9,83.4z"/>
<path fill="#009245" d="M90.9,73.4v10c0-0.8,0.7-1.5,1.5-1.5h1.5v-7h-1.5C91.6,74.9,90.9,74.2,90.9,73.4z"/>
<path fill="#009245" d="M90.9,63.5v10c0-0.8,0.7-1.5,1.5-1.5h1.5v-7h-1.5C91.6,65,90.9,64.3,90.9,63.5z"/>
<path fill="#009245" d="M90.9,53.5v10c0-0.8,0.7-1.5,1.5-1.5h1.5v-7h-1.5C91.6,55,90.9,54.3,90.9,53.5z"/>
<path fill="#009245" d="M90.9,53.5c0,0.8,0.7,1.5,1.5,1.5h1.5h3.3c0.8,0,1.5-0.7,1.5-1.5S98.1,52,97.2,52h-3.3h-1.5
	C91.6,52,90.9,52.7,90.9,53.5z"/>
<path fill="#009245" d="M90.9,63.5c0,0.8,0.7,1.5,1.5,1.5h1.5h3.3c0.8,0,1.5-0.7,1.5-1.5S98.1,62,97.2,62h-3.3h-1.5
	C91.6,62,90.9,62.6,90.9,63.5z"/>
<path fill="#009245" d="M90.9,73.4c0,0.8,0.7,1.5,1.5,1.5h1.5h3.3c0.8,0,1.5-0.7,1.5-1.5s-0.7-1.5-1.5-1.5h-3.3h-1.5
	C91.6,71.9,90.9,72.6,90.9,73.4z"/>
<path fill="#009245" d="M90.9,83.4c0,0.8,0.7,1.5,1.5,1.5h1.5h3.3c0.8,0,1.5-0.7,1.5-1.5s-0.7-1.5-1.5-1.5h-3.3h-1.5
	C91.6,81.9,90.9,82.5,90.9,83.4z"/>
</svg>
