<?xml version="1.0" encoding="UTF-8" standalone="no"?>
<svg width="70px" height="52px" viewBox="0 0 70 52" version="1.1" xmlns="http://www.w3.org/2000/svg" xmlns:xlink="http://www.w3.org/1999/xlink" xmlns:sketch="http://www.bohemiancoding.com/sketch/ns">
    <!-- Generator: Sketch 3.2.2 (9983) - http://www.bohemiancoding.com/sketch -->
    <title>Imported Layers</title>
    <desc>Created with Sketch.</desc>
    <defs></defs>
    <g id="Page-1" stroke="none" stroke-width="1" fill="none" fill-rule="evenodd" sketch:type="MSPage">
        <g id="CLC_KB_Home_3a" sketch:type="MSArtboardGroup" transform="translate(-674.000000, -802.000000)">
            <g id="Imported-Layers" sketch:type="MSLayerGroup" transform="translate(676.000000, 804.000000)">
                <path d="M0.128,0.238 L65.872,0.238 L65.872,47.763 L0.128,47.763 L0.128,0.238 Z" id="Stroke-1" stroke="#009245" stroke-width="3" stroke-linecap="round" stroke-linejoin="round" sketch:type="MSShapeGroup"></path>
                <path d="M59.902,9.851 C59.902,12.598 57.675,14.825 54.928,14.825 C52.182,14.825 49.955,12.598 49.955,9.851 C49.955,7.104 52.182,4.877 54.928,4.877 C57.675,4.877 59.902,7.104 59.902,9.851 L59.902,9.851 Z" id="Fill-2" fill="#009245" sketch:type="MSShapeGroup"></path>
                <path d="M59.902,9.851 C59.902,12.598 57.675,14.825 54.928,14.825 C52.182,14.825 49.955,12.598 49.955,9.851 C49.955,7.104 52.182,4.877 54.928,4.877 C57.675,4.877 59.902,7.104 59.902,9.851 L59.902,9.851 Z" id="Stroke-3" stroke="#009245" stroke-width="3" stroke-linecap="round" stroke-linejoin="round" sketch:type="MSShapeGroup"></path>
                <path d="M59.902,24.112 C59.902,26.859 57.675,29.085 54.928,29.085 C52.182,29.085 49.955,26.859 49.955,24.112 C49.955,21.365 52.182,19.138 54.928,19.138 C57.675,19.138 59.902,21.365 59.902,24.112 L59.902,24.112 Z" id="Fill-4" fill="#009245" sketch:type="MSShapeGroup"></path>
                <path d="M59.902,24.112 C59.902,26.859 57.675,29.085 54.928,29.085 C52.182,29.085 49.955,26.859 49.955,24.112 C49.955,21.365 52.182,19.138 54.928,19.138 C57.675,19.138 59.902,21.365 59.902,24.112 L59.902,24.112 Z" id="Stroke-5" stroke="#009245" stroke-width="3" stroke-linecap="round" stroke-linejoin="round" sketch:type="MSShapeGroup"></path>
                <path d="M59.902,38.373 C59.902,41.12 57.675,43.346 54.928,43.346 C52.182,43.346 49.955,41.12 49.955,38.373 C49.955,35.626 52.182,33.399 54.928,33.399 C57.675,33.399 59.902,35.626 59.902,38.373 L59.902,38.373 Z" id="Fill-6" fill="#009245" sketch:type="MSShapeGroup"></path>
                <path d="M59.902,38.373 C59.902,41.12 57.675,43.346 54.928,43.346 C52.182,43.346 49.955,41.12 49.955,38.373 C49.955,35.626 52.182,33.399 54.928,33.399 C57.675,33.399 59.902,35.626 59.902,38.373 L59.902,38.373 Z" id="Stroke-7" stroke="#009245" stroke-width="3" stroke-linecap="round" stroke-linejoin="round" sketch:type="MSShapeGroup"></path>
                <path d="M10.207,28.06 C10.207,28.879 9.543,29.543 8.725,29.543 C7.906,29.543 7.242,28.879 7.242,28.06 L7.242,8.479 C7.242,7.661 7.906,6.997 8.725,6.997 C9.543,6.997 10.207,7.661 10.207,8.479 L10.207,28.06" id="Fill-8" fill="#009245" sketch:type="MSShapeGroup"></path>
                <path d="M19.975,28.06 C19.975,28.879 19.311,29.543 18.493,29.543 C17.674,29.543 17.011,28.879 17.011,28.06 L17.011,8.479 C17.011,7.661 17.674,6.997 18.493,6.997 C19.311,6.997 19.975,7.661 19.975,8.479 L19.975,28.06" id="Fill-9" fill="#009245" sketch:type="MSShapeGroup"></path>
                <path d="M29.743,28.06 C29.743,28.879 29.08,29.543 28.261,29.543 C27.442,29.543 26.779,28.879 26.779,28.06 L26.779,8.479 C26.779,7.661 27.442,6.997 28.261,6.997 C29.08,6.997 29.743,7.661 29.743,8.479 L29.743,28.06" id="Fill-10" fill="#009245" sketch:type="MSShapeGroup"></path>
                <path d="M39.511,28.06 C39.511,28.879 38.848,29.543 38.029,29.543 C37.211,29.543 36.547,28.879 36.547,28.06 L36.547,8.479 C36.547,7.661 37.211,6.997 38.029,6.997 C38.848,6.997 39.511,7.661 39.511,8.479 L39.511,28.06" id="Fill-11" fill="#009245" sketch:type="MSShapeGroup"></path>
                <path d="M4.805,36.194 L41.893,36.194 M4.805,40.964 L41.893,40.964" id="Stroke-12" stroke="#009245" stroke-width="3" stroke-linecap="round" stroke-linejoin="round" sketch:type="MSShapeGroup"></path>
                <path d="M5.266,13.216 L12.183,13.216 L12.183,16.941 L5.266,16.941 L5.266,13.216 Z" id="Fill-13" fill="#FFFFFF" sketch:type="MSShapeGroup"></path>
                <path d="M5.266,13.216 L12.183,13.216 L12.183,16.941 L5.266,16.941 L5.266,13.216 Z" id="Stroke-14" stroke="#009245" stroke-width="2.5" stroke-linecap="round" stroke-linejoin="round" sketch:type="MSShapeGroup"></path>
                <path d="M15.032,23.408 L21.949,23.408 L21.949,27.133 L15.032,27.133 L15.032,23.408 Z" id="Fill-15" fill="#FFFFFF" sketch:type="MSShapeGroup"></path>
                <path d="M15.032,23.408 L21.949,23.408 L21.949,27.133 L15.032,27.133 L15.032,23.408 Z" id="Stroke-16" stroke="#009245" stroke-width="2.5" stroke-linecap="round" stroke-linejoin="round" sketch:type="MSShapeGroup"></path>
                <path d="M24.798,10.365 L31.715,10.365 L31.715,14.09 L24.798,14.09 L24.798,10.365 Z" id="Fill-17" fill="#FFFFFF" sketch:type="MSShapeGroup"></path>
                <path d="M24.798,10.365 L31.715,10.365 L31.715,14.09 L24.798,14.09 L24.798,10.365 Z" id="Stroke-18" stroke="#009245" stroke-width="2.5" stroke-linecap="round" stroke-linejoin="round" sketch:type="MSShapeGroup"></path>
                <path d="M34.571,17.084 L41.488,17.084 L41.488,20.809 L34.571,20.809 L34.571,17.084 Z" id="Fill-19" fill="#FFFFFF" sketch:type="MSShapeGroup"></path>
                <path d="M34.571,17.084 L41.488,17.084 L41.488,20.809 L34.571,20.809 L34.571,17.084 Z" id="Stroke-20" stroke="#009245" stroke-width="2.5" stroke-linecap="round" stroke-linejoin="round" sketch:type="MSShapeGroup"></path>
            </g>
        </g>
    </g>
</svg>