<?xml version="1.0" encoding="utf-8"?>
<!-- Generator: Adobe Illustrator 18.1.0, SVG Export Plug-In . SVG Version: 6.00 Build 0)  -->
<svg version="1.1" id="Layer_1" xmlns="http://www.w3.org/2000/svg" xmlns:xlink="http://www.w3.org/1999/xlink" x="0px" y="0px"
	 viewBox="0 0 96 92.6" enable-background="new 0 0 96 92.6" xml:space="preserve">
<g>
	<g>
		<path fill="#009245" d="M15.8,14.4c-2.1,0-3.8,1.7-3.8,3.8c0,2.1,1.7,3.8,3.8,3.8s3.8-1.7,3.8-3.8C19.6,16,17.9,14.4,15.8,14.4z
			 M15.8,19.4c-0.7,0-1.3-0.6-1.3-1.3s0.6-1.3,1.3-1.3s1.3,0.6,1.3,1.3S16.5,19.4,15.8,19.4z"/>
		<path fill="#009245" d="M24,14.4c-2.1,0-3.8,1.7-3.8,3.8c0,2.1,1.7,3.8,3.8,3.8s3.8-1.7,3.8-3.8C27.7,16,26,14.4,24,14.4z
			 M24,19.4c-0.7,0-1.3-0.6-1.3-1.3s0.6-1.3,1.3-1.3s1.3,0.6,1.3,1.3S24.6,19.4,24,19.4z"/>
		<circle fill="#009245" cx="65.2" cy="14.1" r="1"/>
		<circle fill="#009245" cx="61.1" cy="14.1" r="1"/>
		<circle fill="#009245" cx="57.1" cy="14.1" r="1"/>
		<circle fill="#009245" cx="53" cy="14.1" r="1"/>
		<circle fill="#009245" cx="48.9" cy="14.1" r="1"/>
		<circle fill="#009245" cx="44.9" cy="14.1" r="1"/>
		<circle fill="#009245" cx="40.8" cy="14.1" r="1"/>
		<circle fill="#009245" cx="36.7" cy="14.1" r="1"/>
		<circle fill="#009245" cx="32.6" cy="14.1" r="1"/>
		<circle fill="#009245" cx="65.2" cy="18.1" r="1"/>
		<circle fill="#009245" cx="61.1" cy="18.1" r="1"/>
		<circle fill="#009245" cx="57.1" cy="18.1" r="1"/>
		<circle fill="#009245" cx="53" cy="18.1" r="1"/>
		<circle fill="#009245" cx="48.9" cy="18.1" r="1"/>
		<circle fill="#009245" cx="44.9" cy="18.1" r="1"/>
		<circle fill="#009245" cx="40.8" cy="18.1" r="1"/>
		<circle fill="#009245" cx="36.7" cy="18.1" r="1"/>
		<circle fill="#009245" cx="32.6" cy="18.1" r="1"/>
		<circle fill="#009245" cx="65.2" cy="22.2" r="1"/>
		<circle fill="#009245" cx="61.1" cy="22.2" r="1"/>
		<circle fill="#009245" cx="57.1" cy="22.2" r="1"/>
		<circle fill="#009245" cx="53" cy="22.2" r="1"/>
		<circle fill="#009245" cx="48.9" cy="22.2" r="1"/>
		<circle fill="#009245" cx="44.9" cy="22.2" r="1"/>
		<circle fill="#009245" cx="40.8" cy="22.2" r="1"/>
		<circle fill="#009245" cx="36.7" cy="22.2" r="1"/>
		<circle fill="#009245" cx="32.6" cy="22.2" r="1"/>
		<path fill="#009245" d="M68.7,8.1H10.8c-2.2,0-4.1,1.8-4.1,4.1v11.9c0,2.2,1.8,4.1,4.1,4.1h57.9c2.2,0,4.1-1.8,4.1-4.1V12.2
			C72.8,9.9,71,8.1,68.7,8.1z M69.8,24.1c0,0.6-0.5,1.1-1.1,1.1H10.8c-0.6,0-1.1-0.5-1.1-1.1V12.2c0-0.6,0.5-1.1,1.1-1.1h57.9
			c0.6,0,1.1,0.5,1.1,1.1V24.1z"/>
	</g>
	<path fill="#009245" d="M15.8,36.4c-2.1,0-3.8,1.7-3.8,3.8c0,2.1,1.7,3.8,3.8,3.8s3.8-1.7,3.8-3.8C19.6,38,17.9,36.4,15.8,36.4z
		 M15.8,41.4c-0.7,0-1.3-0.6-1.3-1.3s0.6-1.3,1.3-1.3s1.3,0.6,1.3,1.3S16.5,41.4,15.8,41.4z"/>
	<path fill="#009245" d="M24,36.4c-2.1,0-3.8,1.7-3.8,3.8c0,2.1,1.7,3.8,3.8,3.8s3.8-1.7,3.8-3.8C27.7,38,26,36.4,24,36.4z M24,41.4
		c-0.7,0-1.3-0.6-1.3-1.3s0.6-1.3,1.3-1.3s1.3,0.6,1.3,1.3S24.6,41.4,24,41.4z"/>
	<circle fill="#009245" cx="65.2" cy="36.1" r="1"/>
	<circle fill="#009245" cx="61.1" cy="36.1" r="1"/>
	<circle fill="#009245" cx="57.1" cy="36.1" r="1"/>
	<circle fill="#009245" cx="53" cy="36.1" r="1"/>
	<circle fill="#009245" cx="48.9" cy="36.1" r="1"/>
	<circle fill="#009245" cx="44.9" cy="36.1" r="1"/>
	<circle fill="#009245" cx="40.8" cy="36.1" r="1"/>
	<circle fill="#009245" cx="36.7" cy="36.1" r="1"/>
	<circle fill="#009245" cx="32.6" cy="36.1" r="1"/>
	<circle fill="#009245" cx="65.2" cy="40.1" r="1"/>
	<circle fill="#009245" cx="61.1" cy="40.1" r="1"/>
	<circle fill="#009245" cx="57.1" cy="40.1" r="1"/>
	<circle fill="#009245" cx="53" cy="40.1" r="1"/>
	<circle fill="#009245" cx="48.9" cy="40.1" r="1"/>
	<circle fill="#009245" cx="44.9" cy="40.1" r="1"/>
	<circle fill="#009245" cx="40.8" cy="40.1" r="1"/>
	<circle fill="#009245" cx="36.7" cy="40.1" r="1"/>
	<circle fill="#009245" cx="32.6" cy="40.1" r="1"/>
	<circle fill="#009245" cx="65.2" cy="44.2" r="1"/>
	<circle fill="#009245" cx="61.1" cy="44.2" r="1"/>
	<circle fill="#009245" cx="57.1" cy="44.2" r="1"/>
	<circle fill="#009245" cx="53" cy="44.2" r="1"/>
	<circle fill="#009245" cx="48.9" cy="44.2" r="1"/>
	<circle fill="#009245" cx="44.9" cy="44.2" r="1"/>
	<circle fill="#009245" cx="40.8" cy="44.2" r="1"/>
	<circle fill="#009245" cx="36.7" cy="44.2" r="1"/>
	<circle fill="#009245" cx="32.6" cy="44.2" r="1"/>
	<path fill="#009245" d="M68.7,30.1H10.8c-2.2,0-4.1,1.8-4.1,4.1v11.9c0,2.2,1.8,4.1,4.1,4.1h57.9c2.2,0,4.1-1.8,4.1-4.1V34.2
		C72.8,31.9,71,30.1,68.7,30.1z M69.8,46.1c0,0.6-0.5,1.1-1.1,1.1H10.8c-0.6,0-1.1-0.5-1.1-1.1V34.2c0-0.6,0.5-1.1,1.1-1.1h57.9
		c0.6,0,1.1,0.5,1.1,1.1V46.1z"/>
	<path fill="#009245" d="M15.8,58.4c-2.1,0-3.8,1.7-3.8,3.8c0,2.1,1.7,3.8,3.8,3.8s3.8-1.7,3.8-3.8C19.6,60,17.9,58.4,15.8,58.4z
		 M15.8,63.4c-0.7,0-1.3-0.6-1.3-1.3s0.6-1.3,1.3-1.3s1.3,0.6,1.3,1.3S16.5,63.4,15.8,63.4z"/>
	<path fill="#009245" d="M24,58.4c-2.1,0-3.8,1.7-3.8,3.8c0,2.1,1.7,3.8,3.8,3.8s3.8-1.7,3.8-3.8C27.7,60,26,58.4,24,58.4z M24,63.4
		c-0.7,0-1.3-0.6-1.3-1.3s0.6-1.3,1.3-1.3s1.3,0.6,1.3,1.3S24.6,63.4,24,63.4z"/>
	<circle fill="#009245" cx="65.2" cy="58.1" r="1"/>
	<circle fill="#009245" cx="61.1" cy="58.1" r="1"/>
	<circle fill="#009245" cx="57.1" cy="58.1" r="1"/>
	<circle fill="#009245" cx="53" cy="58.1" r="1"/>
	<circle fill="#009245" cx="48.9" cy="58.1" r="1"/>
	<circle fill="#009245" cx="44.9" cy="58.1" r="1"/>
	<circle fill="#009245" cx="40.8" cy="58.1" r="1"/>
	<circle fill="#009245" cx="36.7" cy="58.1" r="1"/>
	<circle fill="#009245" cx="32.6" cy="58.1" r="1"/>
	<circle fill="#009245" cx="65.2" cy="62.1" r="1"/>
	<circle fill="#009245" cx="61.1" cy="62.1" r="1"/>
	<circle fill="#009245" cx="57.1" cy="62.1" r="1"/>
	<circle fill="#009245" cx="53" cy="62.1" r="1"/>
	<circle fill="#009245" cx="48.9" cy="62.1" r="1"/>
	<circle fill="#009245" cx="44.9" cy="62.1" r="1"/>
	<circle fill="#009245" cx="40.8" cy="62.1" r="1"/>
	<circle fill="#009245" cx="36.7" cy="62.1" r="1"/>
	<circle fill="#009245" cx="32.6" cy="62.1" r="1"/>
	<circle fill="#009245" cx="65.2" cy="66.2" r="1"/>
	<circle fill="#009245" cx="61.1" cy="66.2" r="1"/>
	<circle fill="#009245" cx="57.1" cy="66.2" r="1"/>
	<circle fill="#009245" cx="53" cy="66.2" r="1"/>
	<circle fill="#009245" cx="48.9" cy="66.2" r="1"/>
	<circle fill="#009245" cx="44.9" cy="66.2" r="1"/>
	<circle fill="#009245" cx="40.8" cy="66.2" r="1"/>
	<circle fill="#009245" cx="36.7" cy="66.2" r="1"/>
	<circle fill="#009245" cx="32.6" cy="66.2" r="1"/>
	<path fill="#009245" d="M68.7,52.1H10.8c-2.2,0-4.1,1.8-4.1,4.1v11.9c0,2.2,1.8,4.1,4.1,4.1h57.9c2.2,0,4.1-1.8,4.1-4.1V56.2
		C72.8,53.9,71,52.1,68.7,52.1z M69.8,68.1c0,0.6-0.5,1.1-1.1,1.1H10.8c-0.6,0-1.1-0.5-1.1-1.1V56.2c0-0.6,0.5-1.1,1.1-1.1h57.9
		c0.6,0,1.1,0.5,1.1,1.1V68.1z"/>
	<path fill="#009245" d="M94.5,51.1c0.8,0,1.5-0.7,1.5-1.5s-0.7-1.5-1.5-1.5h-3.3V43c0-1,0.8-1.9,1.9-1.9h1.4c0.8,0,1.5-0.7,1.5-1.5
		c0-0.8-0.7-1.5-1.5-1.5h-1.4c-2.7,0-4.9,2.2-4.9,4.9v44.7c0,1-0.8,1.9-1.9,1.9H44.1c-1,0-1.9-0.8-1.9-1.9v-7.4h33.5
		c3.2,0,5.8-2.6,5.8-5.8V6.8c0-2.6-1.8-4.9-4.2-5.5c-1-0.8-2.2-1.2-3.5-1.2h-68C2.6,0,0,2.6,0,5.8v67.8c0,2.6,1.8,4.9,4.2,5.6
		c1,0.8,2.2,1.2,3.5,1.2h31.5v7.4c0,2.7,2.2,4.9,4.9,4.9h42.2c2.7,0,4.9-2.2,4.9-4.9V81h3.3c0.8,0,1.5-0.7,1.5-1.5
		c0-0.8-0.7-1.5-1.5-1.5h-3.3v-7h3.3c0.8,0,1.5-0.7,1.5-1.5c0-0.8-0.7-1.5-1.5-1.5h-3.3v-6.9h3.3c0.8,0,1.5-0.7,1.5-1.5
		c0-0.8-0.7-1.5-1.5-1.5h-3.3v-7H94.5z M5.8,76.3c-1.5,0-2.8-1.2-2.8-2.8V5.8C3,4.2,4.2,3,5.8,3h68c1.5,0,2.8,1.2,2.8,2.8v67.8
		c0,1.5-1.2,2.8-2.8,2.8H5.8z"/>
</g>
</svg>
