<?xml version="1.0" encoding="utf-8"?>
<!-- Generator: Adobe Illustrator 18.1.0, SVG Export Plug-In . SVG Version: 6.00 Build 0)  -->
<svg version="1.1" id="Layer_1" xmlns="http://www.w3.org/2000/svg" xmlns:xlink="http://www.w3.org/1999/xlink" x="0px" y="0px"
	 viewBox="0 0 68.7 50.5" enable-background="new 0 0 68.7 50.5" xml:space="preserve">
<path fill="none" d="M3,47.5h62.7V3H3V47.5z M56.3,6.1c2.7,0,5,2.2,5,5c0,2.7-2.2,5-5,5c-2.7,0-5-2.2-5-5
	C51.3,8.4,53.6,6.1,56.3,6.1z M56.3,20.4c2.7,0,5,2.2,5,5s-2.2,5-5,5c-2.7,0-5-2.2-5-5S53.6,20.4,56.3,20.4z M56.3,34.7
	c2.7,0,5,2.2,5,5c0,2.7-2.2,5-5,5c-2.7,0-5-2.2-5-5C51.3,36.9,53.6,34.7,56.3,34.7z M34.7,18.3c0-0.7,0.6-1.2,1.2-1.2h2V9.7
	c0-0.8,0.7-1.5,1.5-1.5s1.5,0.7,1.5,1.5v7.4h2c0.7,0,1.2,0.6,1.2,1.2v3.7c0,0.7-0.6,1.2-1.2,1.2h-2v6c0,0.8-0.7,1.5-1.5,1.5
	s-1.5-0.7-1.5-1.5v-6h-2c-0.7,0-1.2-0.6-1.2-1.2V18.3z M24.9,11.6c0-0.7,0.6-1.2,1.2-1.2h2V9.7c0-0.8,0.7-1.5,1.5-1.5
	s1.5,0.7,1.5,1.5v0.6h2c0.7,0,1.2,0.6,1.2,1.2v3.7c0,0.7-0.6,1.2-1.2,1.2h-2v12.7c0,0.8-0.7,1.5-1.5,1.5s-1.5-0.7-1.5-1.5V16.6h-2
	c-0.7,0-1.2-0.6-1.2-1.2V11.6z M15.2,24.7c0-0.7,0.6-1.2,1.2-1.2h2V9.7c0-0.8,0.7-1.5,1.5-1.5s1.5,0.7,1.5,1.5v13.7h2
	c0.7,0,1.2,0.6,1.2,1.2v3.7c0,0.7-0.6,1.2-1.2,1.2h-2c-0.1,0.7-0.7,1.2-1.4,1.2s-1.3-0.5-1.4-1.2h-2c-0.7,0-1.2-0.6-1.2-1.2V24.7z
	 M5.4,14.5c0-0.7,0.6-1.2,1.2-1.2h2V9.7c0-0.8,0.7-1.5,1.5-1.5s1.5,0.7,1.5,1.5v3.5h2c0.7,0,1.2,0.6,1.2,1.2v3.7
	c0,0.7-0.6,1.2-1.2,1.2h-2v9.9c0,0.8-0.7,1.5-1.5,1.5s-1.5-0.7-1.5-1.5v-9.9h-2c-0.7,0-1.2-0.6-1.2-1.2V14.5z M6.2,36h37.1
	c0.8,0,1.5,0.7,1.5,1.5S44.1,39,43.3,39H6.2c-0.8,0-1.5-0.7-1.5-1.5S5.3,36,6.2,36z M6.2,40.7h37.1c0.8,0,1.5,0.7,1.5,1.5
	s-0.7,1.5-1.5,1.5H6.2c-0.8,0-1.5-0.7-1.5-1.5S5.3,40.7,6.2,40.7z"/>
<path fill="#0C9ED9" d="M67.2,0H1.5C0.7,0,0,0.7,0,1.5V49c0,0.8,0.7,1.5,1.5,1.5h65.7c0.8,0,1.5-0.7,1.5-1.5V1.5
	C68.7,0.7,68.1,0,67.2,0z M65.7,47.5H3V3h62.7V47.5z"/>
<circle fill="#0C9ED9" cx="56.3" cy="11.1" r="2"/>
<path fill="#0C9ED9" d="M56.3,16.1c2.7,0,5-2.2,5-5c0-2.7-2.2-5-5-5c-2.7,0-5,2.2-5,5C51.3,13.9,53.6,16.1,56.3,16.1z M56.3,9.1
	c1.1,0,2,0.9,2,2c0,1.1-0.9,2-2,2s-2-0.9-2-2C54.3,10,55.2,9.1,56.3,9.1z"/>
<circle fill="#0C9ED9" cx="56.3" cy="25.4" r="2"/>
<path fill="#0C9ED9" d="M56.3,30.3c2.7,0,5-2.2,5-5s-2.2-5-5-5c-2.7,0-5,2.2-5,5S53.6,30.3,56.3,30.3z M56.3,23.4c1.1,0,2,0.9,2,2
	s-0.9,2-2,2s-2-0.9-2-2S55.2,23.4,56.3,23.4z"/>
<circle fill="#0C9ED9" cx="56.3" cy="39.6" r="2"/>
<path fill="#0C9ED9" d="M56.3,44.6c2.7,0,5-2.2,5-5c0-2.7-2.2-5-5-5c-2.7,0-5,2.2-5,5C51.3,42.4,53.6,44.6,56.3,44.6z M56.3,37.7
	c1.1,0,2,0.9,2,2c0,1.1-0.9,2-2,2s-2-0.9-2-2C54.3,38.5,55.2,37.7,56.3,37.7z"/>
<path fill="#0C9ED9" d="M6.2,39h37.1c0.8,0,1.5-0.7,1.5-1.5S44.1,36,43.3,36H6.2c-0.8,0-1.5,0.7-1.5,1.5S5.3,39,6.2,39z"/>
<path fill="#0C9ED9" d="M6.2,43.7h37.1c0.8,0,1.5-0.7,1.5-1.5s-0.7-1.5-1.5-1.5H6.2c-0.8,0-1.5,0.7-1.5,1.5S5.3,43.7,6.2,43.7z"/>
<path fill="#0C9ED9" d="M13.6,13.2h-2V9.7c0-0.8-0.7-1.5-1.5-1.5S8.6,8.9,8.6,9.7v3.5h-2c-0.7,0-1.2,0.6-1.2,1.2v3.7
	c0,0.7,0.6,1.2,1.2,1.2h2v9.9c0,0.8,0.7,1.5,1.5,1.5s1.5-0.7,1.5-1.5v-9.9h2c0.7,0,1.2-0.6,1.2-1.2v-3.7
	C14.8,13.8,14.2,13.2,13.6,13.2z M12.3,17H7.9v-1.2h4.4V17z"/>
<g>
	<path fill="#0C9ED9" d="M23.3,23.4h-2V9.7c0-0.8-0.7-1.5-1.5-1.5s-1.5,0.7-1.5,1.5v13.7h-2c-0.7,0-1.2,0.6-1.2,1.2v3.7
		c0,0.7,0.6,1.2,1.2,1.2h2c0.1,0.7,0.7,1.2,1.4,1.2s1.3-0.5,1.4-1.2h2c0.7,0,1.2-0.6,1.2-1.2v-3.7C24.6,24,24,23.4,23.3,23.4z
		 M22.1,27.1h-4.4v-1.2h4.4V27.1z"/>
</g>
<path fill="#0C9ED9" d="M33.1,10.4h-2V9.7c0-0.8-0.7-1.5-1.5-1.5s-1.5,0.7-1.5,1.5v0.6h-2c-0.7,0-1.2,0.6-1.2,1.2v3.7
	c0,0.7,0.6,1.2,1.2,1.2h2v12.7c0,0.8,0.7,1.5,1.5,1.5s1.5-0.7,1.5-1.5V16.6h2c0.7,0,1.2-0.6,1.2-1.2v-3.7
	C34.3,10.9,33.8,10.4,33.1,10.4z M31.8,14.1h-4.4v-1.2h4.4V14.1z"/>
<path fill="#0C9ED9" d="M42.9,17.1h-2V9.7c0-0.8-0.7-1.5-1.5-1.5s-1.5,0.7-1.5,1.5v7.4h-2c-0.7,0-1.2,0.6-1.2,1.2v3.7
	c0,0.7,0.6,1.2,1.2,1.2h2v6c0,0.8,0.7,1.5,1.5,1.5s1.5-0.7,1.5-1.5v-6h2c0.7,0,1.2-0.6,1.2-1.2v-3.7C44.1,17.7,43.6,17.1,42.9,17.1z
	 M41.6,20.8h-4.4v-1.2h4.4V20.8z"/>
</svg>
