<?xml version="1.0" encoding="UTF-8" standalone="no"?>
<svg width="87px" height="52px" viewBox="0 0 87 52" version="1.1" xmlns="http://www.w3.org/2000/svg" xmlns:xlink="http://www.w3.org/1999/xlink" xmlns:sketch="http://www.bohemiancoding.com/sketch/ns">
    <!-- Generator: Sketch 3.2.2 (9983) - http://www.bohemiancoding.com/sketch -->
    <title>Imported Layers</title>
    <desc>Created with Sketch.</desc>
    <defs></defs>
    <g id="Page-1" stroke="none" stroke-width="1" fill="none" fill-rule="evenodd" sketch:type="MSPage">
        <g id="CLC_KB_Home_3a" sketch:type="MSArtboardGroup" transform="translate(-583.000000, -240.000000)">
            <g id="Imported-Layers" sketch:type="MSLayerGroup" transform="translate(584.000000, 241.000000)">
                <path d="M84.5,29.085 C84.5,33.733 80.733,37.5 76.085,37.5 L10.915,37.5 C6.267,37.5 2.5,33.733 2.5,29.085 L2.5,10.915 C2.5,6.267 6.267,2.5 10.915,2.5 L76.085,2.5 C80.733,2.5 84.5,6.267 84.5,10.915 L84.5,29.085 L84.5,29.085 Z" id="Fill-1" fill="#009245" sketch:type="MSShapeGroup"></path>
                <path d="M84.5,29.085 C84.5,33.733 80.733,37.5 76.085,37.5 L10.915,37.5 C6.267,37.5 2.5,33.733 2.5,29.085 L2.5,10.915 C2.5,6.267 6.267,2.5 10.915,2.5 L76.085,2.5 C80.733,2.5 84.5,6.267 84.5,10.915 L84.5,29.085 L84.5,29.085 Z" id="Stroke-2" stroke="#009245" stroke-width="3" sketch:type="MSShapeGroup"></path>
                <path d="M82.5,27.085 C82.5,31.732 78.733,35.5 74.085,35.5 L8.915,35.5 C4.267,35.5 0.5,31.732 0.5,27.085 L0.5,8.915 C0.5,4.267 4.267,0.5 8.915,0.5 L74.085,0.5 C78.733,0.5 82.5,4.267 82.5,8.915 L82.5,27.085 L82.5,27.085 Z" id="Fill-3" fill="#FFFFFF" sketch:type="MSShapeGroup"></path>
                <path d="M82.5,27.085 C82.5,31.732 78.733,35.5 74.085,35.5 L8.915,35.5 C4.267,35.5 0.5,31.732 0.5,27.085 L0.5,8.915 C0.5,4.267 4.267,0.5 8.915,0.5 L74.085,0.5 C78.733,0.5 82.5,4.267 82.5,8.915 L82.5,27.085 L82.5,27.085 Z" id="Stroke-4" stroke="#009245" stroke-width="3" sketch:type="MSShapeGroup"></path>
                <path d="M53.578,49.049 C53.462,49.049 53.346,49.035 53.232,49.009 C52.845,48.917 52.51,48.675 52.301,48.336 L47.515,40.578 L42.39,43.739 C42.149,43.888 41.876,43.963 41.602,43.963 C41.376,43.963 41.149,43.912 40.939,43.809 C40.476,43.58 40.163,43.13 40.11,42.616 L37.72,19.283 C37.661,18.711 37.935,18.155 38.424,17.854 C38.666,17.704 38.939,17.63 39.212,17.63 C39.492,17.63 39.772,17.708 40.018,17.865 L59.797,30.473 C60.232,30.75 60.495,31.232 60.491,31.748 C60.487,32.265 60.218,32.743 59.778,33.014 L54.485,36.278 L59.271,44.037 C59.706,44.742 59.487,45.666 58.782,46.101 L54.365,48.825 C54.127,48.973 53.854,49.049 53.578,49.049" id="Fill-5" fill="#009245" sketch:type="MSShapeGroup"></path>
                <path d="M39.212,19.13 L58.991,31.737 L52.421,35.789 L57.995,44.825 L53.577,47.549 L48.004,38.514 L41.602,42.463 L39.212,19.13 M39.212,16.13 C38.666,16.13 38.12,16.279 37.637,16.577 C36.658,17.181 36.11,18.292 36.227,19.436 L38.618,42.769 C38.723,43.796 39.35,44.697 40.276,45.154 C40.695,45.36 41.149,45.463 41.602,45.463 C42.15,45.463 42.696,45.313 43.177,45.016 L47.026,42.642 L51.024,49.124 C51.442,49.802 52.111,50.285 52.886,50.469 C53.114,50.523 53.346,50.549 53.577,50.549 C54.129,50.549 54.675,50.397 55.152,50.103 L59.57,47.378 C60.98,46.508 61.418,44.66 60.548,43.25 L56.55,36.768 L60.565,34.291 C61.445,33.748 61.983,32.792 61.991,31.759 C61.998,30.727 61.474,29.763 60.603,29.208 L40.824,16.6 C40.333,16.287 39.772,16.13 39.212,16.13" id="Fill-6" fill="#FFFFFF" sketch:type="MSShapeGroup"></path>
                <path d="M33.977,10.124 L37.066,15.524 M44.306,9.178 L42.599,15.16 M52.105,14.761 L46.968,18.271 M28.17,18.308 L34.178,19.926 M28.942,27.869 L34.595,25.272" id="Stroke-7" stroke="#009245" stroke-width="3" stroke-linecap="round" stroke-linejoin="round" sketch:type="MSShapeGroup"></path>
            </g>
        </g>
    </g>
</svg>