<?xml version="1.0" encoding="utf-8"?>
<!-- Generator: Adobe Illustrator 18.1.0, SVG Export Plug-In . SVG Version: 6.00 Build 0)  -->
<svg version="1.1" id="Layer_1" xmlns="http://www.w3.org/2000/svg" xmlns:xlink="http://www.w3.org/1999/xlink" x="0px" y="0px"
	 viewBox="0 0 200 200" enable-background="new 0 0 200 200" xml:space="preserve">
<g>
	<g>
		<path fill="#009245" d="M90.5,110.8c-1.3,0-2.5-0.5-3.5-1.4c-0.9-0.9-1.4-2.2-1.4-3.6c0-1.3,0.5-2.5,1.4-3.4c0,0,0,0,0.1-0.1
			l0.1-0.1c0,0,0,0,0,0l9.5-9.5c1.2-1.2,2.9-1.9,4.6-2c1.7-0.1,3.3,0.6,4.5,1.8c1.2,1.2,1.8,2.8,1.8,4.5c0,1.7-0.7,3.4-2,4.6
			l-7.5,7.5c-0.3,0.3-0.8,0.3-1.1,0s-0.3-0.8,0-1.1l7.5-7.5c2-2,2.1-5.1,0.2-7c-0.9-0.9-2.2-1.4-3.5-1.4c-1.3,0-2.6,0.6-3.6,1.5
			l-9.5,9.5c0,0,0,0,0,0c-1.4,1.4-1.5,3.7-0.1,5.1c1.4,1.4,3.6,1.3,5.1-0.1l9.5-9.5c0,0,0-0.1,0.1-0.1c0.5-0.5,0.7-1,0.7-1.7
			c0-0.6-0.2-1.2-0.6-1.6c-0.4-0.4-1-0.6-1.6-0.6c-0.6,0-1.2,0.3-1.7,0.7l-6.9,6.9c-0.3,0.3-0.8,0.3-1.1,0s-0.3-0.8,0-1.1l6.9-6.9
			c0.7-0.7,1.7-1.1,2.7-1.2c1,0,2,0.3,2.7,1c0.7,0.7,1.1,1.7,1,2.7c0,1-0.4,1.9-1.1,2.6c0,0-0.1,0.1-0.1,0.1l-9.6,9.6
			C93.1,110.3,91.8,110.8,90.5,110.8z"/>
	</g>
</g>
</svg>
