<?xml version="1.0" encoding="UTF-8" standalone="no"?>
<svg width="63px" height="60px" viewBox="0 0 63 60" version="1.1" xmlns="http://www.w3.org/2000/svg" xmlns:xlink="http://www.w3.org/1999/xlink" xmlns:sketch="http://www.bohemiancoding.com/sketch/ns">
    <!-- Generator: Sketch 3.2.2 (9983) - http://www.bohemiancoding.com/sketch -->
    <title>Imported Layers 5</title>
    <desc>Created with Sketch.</desc>
    <defs></defs>
    <g id="Knowledge-Base" stroke="none" stroke-width="1" fill="none" fill-rule="evenodd" sketch:type="MSPage">
        <g id="CLC_KB_Home_v3" sketch:type="MSArtboardGroup" transform="translate(-594.000000, -2275.000000)" fill="#009245">
            <g id="Group" sketch:type="MSLayerGroup" transform="translate(500.000000, 2275.000000)">
                <path d="M155.374028,28.1730935 L153.879697,27.6535252 C153.457235,12.3336691 140.782504,0 125.262055,0 C109.702504,0 97.0028622,12.3959712 96.6415174,27.7696403 L95.4811588,28.1730935 C94.2580898,28.5984173 93.6747243,29.9146763 94.1845174,31.0981295 L100.330276,45.3635971 C100.775476,46.3969784 102.013462,46.9385612 103.081421,46.5673381 L110.102662,44.1258993 C111.325586,43.7005755 111.909097,42.3843165 111.399304,41.2010072 L105.2534,26.9353957 C104.808345,25.9020144 103.570214,25.3602878 102.5024,25.7316547 L101.081352,26.2257554 C102.211731,13.9579856 112.62411,4.31654676 125.262055,4.31654676 C137.859304,4.31654676 148.245759,13.8956835 149.432186,26.1070504 L148.352786,25.7316547 C147.284828,25.3602878 146.046842,25.9020144 145.601642,26.9353957 L139.455883,41.2010072 C138.94609,42.3843165 139.5296,43.7005755 140.752524,44.1258993 L142.697559,44.8021583 C140.584524,49.432518 137.179048,52.5676259 132.671579,54.1277698 C131.910655,54.391223 131.147704,54.5867626 130.423566,54.7328058 L130.423566,54.4680576 C130.423566,53.8457554 130.026738,53.3860432 129.400359,53.3860432 L121.497407,53.3860432 C120.871028,53.3860432 120.285635,53.8457554 120.285635,54.4680576 L120.285635,58.6025899 C120.285635,59.2247482 120.871028,59.8608633 121.497407,59.8608633 L129.400359,59.8608633 C130.026738,59.8608633 130.423566,59.2247482 130.423566,58.6025899 L130.423566,57.6679137 C131.437359,57.4976978 132.434497,57.2489209 133.497242,56.8889209 C137.2784,55.6076259 142.347945,52.6345324 145.410469,45.7555396 L147.759283,46.5673381 C148.827242,46.9385612 150.072469,46.3969784 150.517669,45.3635971 L156.667048,31.0981295 C157.176842,29.9146763 156.597097,28.5984173 155.374028,28.1730935" id="Imported-Layers-5" sketch:type="MSShapeGroup"></path>
            </g>
        </g>
    </g>
</svg>