<?xml version="1.0" encoding="utf-8"?>
<!-- Generator: Adobe Illustrator 18.1.0, SVG Export Plug-In . SVG Version: 6.00 Build 0)  -->
<svg version="1.1" id="Layer_1" xmlns="http://www.w3.org/2000/svg" xmlns:xlink="http://www.w3.org/1999/xlink" x="0px" y="0px"
	 viewBox="0 0 21.5 23.5" enable-background="new 0 0 21.5 23.5" xml:space="preserve">
<g>
	<g>
		<g>
			<path fill="#009245" d="M17,0H0v23.5h21.5V4.6L17,0z M17.2,2.4l1.9,1.9h-1.9V2.4z M20,22H1.5V1.5h14.2v4.3H20V22z"/>
		</g>
	</g>
	<g>
		<path fill="#009245" d="M15.9,8.7H5.7c-0.4,0-0.8-0.3-0.8-0.8c0-0.4,0.3-0.8,0.8-0.8h10.2c0.4,0,0.8,0.3,0.8,0.8
			C16.6,8.4,16.3,8.7,15.9,8.7z"/>
	</g>
	<g>
		<path fill="#009245" d="M15.9,13.2H5.7c-0.4,0-0.8-0.3-0.8-0.8s0.3-0.8,0.8-0.8h10.2c0.4,0,0.8,0.3,0.8,0.8S16.3,13.2,15.9,13.2z"
			/>
	</g>
	<g>
		<path fill="#009245" d="M15.9,17.7H5.7c-0.4,0-0.8-0.3-0.8-0.8s0.3-0.8,0.8-0.8h10.2c0.4,0,0.8,0.3,0.8,0.8S16.3,17.7,15.9,17.7z"
			/>
	</g>
</g>
</svg>
