<?xml version="1.0" encoding="UTF-8" standalone="no"?>
<svg width="72px" height="70px" viewBox="0 0 72 70" version="1.1" xmlns="http://www.w3.org/2000/svg" xmlns:xlink="http://www.w3.org/1999/xlink" xmlns:sketch="http://www.bohemiancoding.com/sketch/ns">
    <!-- Generator: Sketch 3.2.2 (9983) - http://www.bohemiancoding.com/sketch -->
    <title>Imported Layers</title>
    <desc>Created with Sketch.</desc>
    <defs></defs>
    <g id="Page-1" stroke="none" stroke-width="1" fill="none" fill-rule="evenodd" sketch:type="MSPage">
        <g id="CLC_KB_Home_3a" sketch:type="MSArtboardGroup" transform="translate(-850.000000, -791.000000)">
            <g id="Imported-Layers" sketch:type="MSLayerGroup" transform="translate(852.000000, 792.000000)">
                <path d="M30.7,15.937 C30.7,24.31 23.913,31.097 15.54,31.097 C7.168,31.097 0.381,24.31 0.381,15.937 C0.381,7.565 7.168,0.778 15.54,0.778 C23.913,0.778 30.7,7.565 30.7,15.937 L30.7,15.937 Z" id="Stroke-1" stroke="#009245" stroke-width="3" stroke-linejoin="round" sketch:type="MSShapeGroup"></path>
                <path d="M20.794,15.453 L16.025,15.453 L16.025,10.683 L15.055,10.683 L15.055,15.453 L10.286,15.453 L10.286,16.422 L15.055,16.422 L15.055,21.192 L16.025,21.192 L16.025,16.422 L20.794,16.422 L20.794,15.453 L20.794,15.453 Z" id="Fill-2" fill="#009245" sketch:type="MSShapeGroup"></path>
                <path d="M20.794,15.453 L16.025,15.453 L16.025,10.683 L15.055,10.683 L15.055,15.453 L10.286,15.453 L10.286,16.422 L15.055,16.422 L15.055,21.192 L16.025,21.192 L16.025,16.422 L20.794,16.422 L20.794,15.453 L20.794,15.453 Z" id="Stroke-3" stroke="#009245" stroke-linecap="round" stroke-linejoin="round" sketch:type="MSShapeGroup"></path>
                <path d="M67.62,15.937 C67.62,24.31 60.832,31.097 52.46,31.097 C44.087,31.097 37.3,24.31 37.3,15.937 C37.3,7.565 44.087,0.778 52.46,0.778 C60.832,0.778 67.62,7.565 67.62,15.937 L67.62,15.937 Z" id="Stroke-4" stroke="#009245" stroke-width="3" stroke-linecap="round" stroke-linejoin="round" stroke-dasharray="4.809,5.771" sketch:type="MSShapeGroup"></path>
                <path d="M57.714,15.453 L52.945,15.453 L52.945,10.683 L51.975,10.683 L51.975,15.453 L47.206,15.453 L47.206,16.422 L51.975,16.422 L51.975,21.192 L52.945,21.192 L52.945,16.422 L57.714,16.422 L57.714,15.453 L57.714,15.453 Z" id="Fill-5" fill="#009245" sketch:type="MSShapeGroup"></path>
                <path d="M57.714,15.453 L52.945,15.453 L52.945,10.683 L51.975,10.683 L51.975,15.453 L47.206,15.453 L47.206,16.422 L51.975,16.422 L51.975,21.192 L52.945,21.192 L52.945,16.422 L57.714,16.422 L57.714,15.453 L57.714,15.453 Z" id="Stroke-6" stroke="#009245" stroke-linecap="round" stroke-linejoin="round" sketch:type="MSShapeGroup"></path>
                <path d="M30.7,52.062 C30.7,60.435 23.913,67.222 15.54,67.222 C7.168,67.222 0.381,60.435 0.381,52.062 C0.381,43.69 7.168,36.903 15.54,36.903 C23.913,36.903 30.7,43.69 30.7,52.062 L30.7,52.062 Z" id="Stroke-7" stroke="#009245" stroke-width="3" stroke-linecap="round" stroke-linejoin="round" stroke-dasharray="5,6" sketch:type="MSShapeGroup"></path>
                <path d="M20.794,51.578 L16.025,51.578 L16.025,46.808 L15.055,46.808 L15.055,51.578 L10.286,51.578 L10.286,52.547 L15.055,52.547 L15.055,57.317 L16.025,57.317 L16.025,52.547 L20.794,52.547 L20.794,51.578 L20.794,51.578 Z" id="Fill-8" fill="#009245" sketch:type="MSShapeGroup"></path>
                <path d="M20.794,51.578 L16.025,51.578 L16.025,46.808 L15.055,46.808 L15.055,51.578 L10.286,51.578 L10.286,52.547 L15.055,52.547 L15.055,57.317 L16.025,57.317 L16.025,52.547 L20.794,52.547 L20.794,51.578 L20.794,51.578 Z" id="Stroke-9" stroke="#009245" stroke-linecap="round" stroke-linejoin="round" sketch:type="MSShapeGroup"></path>
                <path d="M67.62,52.062 C67.62,60.435 60.832,67.222 52.46,67.222 C44.087,67.222 37.3,60.435 37.3,52.062 C37.3,43.69 44.087,36.903 52.46,36.903 C60.832,36.903 67.62,43.69 67.62,52.062 L67.62,52.062 Z" id="Stroke-10" stroke="#009245" stroke-width="3" stroke-linecap="round" stroke-linejoin="round" stroke-dasharray="4.809,5.771" sketch:type="MSShapeGroup"></path>
                <path d="M57.714,51.578 L52.945,51.578 L52.945,46.808 L51.975,46.808 L51.975,51.578 L47.206,51.578 L47.206,52.547 L51.975,52.547 L51.975,57.317 L52.945,57.317 L52.945,52.547 L57.714,52.547 L57.714,51.578 L57.714,51.578 Z" id="Fill-11" fill="#009245" sketch:type="MSShapeGroup"></path>
                <path d="M57.714,51.578 L52.945,51.578 L52.945,46.808 L51.975,46.808 L51.975,51.578 L47.206,51.578 L47.206,52.547 L51.975,52.547 L51.975,57.317 L52.945,57.317 L52.945,52.547 L57.714,52.547 L57.714,51.578 L57.714,51.578 Z" id="Stroke-12" stroke="#009245" stroke-linecap="round" stroke-linejoin="round" sketch:type="MSShapeGroup"></path>
            </g>
        </g>
    </g>
</svg>