<?xml version="1.0" encoding="utf-8"?>
<!-- Generator: Adobe Illustrator 18.1.0, SVG Export Plug-In . SVG Version: 6.00 Build 0)  -->
<svg version="1.1" id="Layer_1" xmlns="http://www.w3.org/2000/svg" xmlns:xlink="http://www.w3.org/1999/xlink" x="0px" y="0px"
	 viewBox="0 0 69.7 66.1" enable-background="new 0 0 69.7 66.1" xml:space="preserve">
<g>
	<g>
		<path fill="#0C9ED9" d="M68.4,20h-2.5c-0.7,0-1.2-0.6-1.2-1.2s0.6-1.2,1.2-1.2h1.2v-1.2c0-0.7,0.6-1.2,1.2-1.2s1.2,0.6,1.2,1.2
			v2.5C69.7,19.5,69.1,20,68.4,20z"/>
	</g>
	<g>
		<path fill="#0C9ED9" d="M59.8,20h-5.1c-0.7,0-1.2-0.6-1.2-1.2s0.6-1.2,1.2-1.2h5.1c0.7,0,1.2,0.6,1.2,1.2S60.5,20,59.8,20z
			 M48.6,20h-5.1c-0.7,0-1.2-0.6-1.2-1.2s0.6-1.2,1.2-1.2h5.1c0.7,0,1.2,0.6,1.2,1.2S49.3,20,48.6,20z M37.4,20h-5.1
			c-0.7,0-1.2-0.6-1.2-1.2s0.6-1.2,1.2-1.2h5.1c0.7,0,1.2,0.6,1.2,1.2S38.1,20,37.4,20z M26.2,20h-5.1c-0.7,0-1.2-0.6-1.2-1.2
			s0.6-1.2,1.2-1.2h5.1c0.7,0,1.2,0.6,1.2,1.2S26.9,20,26.2,20z M15,20H9.9c-0.7,0-1.2-0.6-1.2-1.2s0.6-1.2,1.2-1.2H15
			c0.7,0,1.2,0.6,1.2,1.2S15.7,20,15,20z"/>
	</g>
	<g>
		<path fill="#0C9ED9" d="M3.8,20H1.2C0.6,20,0,19.5,0,18.8v-2.5C0,15.6,0.6,15,1.2,15s1.2,0.6,1.2,1.2v1.2h1.2
			c0.7,0,1.2,0.6,1.2,1.2S4.4,20,3.8,20z"/>
	</g>
	<g>
		<path fill="#0C9ED9" d="M1.2,13.1c-0.7,0-1.2-0.6-1.2-1.2V8.2c0-0.7,0.6-1.2,1.2-1.2s1.2,0.6,1.2,1.2v3.7
			C2.5,12.6,1.9,13.1,1.2,13.1z"/>
	</g>
	<g>
		<path fill="#0C9ED9" d="M1.2,5C0.6,5,0,4.4,0,3.8V1.2C0,0.6,0.6,0,1.2,0h2.5C4.4,0,5,0.6,5,1.2S4.4,2.5,3.8,2.5H2.5v1.2
			C2.5,4.4,1.9,5,1.2,5z"/>
	</g>
	<g>
		<path fill="#0C9ED9" d="M59.8,2.5h-5.1c-0.7,0-1.2-0.6-1.2-1.2S54,0,54.7,0h5.1c0.7,0,1.2,0.6,1.2,1.2S60.5,2.5,59.8,2.5z
			 M48.6,2.5h-5.1c-0.7,0-1.2-0.6-1.2-1.2S42.8,0,43.5,0h5.1c0.7,0,1.2,0.6,1.2,1.2S49.3,2.5,48.6,2.5z M37.4,2.5h-5.1
			c-0.7,0-1.2-0.6-1.2-1.2S31.6,0,32.3,0h5.1c0.7,0,1.2,0.6,1.2,1.2S38.1,2.5,37.4,2.5z M26.2,2.5h-5.1c-0.7,0-1.2-0.6-1.2-1.2
			S20.4,0,21.1,0h5.1c0.7,0,1.2,0.6,1.2,1.2S26.9,2.5,26.2,2.5z M15,2.5H9.9c-0.7,0-1.2-0.6-1.2-1.2S9.2,0,9.9,0H15
			c0.7,0,1.2,0.6,1.2,1.2S15.7,2.5,15,2.5z"/>
	</g>
	<g>
		<path fill="#0C9ED9" d="M68.4,5c-0.7,0-1.2-0.6-1.2-1.2V2.5h-1.2c-0.7,0-1.2-0.6-1.2-1.2S65.2,0,65.9,0h2.5c0.7,0,1.2,0.6,1.2,1.2
			v2.5C69.7,4.4,69.1,5,68.4,5z"/>
	</g>
	<g>
		<path fill="#0C9ED9" d="M68.4,13.1c-0.7,0-1.2-0.6-1.2-1.2V8.2c0-0.7,0.6-1.2,1.2-1.2s1.2,0.6,1.2,1.2v3.7
			C69.7,12.6,69.1,13.1,68.4,13.1z"/>
	</g>
</g>
<g>
	<g>
		<path fill="#0C9ED9" d="M68.4,43.1h-2.5c-0.7,0-1.2-0.6-1.2-1.2s0.6-1.2,1.2-1.2h1.2v-1.2c0-0.7,0.6-1.2,1.2-1.2s1.2,0.6,1.2,1.2
			v2.5C69.7,42.5,69.1,43.1,68.4,43.1z"/>
	</g>
	<g>
		<path fill="#0C9ED9" d="M59.8,43.1h-5.1c-0.7,0-1.2-0.6-1.2-1.2s0.6-1.2,1.2-1.2h5.1c0.7,0,1.2,0.6,1.2,1.2S60.5,43.1,59.8,43.1z
			 M48.6,43.1h-5.1c-0.7,0-1.2-0.6-1.2-1.2s0.6-1.2,1.2-1.2h5.1c0.7,0,1.2,0.6,1.2,1.2S49.3,43.1,48.6,43.1z M37.4,43.1h-5.1
			c-0.7,0-1.2-0.6-1.2-1.2s0.6-1.2,1.2-1.2h5.1c0.7,0,1.2,0.6,1.2,1.2S38.1,43.1,37.4,43.1z M26.2,43.1h-5.1c-0.7,0-1.2-0.6-1.2-1.2
			s0.6-1.2,1.2-1.2h5.1c0.7,0,1.2,0.6,1.2,1.2S26.9,43.1,26.2,43.1z M15,43.1H9.9c-0.7,0-1.2-0.6-1.2-1.2s0.6-1.2,1.2-1.2H15
			c0.7,0,1.2,0.6,1.2,1.2S15.7,43.1,15,43.1z"/>
	</g>
	<g>
		<path fill="#0C9ED9" d="M3.8,43.1H1.2c-0.7,0-1.2-0.6-1.2-1.2v-2.5c0-0.7,0.6-1.2,1.2-1.2s1.2,0.6,1.2,1.2v1.2h1.2
			c0.7,0,1.2,0.6,1.2,1.2S4.4,43.1,3.8,43.1z"/>
	</g>
	<g>
		<path fill="#0C9ED9" d="M1.2,36.2c-0.7,0-1.2-0.6-1.2-1.2v-3.7C0,30.5,0.6,30,1.2,30s1.2,0.6,1.2,1.2v3.7
			C2.5,35.6,1.9,36.2,1.2,36.2z"/>
	</g>
	<g>
		<path fill="#0C9ED9" d="M1.2,28C0.6,28,0,27.5,0,26.8v-2.5C0,23.6,0.6,23,1.2,23h2.5C4.4,23,5,23.6,5,24.3s-0.6,1.2-1.2,1.2H2.5
			v1.2C2.5,27.5,1.9,28,1.2,28z"/>
	</g>
	<g>
		<path fill="#0C9ED9" d="M59.8,25.5h-5.1c-0.7,0-1.2-0.6-1.2-1.2S54,23,54.7,23h5.1c0.7,0,1.2,0.6,1.2,1.2S60.5,25.5,59.8,25.5z
			 M48.6,25.5h-5.1c-0.7,0-1.2-0.6-1.2-1.2s0.6-1.2,1.2-1.2h5.1c0.7,0,1.2,0.6,1.2,1.2S49.3,25.5,48.6,25.5z M37.4,25.5h-5.1
			c-0.7,0-1.2-0.6-1.2-1.2s0.6-1.2,1.2-1.2h5.1c0.7,0,1.2,0.6,1.2,1.2S38.1,25.5,37.4,25.5z M26.2,25.5h-5.1c-0.7,0-1.2-0.6-1.2-1.2
			s0.6-1.2,1.2-1.2h5.1c0.7,0,1.2,0.6,1.2,1.2S26.9,25.5,26.2,25.5z M15,25.5H9.9c-0.7,0-1.2-0.6-1.2-1.2S9.2,23,9.9,23H15
			c0.7,0,1.2,0.6,1.2,1.2S15.7,25.5,15,25.5z"/>
	</g>
	<g>
		<path fill="#0C9ED9" d="M68.4,28c-0.7,0-1.2-0.6-1.2-1.2v-1.2h-1.2c-0.7,0-1.2-0.6-1.2-1.2s0.6-1.2,1.2-1.2h2.5
			c0.7,0,1.2,0.6,1.2,1.2v2.5C69.7,27.5,69.1,28,68.4,28z"/>
	</g>
	<g>
		<path fill="#0C9ED9" d="M68.4,36.2c-0.7,0-1.2-0.6-1.2-1.2v-3.7c0-0.7,0.6-1.2,1.2-1.2s1.2,0.6,1.2,1.2v3.7
			C69.7,35.6,69.1,36.2,68.4,36.2z"/>
	</g>
</g>
<g>
	<g>
		<path fill="#0C9ED9" d="M68.4,66.1h-2.5c-0.7,0-1.2-0.6-1.2-1.2s0.6-1.2,1.2-1.2h1.2v-1.2c0-0.7,0.6-1.2,1.2-1.2s1.2,0.6,1.2,1.2
			v2.5C69.7,65.6,69.1,66.1,68.4,66.1z"/>
	</g>
	<g>
		<path fill="#0C9ED9" d="M59.8,66.1h-5.1c-0.7,0-1.2-0.6-1.2-1.2s0.6-1.2,1.2-1.2h5.1c0.7,0,1.2,0.6,1.2,1.2S60.5,66.1,59.8,66.1z
			 M48.6,66.1h-5.1c-0.7,0-1.2-0.6-1.2-1.2s0.6-1.2,1.2-1.2h5.1c0.7,0,1.2,0.6,1.2,1.2S49.3,66.1,48.6,66.1z M37.4,66.1h-5.1
			c-0.7,0-1.2-0.6-1.2-1.2s0.6-1.2,1.2-1.2h5.1c0.7,0,1.2,0.6,1.2,1.2S38.1,66.1,37.4,66.1z M26.2,66.1h-5.1c-0.7,0-1.2-0.6-1.2-1.2
			s0.6-1.2,1.2-1.2h5.1c0.7,0,1.2,0.6,1.2,1.2S26.9,66.1,26.2,66.1z M15,66.1H9.9c-0.7,0-1.2-0.6-1.2-1.2s0.6-1.2,1.2-1.2H15
			c0.7,0,1.2,0.6,1.2,1.2S15.7,66.1,15,66.1z"/>
	</g>
	<g>
		<path fill="#0C9ED9" d="M3.8,66.1H1.2c-0.7,0-1.2-0.6-1.2-1.2v-2.5c0-0.7,0.6-1.2,1.2-1.2s1.2,0.6,1.2,1.2v1.2h1.2
			c0.7,0,1.2,0.6,1.2,1.2S4.4,66.1,3.8,66.1z"/>
	</g>
	<g>
		<path fill="#0C9ED9" d="M1.2,59.2c-0.7,0-1.2-0.6-1.2-1.2v-3.7C0,53.6,0.6,53,1.2,53s1.2,0.6,1.2,1.2v3.7
			C2.5,58.6,1.9,59.2,1.2,59.2z"/>
	</g>
	<g>
		<path fill="#0C9ED9" d="M1.2,51.1c-0.7,0-1.2-0.6-1.2-1.2v-2.5c0-0.7,0.6-1.2,1.2-1.2h2.5c0.7,0,1.2,0.6,1.2,1.2s-0.6,1.2-1.2,1.2
			H2.5v1.2C2.5,50.5,1.9,51.1,1.2,51.1z"/>
	</g>
	<g>
		<path fill="#0C9ED9" d="M59.8,48.6h-5.1c-0.7,0-1.2-0.6-1.2-1.2s0.6-1.2,1.2-1.2h5.1c0.7,0,1.2,0.6,1.2,1.2S60.5,48.6,59.8,48.6z
			 M48.6,48.6h-5.1c-0.7,0-1.2-0.6-1.2-1.2s0.6-1.2,1.2-1.2h5.1c0.7,0,1.2,0.6,1.2,1.2S49.3,48.6,48.6,48.6z M37.4,48.6h-5.1
			c-0.7,0-1.2-0.6-1.2-1.2s0.6-1.2,1.2-1.2h5.1c0.7,0,1.2,0.6,1.2,1.2S38.1,48.6,37.4,48.6z M26.2,48.6h-5.1c-0.7,0-1.2-0.6-1.2-1.2
			s0.6-1.2,1.2-1.2h5.1c0.7,0,1.2,0.6,1.2,1.2S26.9,48.6,26.2,48.6z M15,48.6H9.9c-0.7,0-1.2-0.6-1.2-1.2s0.6-1.2,1.2-1.2H15
			c0.7,0,1.2,0.6,1.2,1.2S15.7,48.6,15,48.6z"/>
	</g>
	<g>
		<path fill="#0C9ED9" d="M68.4,51.1c-0.7,0-1.2-0.6-1.2-1.2v-1.2h-1.2c-0.7,0-1.2-0.6-1.2-1.2s0.6-1.2,1.2-1.2h2.5
			c0.7,0,1.2,0.6,1.2,1.2v2.5C69.7,50.5,69.1,51.1,68.4,51.1z"/>
	</g>
	<g>
		<path fill="#0C9ED9" d="M68.4,59.2c-0.7,0-1.2-0.6-1.2-1.2v-3.7c0-0.7,0.6-1.2,1.2-1.2s1.2,0.6,1.2,1.2v3.7
			C69.7,58.6,69.1,59.2,68.4,59.2z"/>
	</g>
</g>
<g>
	<path fill="#0C9ED9" d="M58.1,14.2c-2.3,0-4.2-1.9-4.2-4.2s1.9-4.2,4.2-4.2s4.2,1.9,4.2,4.2S60.4,14.2,58.1,14.2z M58.1,8.4
		c-0.9,0-1.7,0.8-1.7,1.7s0.8,1.7,1.7,1.7s1.7-0.8,1.7-1.7S59,8.4,58.1,8.4z"/>
</g>
<g>
	<path fill="#0C9ED9" d="M58.1,37.7c-2.3,0-4.2-1.9-4.2-4.2c0-2.3,1.9-4.2,4.2-4.2s4.2,1.9,4.2,4.2C62.3,35.9,60.4,37.7,58.1,37.7z
		 M58.1,31.9c-0.9,0-1.7,0.8-1.7,1.7c0,0.9,0.8,1.7,1.7,1.7s1.7-0.8,1.7-1.7C59.8,32.6,59,31.9,58.1,31.9z"/>
</g>
<g>
	<path fill="#0C9ED9" d="M58.1,60.3c-2.3,0-4.2-1.9-4.2-4.2s1.9-4.2,4.2-4.2s4.2,1.9,4.2,4.2S60.4,60.3,58.1,60.3z M58.1,54.4
		c-0.9,0-1.7,0.8-1.7,1.7s0.8,1.7,1.7,1.7s1.7-0.8,1.7-1.7S59,54.4,58.1,54.4z"/>
</g>
</svg>
