<?xml version="1.0" encoding="utf-8"?>
<!-- Generator: Adobe Illustrator 18.1.0, SVG Export Plug-In . SVG Version: 6.00 Build 0)  -->
<svg version="1.1" id="Layer_1" xmlns="http://www.w3.org/2000/svg" xmlns:xlink="http://www.w3.org/1999/xlink" x="0px" y="0px"
	 viewBox="0 0 66.4 63" enable-background="new 0 0 66.4 63" xml:space="preserve">
<g>
	<path fill="#009245" d="M52.6,14.6H14.1c-0.8,0-1.5,0.7-1.5,1.5v10.1c0,0.8,0.7,1.5,1.5,1.5h38.5c0.8,0,1.5-0.7,1.5-1.5V16.1
		C54.1,15.2,53.4,14.6,52.6,14.6z M51.1,24.6H15.6v-7.1h35.5V24.6z"/>
	<path fill="#009245" d="M52.6,28.9H14.1c-0.8,0-1.5,0.7-1.5,1.5v10.1c0,0.8,0.7,1.5,1.5,1.5h38.5c0.8,0,1.5-0.7,1.5-1.5V30.4
		C54.1,29.6,53.4,28.9,52.6,28.9z M51.1,39H15.6v-7.1h35.5V39z"/>
	<path fill="#009245" d="M52.6,43.3H14.1c-0.8,0-1.5,0.7-1.5,1.5v10.1c0,0.8,0.7,1.5,1.5,1.5h17.6v2c-0.2,0.1-0.3,0.3-0.5,0.5H14
		c-0.8,0-1.5,0.7-1.5,1.5s0.7,1.5,1.5,1.5h17.3c0.4,0.6,1.1,1,1.9,1s1.5-0.4,1.9-1h17.4c0.8,0,1.5-0.7,1.5-1.5s-0.7-1.5-1.5-1.5
		H35.2c-0.1-0.2-0.3-0.3-0.4-0.4v-2h17.9c0.8,0,1.5-0.7,1.5-1.5V44.8C54.1,43.9,53.4,43.3,52.6,43.3z M51.1,53.3H15.6v-7.1h35.5
		V53.3z"/>
	<path fill="#009245" d="M46.7,24c1.6,0,2.9-1.3,2.9-2.9s-1.3-2.9-2.9-2.9s-2.9,1.3-2.9,2.9S45.1,24,46.7,24z M46.7,20.7
		c0.2,0,0.4,0.2,0.4,0.4s-0.2,0.4-0.4,0.4s-0.4-0.2-0.4-0.4S46.5,20.7,46.7,20.7z"/>
	<path fill="#009245" d="M46.7,38.6c1.6,0,2.9-1.3,2.9-2.9s-1.3-2.9-2.9-2.9s-2.9,1.3-2.9,2.9S45.1,38.6,46.7,38.6z M46.7,35.3
		c0.2,0,0.4,0.2,0.4,0.4s-0.2,0.4-0.4,0.4s-0.4-0.2-0.4-0.4S46.5,35.3,46.7,35.3z"/>
	<path fill="#009245" d="M46.7,52.7c1.6,0,2.9-1.3,2.9-2.9s-1.3-2.9-2.9-2.9s-2.9,1.3-2.9,2.9S45.1,52.7,46.7,52.7z M46.7,49.3
		c0.2,0,0.4,0.2,0.4,0.4s-0.2,0.4-0.4,0.4s-0.4-0.2-0.4-0.4S46.5,49.3,46.7,49.3z"/>
	<path fill="#009245" d="M65.6,15.2L34,0.1c-0.4-0.2-0.9-0.2-1.3,0l-31.9,15C0.3,15.4,0,16,0,16.5v44.9C0,62.3,0.7,63,1.5,63
		S3,62.3,3,61.5v-44L33.4,3.2l30.1,14.3v44c0,0.8,0.7,1.5,1.5,1.5s1.5-0.7,1.5-1.5V16.5C66.4,16,66.1,15.4,65.6,15.2z"/>
</g>
</svg>
