<?xml version="1.0" encoding="UTF-8" standalone="no"?>
<svg width="67px" height="68px" viewBox="0 0 67 68" version="1.1" xmlns="http://www.w3.org/2000/svg" xmlns:xlink="http://www.w3.org/1999/xlink" xmlns:sketch="http://www.bohemiancoding.com/sketch/ns">
    <!-- Generator: Sketch 3.2.2 (9983) - http://www.bohemiancoding.com/sketch -->
    <title>Imported Layers</title>
    <desc>Created with Sketch.</desc>
    <defs></defs>
    <g id="Page-1" stroke="none" stroke-width="1" fill="none" fill-rule="evenodd" sketch:type="MSPage">
        <g id="CLC_KB_Home_3a" sketch:type="MSArtboardGroup" transform="translate(-153.000000, -606.000000)">
            <g id="Imported-Layers" sketch:type="MSLayerGroup" transform="translate(155.000000, 607.542169)">
                <path d="M0.03,0.903 L0.03,54.548 L53.675,54.548 L53.675,11.005 L43.573,0.903 L0.03,0.903 L0.03,0.903 Z" id="Fill-1" fill="#FFFFFF" sketch:type="MSShapeGroup"></path>
                <path d="M0.03,0.903 L0.03,54.548 L53.675,54.548 L53.675,11.005 L43.573,0.903 L0.03,0.903 L0.03,0.903 Z" id="Stroke-2" stroke="#009245" stroke-width="3" stroke-linejoin="round" sketch:type="MSShapeGroup"></path>
                <path d="M43.22,0.903 L43.22,11.284 L53.675,11.284 L53.675,11.005 L43.573,0.903 L43.22,0.903 L43.22,0.903 Z" id="Stroke-3" stroke="#009245" stroke-width="3" stroke-linejoin="round" sketch:type="MSShapeGroup"></path>
                <path d="M10.742,17.342 L42.963,17.342 M10.742,25.064 L42.963,25.064 M10.742,32.786 L42.963,32.786 M10.742,40.507 L42.963,40.507" id="Stroke-4" stroke="#009245" stroke-width="5" stroke-linecap="round" stroke-linejoin="round" sketch:type="MSShapeGroup"></path>
                <path d="M63.076,54.548 C63.076,60.03 58.631,64.475 53.148,64.475 C47.665,64.475 43.22,60.03 43.22,54.548 C43.22,49.065 47.665,44.62 53.148,44.62 C58.631,44.62 63.076,49.065 63.076,54.548 L63.076,54.548 Z" id="Fill-5" fill="#FFFFFF" sketch:type="MSShapeGroup"></path>
                <path d="M63.076,54.548 C63.076,60.03 58.631,64.475 53.148,64.475 C47.665,64.475 43.22,60.03 43.22,54.548 C43.22,49.065 47.665,44.62 53.148,44.62 C58.631,44.62 63.076,49.065 63.076,54.548 L63.076,54.548 Z" id="Stroke-6" stroke="#009245" stroke-width="3" stroke-linejoin="round" sketch:type="MSShapeGroup"></path>
                <path d="M53.131,57.541 C53.856,57.541 54.44,58.139 54.44,58.848 C54.44,59.558 53.856,60.141 53.131,60.141 C52.438,60.141 51.856,59.558 51.856,58.848 C51.856,58.139 52.438,57.541 53.131,57.541 L53.131,57.541 Z M52.596,55.445 L51.982,51.05 L51.982,49.254 C51.982,49.096 52.123,48.954 52.281,48.954 L54.014,48.954 C54.172,48.954 54.313,49.096 54.313,49.254 L54.313,51.019 L53.698,55.445 C53.683,55.572 53.542,55.697 53.399,55.697 L52.895,55.697 C52.754,55.697 52.612,55.572 52.596,55.445 L52.596,55.445 Z" id="Fill-7" fill="#009245" sketch:type="MSShapeGroup"></path>
            </g>
        </g>
    </g>
</svg>