<?xml version="1.0" encoding="utf-8"?>
<!-- Generator: Adobe Illustrator 18.1.0, SVG Export Plug-In . SVG Version: 6.00 Build 0)  -->
<svg version="1.1" id="Layer_1" xmlns="http://www.w3.org/2000/svg" xmlns:xlink="http://www.w3.org/1999/xlink" x="0px" y="0px"
	 viewBox="0 0 70 63" enable-background="new 0 0 70 63" xml:space="preserve">
<path fill="#009245" d="M48.3,48.3H21c0.1,0.5,0.2,1,0.2,1.6c0,0.5,0,0.9-0.1,1.4h27.2c-0.1-0.4-0.1-0.9-0.1-1.4
	C48.1,49.3,48.2,48.8,48.3,48.3z"/>
<path fill="#009245" d="M36.9,20.2l13.8,23.9c0.8-0.6,1.6-1.1,2.5-1.4l-13.8-24C38.7,19.4,37.9,19.9,36.9,20.2z"/>
<path fill="#009245" d="M18.4,44l13.7-23.8c-0.9-0.3-1.8-0.8-2.5-1.5L15.8,42.7C16.7,42.9,17.6,43.4,18.4,44z"/>
<path fill="#009245" d="M32.1,20.2c0.8,0.3,1.6,0.4,2.4,0.4s1.6-0.1,2.4-0.4c0.9-0.3,1.8-0.8,2.5-1.5c1.6-1.4,2.5-3.4,2.5-5.6
	c0-4.1-3.3-7.5-7.5-7.5s-7.5,3.3-7.5,7.5c0,2.2,1,4.2,2.5,5.6C30.3,19.4,31.2,19.9,32.1,20.2z M30,13.2c0-2.5,2-4.6,4.6-4.6
	s4.6,2,4.6,4.6s-2,4.6-4.6,4.6S30,15.7,30,13.2z"/>
<path fill="#009245" d="M22.4,13.2c0,0.8,0.7,1.5,1.5,1.5s1.5-0.7,1.5-1.5c0-5.1,4.1-9.2,9.2-9.2s9.2,4.1,9.2,9.2
	c0,0.8,0.7,1.5,1.5,1.5s1.5-0.7,1.5-1.5C46.7,6.5,41.2,1,34.5,1S22.4,6.5,22.4,13.2z"/>
<path fill="#009245" d="M50.8,44.2c-0.1,0.1-0.3,0.3-0.4,0.4c-1,1-1.7,2.3-2,3.7c-0.1,0.5-0.2,1-0.2,1.6c0,0.5,0,0.9,0.1,1.4
	c0.3,1.5,1,2.8,2.1,3.9c1.4,1.4,3.3,2.2,5.3,2.2c2,0,3.9-0.8,5.3-2.2c2.9-2.9,2.9-7.6,0-10.6c-1.4-1.4-3.3-2.2-5.3-2.2
	c-0.8,0-1.6,0.1-2.3,0.4C52.4,43,51.5,43.5,50.8,44.2z M55.6,54.4c-1.2,0-2.4-0.5-3.2-1.3c-0.9-0.9-1.3-2-1.3-3.2
	c0-1.2,0.5-2.4,1.3-3.2c0.9-0.9,2-1.3,3.2-1.3c1.2,0,2.4,0.5,3.2,1.3c1.8,1.8,1.8,4.7,0,6.4C57.9,53.9,56.8,54.4,55.6,54.4z"/>
<path fill="#009245" d="M62.1,41.3c-0.6,0.6-0.6,1.5,0,2.1c1.7,1.7,2.7,4.1,2.7,6.5c0,2.5-1,4.8-2.7,6.5c-1.7,1.7-4.1,2.7-6.5,2.7
	c0,0,0,0,0,0c-2.5,0-4.8-1-6.5-2.7c-0.6-0.6-1.5-0.6-2.1,0c-0.6,0.6-0.6,1.5,0,2.1c2.3,2.3,5.3,3.6,8.6,3.6c0,0,0,0,0,0
	c3.2,0,6.3-1.3,8.6-3.5c2.3-2.3,3.6-5.3,3.6-8.6s-1.3-6.3-3.5-8.6C63.6,40.7,62.7,40.7,62.1,41.3z"/>
<path fill="#009245" d="M8.5,55.1c1.4,1.4,3.3,2.2,5.3,2.2c2,0,3.9-0.8,5.3-2.2c1.1-1.1,1.8-2.5,2.1-3.9c0.1-0.4,0.1-0.9,0.1-1.4
	c0-0.5-0.1-1.1-0.2-1.6c-0.3-1.4-1-2.7-2-3.7c-0.2-0.2-0.4-0.4-0.6-0.5c-0.8-0.6-1.6-1.1-2.6-1.3c-0.7-0.2-1.4-0.3-2.1-0.3
	c-2,0-3.9,0.8-5.3,2.2C5.5,47.5,5.5,52.2,8.5,55.1z M16.9,46.6c0.9,0.9,1.3,2,1.3,3.2c0,1.2-0.5,2.4-1.3,3.2c-0.9,0.9-2,1.3-3.2,1.3
	c-1.2,0-2.4-0.5-3.2-1.3c-1.8-1.8-1.8-4.7,0-6.4c0.9-0.9,2-1.3,3.2-1.3C14.9,45.3,16.1,45.8,16.9,46.6z"/>
<path fill="#009245" d="M20.3,56.4c-1.7,1.7-4.1,2.7-6.5,2.7c0,0,0,0,0,0c-2.5,0-4.8-1-6.5-2.7c-1.7-1.7-2.7-4.1-2.7-6.5
	c0-2.5,1-4.8,2.7-6.5c0.6-0.6,0.6-1.5,0-2.1c-0.6-0.6-1.5-0.6-2.1,0c-2.3,2.3-3.6,5.4-3.5,8.6c0,3.2,1.3,6.3,3.6,8.6
	c2.3,2.3,5.3,3.5,8.6,3.5c0,0,0,0,0,0c3.2,0,6.3-1.3,8.6-3.6c0.6-0.6,0.6-1.5,0-2.1C21.8,55.8,20.8,55.8,20.3,56.4z"/>
</svg>
