<?xml version="1.0" encoding="utf-8"?>
<!-- Generator: Adobe Illustrator 18.1.0, SVG Export Plug-In . SVG Version: 6.00 Build 0)  -->
<svg version="1.1" id="Layer_1" xmlns="http://www.w3.org/2000/svg" xmlns:xlink="http://www.w3.org/1999/xlink" x="0px" y="0px"
	 viewBox="0 0 53.8 64.1" enable-background="new 0 0 53.8 64.1" xml:space="preserve">
<path fill="#009245" d="M28.7,1.8c-0.1-0.1-0.2-0.2-0.4-0.3c0.2,0.2,0.3,0.3,0.5,0.5C28.8,1.9,28.7,1.8,28.7,1.8z"/>
<path fill="#009245" d="M52.9,3.4c-0.1-0.1-0.2-0.1-0.3-0.1c-0.1-0.5-0.4-0.9-0.9-1.1C51.1,1.9,50.5,2,50,2.5
	c-2.8,2.8-5.1,3.7-9.3,3.7c-4.3,0-9-1.7-11.9-4.2c-0.2-0.2-0.4-0.3-0.5-0.5c-0.3-0.3-0.6-0.6-0.9-0.9c-0.6-0.7-1.8-0.7-2.4,0
	c-2.6,3.3-8.2,5.6-13.2,5.6c-4.2,0-6.5-0.9-9.3-3.7C2.1,2,1.5,1.9,0.9,2.2C0.4,2.4,0,2.9,0,3.5v37.2c0,0.1,0,0.2,0,0.3
	c0.1,0.4,1.2,6.2,7.4,12c3.8,4,9.9,8.3,19.7,11c0.1,0,0.3,0.1,0.4,0.1c0.1,0,0.3,0,0.4-0.1c22.9-6.4,25.8-21.2,25.9-21.8
	c0-0.1,0-0.2,0-0.3V4.8C53.8,4.2,53.4,3.6,52.9,3.4z M49.6,40.6c-0.3,1.3-3.5,13.6-23.3,19.2C6.4,54.1,3.3,42,3,40.6V6.8
	c2.5,1.7,5.1,2.4,8.8,2.4c5.3,0,11-2.2,14.4-5.5c3.4,3.3,9.1,5.5,14.5,5.5c3.7,0,6.3-0.7,8.8-2.4V40.6z"/>
<path fill="#009245" d="M32.8,28.7c-0.1,0.5-0.2,1-0.3,1.4c-0.5,1.3-1.5,2.7-2.6,4.1c-0.8,1-1.6,1.9-2.1,2.9c-1,1.7-0.4,3.3,0.5,4.7
	c0.6-0.4,1.5-1,2.6-1.7c1.8-1.2,3.5-3.7,3.7-5.3c0.3-2.1-0.6-3.9-1.6-5.8L32.8,28.7z"/>
<path fill="#009245" d="M26.1,36.3c0.6-1.1,1.4-2.1,2.3-3.1c1-1.3,2-2.5,2.4-3.6c0.3-0.9,0.4-2.2,0.2-3.7c-0.8-1.5-1.6-2.6-2.6-3.8
	c-0.7-0.8-1.8-1.6-2.5-2c0.1,0.6,0.2,1.3,0.2,2.1c-0.1,2.2-1.5,4-2.8,5.4c-0.2,0.3-0.5,0.5-0.9,0.8c-1.7,1.6-4.1,3.8-2.6,7.6
	c1,2.7,4.4,4.6,6.4,5.4C25.4,40.2,25,38.4,26.1,36.3z"/>
</svg>
