<?xml version="1.0" encoding="utf-8"?>
<!-- Generator: Adobe Illustrator 18.1.0, SVG Export Plug-In . SVG Version: 6.00 Build 0)  -->
<svg version="1.1" id="Layer_1" xmlns="http://www.w3.org/2000/svg" xmlns:xlink="http://www.w3.org/1999/xlink" x="0px" y="0px"
	 viewBox="0 0 102.5 104.8" enable-background="new 0 0 102.5 104.8" xml:space="preserve">
<path fill="none" d="M92.5,46.8c0-1.6-1.3-2.9-2.9-2.9s-2.9,1.3-2.9,2.9s1.3,2.9,2.9,2.9S92.5,48.4,92.5,46.8z"/>
<g>
	<path fill="#009245" d="M15.7,25.7c-2.1,0-3.8,1.7-3.8,3.8c0,2.1,1.7,3.8,3.8,3.8s3.8-1.7,3.8-3.8C19.5,27.4,17.8,25.7,15.7,25.7z
		 M15.7,30.7c-0.7,0-1.3-0.6-1.3-1.3s0.6-1.3,1.3-1.3c0.7,0,1.3,0.6,1.3,1.3S16.4,30.7,15.7,30.7z"/>
	<path fill="#009245" d="M23.8,25.7c-2.1,0-3.8,1.7-3.8,3.8c0,2.1,1.7,3.8,3.8,3.8s3.8-1.7,3.8-3.8C27.6,27.4,25.9,25.7,23.8,25.7z
		 M23.8,30.7c-0.7,0-1.3-0.6-1.3-1.3s0.6-1.3,1.3-1.3s1.3,0.6,1.3,1.3S24.5,30.7,23.8,30.7z"/>
	<circle fill="#009245" cx="65.1" cy="25.4" r="1"/>
	<circle fill="#009245" cx="61" cy="25.4" r="1"/>
	<circle fill="#009245" cx="57" cy="25.4" r="1"/>
	<circle fill="#009245" cx="52.9" cy="25.4" r="1"/>
	<circle fill="#009245" cx="48.8" cy="25.4" r="1"/>
	<circle fill="#009245" cx="44.8" cy="25.4" r="1"/>
	<circle fill="#009245" cx="40.7" cy="25.4" r="1"/>
	<circle fill="#009245" cx="36.6" cy="25.4" r="1"/>
	<circle fill="#009245" cx="32.5" cy="25.4" r="1"/>
	<circle fill="#009245" cx="65.1" cy="29.5" r="1"/>
	<circle fill="#009245" cx="61" cy="29.5" r="1"/>
	<circle fill="#009245" cx="57" cy="29.5" r="1"/>
	<circle fill="#009245" cx="52.9" cy="29.5" r="1"/>
	<circle fill="#009245" cx="48.8" cy="29.5" r="1"/>
	<circle fill="#009245" cx="44.8" cy="29.5" r="1"/>
	<circle fill="#009245" cx="40.7" cy="29.5" r="1"/>
	<circle fill="#009245" cx="36.6" cy="29.5" r="1"/>
	<circle fill="#009245" cx="32.5" cy="29.5" r="1"/>
	<circle fill="#009245" cx="65.1" cy="33.5" r="1"/>
	<circle fill="#009245" cx="61" cy="33.5" r="1"/>
	<circle fill="#009245" cx="57" cy="33.5" r="1"/>
	<circle fill="#009245" cx="52.9" cy="33.5" r="1"/>
	<circle fill="#009245" cx="48.8" cy="33.5" r="1"/>
	<circle fill="#009245" cx="44.8" cy="33.5" r="1"/>
	<circle fill="#009245" cx="40.7" cy="33.5" r="1"/>
	<circle fill="#009245" cx="36.6" cy="33.5" r="1"/>
	<circle fill="#009245" cx="32.5" cy="33.5" r="1"/>
	<path fill="#009245" d="M68.6,19.4H10.7c-2.2,0-4.1,1.8-4.1,4.1v11.9c0,2.2,1.8,4.1,4.1,4.1h57.9c2.2,0,4.1-1.8,4.1-4.1V23.5
		C72.7,21.3,70.9,19.4,68.6,19.4z M69.7,35.4c0,0.6-0.5,1.1-1.1,1.1H10.7c-0.6,0-1.1-0.5-1.1-1.1V23.5c0-0.6,0.5-1.1,1.1-1.1h57.9
		c0.6,0,1.1,0.5,1.1,1.1V35.4z"/>
</g>
<g>
	<path fill="#009245" d="M15.7,48.5c-2.1,0-3.8,1.7-3.8,3.8c0,2.1,1.7,3.8,3.8,3.8s3.8-1.7,3.8-3.8C19.5,50.2,17.8,48.5,15.7,48.5z
		 M15.7,53.5c-0.7,0-1.3-0.6-1.3-1.3S15,51,15.7,51c0.7,0,1.3,0.6,1.3,1.3S16.4,53.5,15.7,53.5z"/>
	<path fill="#009245" d="M23.8,48.5c-2.1,0-3.8,1.7-3.8,3.8c0,2.1,1.7,3.8,3.8,3.8s3.8-1.7,3.8-3.8C27.6,50.2,25.9,48.5,23.8,48.5z
		 M23.8,53.5c-0.7,0-1.3-0.6-1.3-1.3s0.6-1.3,1.3-1.3s1.3,0.6,1.3,1.3S24.5,53.5,23.8,53.5z"/>
	<circle fill="#009245" cx="65.1" cy="48.2" r="1"/>
	<circle fill="#009245" cx="61" cy="48.2" r="1"/>
	<circle fill="#009245" cx="57" cy="48.2" r="1"/>
	<circle fill="#009245" cx="52.9" cy="48.2" r="1"/>
	<circle fill="#009245" cx="48.8" cy="48.2" r="1"/>
	<circle fill="#009245" cx="44.8" cy="48.2" r="1"/>
	<circle fill="#009245" cx="40.7" cy="48.2" r="1"/>
	<circle fill="#009245" cx="36.6" cy="48.2" r="1"/>
	<circle fill="#009245" cx="32.5" cy="48.2" r="1"/>
	<circle fill="#009245" cx="65.1" cy="52.3" r="1"/>
	<circle fill="#009245" cx="61" cy="52.3" r="1"/>
	<circle fill="#009245" cx="57" cy="52.3" r="1"/>
	<circle fill="#009245" cx="52.9" cy="52.3" r="1"/>
	<circle fill="#009245" cx="48.8" cy="52.3" r="1"/>
	<circle fill="#009245" cx="44.8" cy="52.3" r="1"/>
	<circle fill="#009245" cx="40.7" cy="52.3" r="1"/>
	<circle fill="#009245" cx="36.6" cy="52.3" r="1"/>
	<circle fill="#009245" cx="32.5" cy="52.3" r="1"/>
	<circle fill="#009245" cx="65.1" cy="56.4" r="1"/>
	<circle fill="#009245" cx="61" cy="56.4" r="1"/>
	<circle fill="#009245" cx="57" cy="56.4" r="1"/>
	<circle fill="#009245" cx="52.9" cy="56.4" r="1"/>
	<circle fill="#009245" cx="48.8" cy="56.4" r="1"/>
	<circle fill="#009245" cx="44.8" cy="56.4" r="1"/>
	<circle fill="#009245" cx="40.7" cy="56.4" r="1"/>
	<circle fill="#009245" cx="36.6" cy="56.4" r="1"/>
	<circle fill="#009245" cx="32.5" cy="56.4" r="1"/>
	<path fill="#009245" d="M68.6,42.3H10.7c-2.2,0-4.1,1.8-4.1,4.1v11.9c0,2.2,1.8,4.1,4.1,4.1h57.9c2.2,0,4.1-1.8,4.1-4.1V46.3
		C72.7,44.1,70.9,42.3,68.6,42.3z M69.7,58.2c0,0.6-0.5,1.1-1.1,1.1H10.7c-0.6,0-1.1-0.5-1.1-1.1V46.3c0-0.6,0.5-1.1,1.1-1.1h57.9
		c0.6,0,1.1,0.5,1.1,1.1V58.2z"/>
</g>
<g>
	<path fill="#009245" d="M15.7,70.5c-2.1,0-3.8,1.7-3.8,3.8c0,2.1,1.7,3.8,3.8,3.8s3.8-1.7,3.8-3.8C19.5,72.2,17.8,70.5,15.7,70.5z
		 M15.7,75.5c-0.7,0-1.3-0.6-1.3-1.3S15,73,15.7,73c0.7,0,1.3,0.6,1.3,1.3S16.4,75.5,15.7,75.5z"/>
	<path fill="#009245" d="M23.8,70.5c-2.1,0-3.8,1.7-3.8,3.8c0,2.1,1.7,3.8,3.8,3.8s3.8-1.7,3.8-3.8C27.6,72.2,25.9,70.5,23.8,70.5z
		 M23.8,75.5c-0.7,0-1.3-0.6-1.3-1.3s0.6-1.3,1.3-1.3s1.3,0.6,1.3,1.3S24.5,75.5,23.8,75.5z"/>
	<circle fill="#009245" cx="65.1" cy="70.2" r="1"/>
	<circle fill="#009245" cx="61" cy="70.2" r="1"/>
	<circle fill="#009245" cx="57" cy="70.2" r="1"/>
	<circle fill="#009245" cx="52.9" cy="70.2" r="1"/>
	<circle fill="#009245" cx="48.8" cy="70.2" r="1"/>
	<circle fill="#009245" cx="44.8" cy="70.2" r="1"/>
	<circle fill="#009245" cx="40.7" cy="70.2" r="1"/>
	<circle fill="#009245" cx="36.6" cy="70.2" r="1"/>
	<circle fill="#009245" cx="32.5" cy="70.2" r="1"/>
	<circle fill="#009245" cx="65.1" cy="74.3" r="1"/>
	<circle fill="#009245" cx="61" cy="74.3" r="1"/>
	<circle fill="#009245" cx="57" cy="74.3" r="1"/>
	<circle fill="#009245" cx="52.9" cy="74.3" r="1"/>
	<circle fill="#009245" cx="48.8" cy="74.3" r="1"/>
	<circle fill="#009245" cx="44.8" cy="74.3" r="1"/>
	<circle fill="#009245" cx="40.7" cy="74.3" r="1"/>
	<circle fill="#009245" cx="36.6" cy="74.3" r="1"/>
	<circle fill="#009245" cx="32.5" cy="74.3" r="1"/>
	<circle fill="#009245" cx="65.1" cy="78.4" r="1"/>
	<circle fill="#009245" cx="61" cy="78.4" r="1"/>
	<circle fill="#009245" cx="57" cy="78.4" r="1"/>
	<circle fill="#009245" cx="52.9" cy="78.4" r="1"/>
	<circle fill="#009245" cx="48.8" cy="78.4" r="1"/>
	<circle fill="#009245" cx="44.8" cy="78.4" r="1"/>
	<circle fill="#009245" cx="40.7" cy="78.4" r="1"/>
	<circle fill="#009245" cx="36.6" cy="78.4" r="1"/>
	<circle fill="#009245" cx="32.5" cy="78.4" r="1"/>
	<path fill="#009245" d="M68.6,64.3H10.7c-2.2,0-4.1,1.8-4.1,4.1v11.9c0,2.2,1.8,4.1,4.1,4.1h57.9c2.2,0,4.1-1.8,4.1-4.1V68.3
		C72.7,66.1,70.9,64.3,68.6,64.3z M69.7,80.2c0,0.6-0.5,1.1-1.1,1.1H10.7c-0.6,0-1.1-0.5-1.1-1.1V68.3c0-0.6,0.5-1.1,1.1-1.1h57.9
		c0.6,0,1.1,0.5,1.1,1.1V80.2z"/>
</g>
<path fill="#009245" d="M88.1,4.4v1.3c0,0.8,0.7,1.5,1.5,1.5s1.5-0.7,1.5-1.5V4.4c0-1.2-0.5-2.4-1.4-3.2c-0.6-0.6-1.6-0.5-2.1,0.1
	C87,1.9,87,2.8,87.6,3.4C87.9,3.7,88.1,4,88.1,4.4z"/>
<path fill="#009245" d="M91.1,14.1c0-0.8-0.7-1.5-1.5-1.5s-1.5,0.7-1.5,1.5v3.7c0,0.8,0.7,1.5,1.5,1.5s1.5-0.7,1.5-1.5V14.1z"/>
<path fill="#009245" d="M64.7,3h3.7c0.8,0,1.5-0.7,1.5-1.5S69.2,0,68.4,0h-3.7c-0.8,0-1.5,0.7-1.5,1.5S63.9,3,64.7,3z"/>
<path fill="#009245" d="M76.8,3h3.7C81.3,3,82,2.3,82,1.5S81.3,0,80.5,0h-3.7c-0.8,0-1.5,0.7-1.5,1.5S76,3,76.8,3z"/>
<path fill="#009245" d="M40.3,4.2c0.2,0.1,0.5,0.2,0.8,0.2c0.5,0,1-0.3,1.3-0.7C42.6,3.3,43,3,43.5,3h0.7c0.8,0,1.5-0.7,1.5-1.5
	S45,0,44.2,0h-0.7c-1.5,0-3,0.8-3.8,2.1C39.3,2.9,39.5,3.8,40.3,4.2z"/>
<path fill="#009245" d="M52.6,3h3.7c0.8,0,1.5-0.7,1.5-1.5S57.1,0,56.3,0h-3.7c-0.8,0-1.5,0.7-1.5,1.5S51.8,3,52.6,3z"/>
<path fill="#009245" d="M89.6,24.7c-0.8,0-1.5,0.7-1.5,1.5v1.8c0,0.8,0.7,1.5,1.5,1.5s1.5-0.7,1.5-1.5v-1.8
	C91.1,25.4,90.4,24.7,89.6,24.7z"/>
<path fill="#009245" d="M89.6,38.7c0.8,0,1.5-0.7,1.5-1.5v-1.8c0-0.8-0.7-1.5-1.5-1.5s-1.5,0.7-1.5,1.5v1.8
	C88.1,38,88.8,38.7,89.6,38.7z"/>
<path fill="#009245" d="M96.5,41.6c0.4,0,0.7-0.1,1-0.4l1.3-1.3c0.6-0.6,0.6-1.5,0-2.1c-0.6-0.6-1.5-0.6-2.1,0L95.5,39
	c-0.6,0.6-0.6,1.5,0,2.1C95.7,41.5,96.1,41.6,96.5,41.6z"/>
<path fill="#009245" d="M101,45.4l-1.8,0c-0.8,0-1.5,0.7-1.5,1.5s0.7,1.5,1.5,1.5l1.8,0c0,0,0,0,0,0c0.8,0,1.5-0.7,1.5-1.5
	C102.5,46.1,101.8,45.4,101,45.4z"/>
<path fill="#009245" d="M96.9,53.1c-0.5-0.6-1.5-0.7-2.1-0.2c-0.6,0.5-0.7,1.5-0.2,2.1l1.2,1.4c0.3,0.4,0.7,0.5,1.1,0.5
	c0.3,0,0.7-0.1,1-0.4c0.6-0.5,0.7-1.5,0.2-2.1L96.9,53.1z"/>
<path fill="#009245" d="M80.3,39.9l1.3,1.3c0.3,0.3,0.7,0.4,1,0.4c0.4,0,0.8-0.2,1.1-0.5c0.6-0.6,0.6-1.5,0-2.1l-1.3-1.3
	c-0.6-0.6-1.5-0.6-2.1,0C79.7,38.4,79.8,39.4,80.3,39.9z"/>
<path fill="#009245" d="M78.2,45.4c-0.8,0-1.5,0.7-1.5,1.5c0,0.8,0.7,1.5,1.5,1.5c0,0,0,0,0,0l1.8,0c0.8,0,1.5-0.7,1.5-1.5
	s-0.7-1.5-1.5-1.5L78.2,45.4z"/>
<path fill="#009245" d="M81.3,56.6c0.3,0.2,0.6,0.4,1,0.4c0.4,0,0.8-0.2,1.1-0.5l1.2-1.4c0.5-0.6,0.5-1.6-0.2-2.1
	c-0.6-0.5-1.6-0.5-2.1,0.2l-1.2,1.4C80.6,55.1,80.6,56.1,81.3,56.6z"/>
<path fill="#009245" d="M89.7,40.8c-3.3,0-5.9,2.7-5.9,5.9c0,2.8,1.9,5.1,4.4,5.7v47.8c0,0.8-0.6,1.4-1.4,1.4H43.6
	c-0.8,0-1.4-0.6-1.4-1.4v-7.9h33.5c3.2,0,5.8-2.6,5.8-5.8V58.3c-0.4-0.1-0.8-0.3-1.1-0.6c-0.4-0.4-0.7-0.9-0.9-1.4
	c-0.2-0.6-0.2-1.3,0-1.9c0.1-0.4,0.3-0.7,0.6-1l1.2-1.4c0.1-0.1,0.2-0.2,0.3-0.3v-2.3c-0.4,0.2-0.8,0.3-1.3,0.3l-0.7,0l-1.1,0
	c0,0,0,0,0,0c-0.7,0-1.3-0.2-1.8-0.6v36.4c0,1.5-1.2,2.8-2.8,2.8h-68c-1.5,0-2.8-1.2-2.8-2.8V17.9c0-1.5,1.2-2.8,2.8-2.8h68
	c1.5,0,2.8,1.2,2.8,2.8v26.6c0.5-0.4,1.1-0.6,1.8-0.6l1.2,0l0.6,0c0,0,0,0,0,0c0.5,0,1,0.1,1.4,0.3v-1.4c-0.3-0.1-0.5-0.3-0.8-0.5
	l-1.2-1.2L79.4,41c-1.2-1.1-1.2-3-0.1-4.2c0.1-0.1,0.1-0.1,0.2-0.1c0.6-0.5,1.3-0.8,2-0.8V18.9c0-2.7-1.8-4.9-4.2-5.6
	c-1-0.8-2.2-1.2-3.5-1.2H42.2v-0.9c0-0.8-0.7-1.5-1.5-1.5s-1.5,0.7-1.5,1.5v0.9H5.8c-3.2,0-5.8,2.6-5.8,5.8v67.8
	c0,2.7,1.8,4.9,4.2,5.6c1,0.8,2.2,1.2,3.5,1.2h31.5v7.9c0,2.4,2,4.4,4.4,4.4h43.1c2.4,0,4.4-2,4.4-4.4V52.5c2.6-0.7,4.4-3,4.4-5.7
	C95.6,43.5,93,40.8,89.7,40.8z M89.7,49.7c-1.6,0-2.9-1.3-2.9-2.9s1.3-2.9,2.9-2.9s2.9,1.3,2.9,2.9S91.3,49.7,89.7,49.7z"/>
</svg>
