<?xml version="1.0" encoding="utf-8"?>
<!-- Generator: Adobe Illustrator 18.1.0, SVG Export Plug-In . SVG Version: 6.00 Build 0)  -->
<svg version="1.1" id="Layer_1" xmlns="http://www.w3.org/2000/svg" xmlns:xlink="http://www.w3.org/1999/xlink" x="0px" y="0px"
	 viewBox="0 0 53.3 61.2" enable-background="new 0 0 53.3 61.2" xml:space="preserve">
<path fill="#0C9ED9" d="M50.6,56.7H29.1c-0.3-0.5-0.7-0.9-1.1-1.2v-2.3c14.1-0.7,25.3-12.4,25.3-26.6C53.3,12,41.4,0,26.7,0
	c0,0,0,0,0,0c0,0,0,0,0,0c0,0,0,0,0,0C12,0,0,12,0,26.6c0,14.1,11.1,25.7,25,26.6v2.3c-0.5,0.3-0.9,0.7-1.2,1.2H2.7
	c-0.8,0-1.5,0.7-1.5,1.5s0.7,1.5,1.5,1.5h21.2c0.5,0.9,1.5,1.5,2.6,1.5s2.1-0.6,2.6-1.5h21.5c0.8,0,1.5-0.7,1.5-1.5
	S51.4,56.7,50.6,56.7z M35.3,48.6c1.8-2.2,3.3-5,4.4-8.3h6.2C43.3,44,39.6,46.9,35.3,48.6z M47.7,37.3h-7.1c0.7-2.8,1.1-5.8,1.2-9
	h8.4C50,31.5,49.1,34.6,47.7,37.3z M50.3,25.3h-8.4c-0.1-3.2-0.5-6.2-1.1-9h7.2C49.2,19.1,50.1,22.1,50.3,25.3z M46.2,13.3h-6.3
	c-1.1-3.5-2.7-6.4-4.5-8.6C39.8,6.4,43.5,9.4,46.2,13.3z M28,3.2c3.5,0.8,6.7,4.7,8.6,10.2H28V3.2z M28,16.3h9.6
	c0.7,2.8,1.2,5.8,1.3,9H28V16.3z M28,28.3h10.8c-0.1,3.2-0.6,6.2-1.3,9H28V28.3z M28,40.3h8.5c-2,5.3-5.1,9-8.5,9.8V40.3z M18,4.6
	c-1.9,2.2-3.4,5.2-4.5,8.7H7.1C9.8,9.4,13.6,6.4,18,4.6z M5.4,16.3h7.2c-0.6,2.8-1,5.8-1.1,9H3C3.2,22.1,4,19.1,5.4,16.3z M3.1,28.3
	h8.4c0.1,3.2,0.5,6.2,1.2,9H5.6C4.2,34.6,3.3,31.5,3.1,28.3z M7.4,40.3h6.2c1.1,3.3,2.6,6.2,4.4,8.3C13.7,46.9,10,44,7.4,40.3z
	 M25,50.1c-3.3-0.9-6.3-4.6-8.2-9.8H25V50.1z M25,37.3h-9.2c-0.7-2.8-1.2-5.8-1.3-9H25V37.3z M25,25.3H14.5c0.1-3.2,0.5-6.2,1.3-9
	H25V25.3z M25,13.3h-8.3C18.6,8,21.6,4.2,25,3.2V13.3z"/>
</svg>
