<?xml version="1.0" encoding="utf-8"?>
<!-- Generator: Adobe Illustrator 18.1.0, SVG Export Plug-In . SVG Version: 6.00 Build 0)  -->
<svg version="1.1" id="Layer_1" xmlns="http://www.w3.org/2000/svg" xmlns:xlink="http://www.w3.org/1999/xlink" x="0px" y="0px"
	 viewBox="0 0 77.7 49.8" enable-background="new 0 0 77.7 49.8" xml:space="preserve">
<g>
	<path fill="#0C9ED9" d="M77.4,16.6c-0.3-0.4-0.7-0.6-1.2-0.6H75L61.2,0.5C60.9,0.2,60.5,0,60,0H18c-0.4,0-0.8,0.2-1.1,0.5L2.8,16
		H1.5c-0.5,0-0.9,0.2-1.2,0.6s-0.4,0.9-0.2,1.3l9.5,30.8c0.2,0.6,0.8,1.1,1.4,1.1h56.1c0.7,0,1.2-0.4,1.4-1.1L77.7,18
		C77.8,17.5,77.7,17,77.4,16.6z M18.7,3h40.7l11.6,13h-64L18.7,3z M66,46.8H12.1L3.5,19h70.7L66,46.8z"/>
	<polygon fill="#0C9ED9" points="50.6,29.9 47.2,29.9 47.5,33.5 30.3,33.5 30.5,29.9 27.1,29.9 26.2,36.6 51.5,36.6 	"/>
	<polygon fill="#0C9ED9" points="59.3,4.4 18.4,4.4 17.2,5.8 60.6,5.8 	"/>
	<polygon fill="#0C9ED9" points="62,7.3 15.8,7.3 14.5,8.7 63.2,8.7 	"/>
	<polygon fill="#0C9ED9" points="64.6,10.3 13.1,10.3 11.8,11.7 65.9,11.7 	"/>
	<polygon fill="#0C9ED9" points="67.3,13.2 10.4,13.2 9.2,14.6 68.6,14.6 	"/>
</g>
</svg>
