<?xml version="1.0" encoding="UTF-8" standalone="no"?>
<svg width="68px" height="72px" viewBox="0 0 68 72" version="1.1" xmlns="http://www.w3.org/2000/svg" xmlns:xlink="http://www.w3.org/1999/xlink" xmlns:sketch="http://www.bohemiancoding.com/sketch/ns">
    <!-- Generator: Sketch 3.2.2 (9983) - http://www.bohemiancoding.com/sketch -->
    <title>Imported Layers 6</title>
    <desc>Created with Sketch.</desc>
    <defs></defs>
    <g id="Page-1" stroke="none" stroke-width="1" fill="none" fill-rule="evenodd" sketch:type="MSPage">
        <g id="CLC_KB_Home_3v3c" sketch:type="MSArtboardGroup" transform="translate(-504.000000, -755.000000)">
            <g id="Imported-Layers-6" sketch:type="MSLayerGroup" transform="translate(506.000000, 757.000000)">
                <path d="M26.40525,28.1888571 C11.88215,28.1888571 0.1088,25.8651429 0.1088,22.9988571 L0.1088,37.6277143 C0.1088,40.494 11.88215,42.8168571 26.40525,42.8168571 C40.9275,42.8168571 52.70085,40.494 52.70085,37.6277143 L52.70085,22.9988571 C52.70085,25.8651429 40.9275,28.1888571 26.40525,28.1888571" id="Fill-1" fill="#009245" sketch:type="MSShapeGroup"></path>
                <path d="M26.40525,45.6068571 C11.88215,45.6068571 0.1088,43.284 0.1088,40.4168571 L0.1088,55.0457143 C0.1088,57.912 11.88215,60.2357143 26.40525,60.2357143 C40.9275,60.2357143 52.70085,57.912 52.70085,55.0457143 L52.70085,40.4168571 C52.70085,43.284 40.9275,45.6068571 26.40525,45.6068571" id="Fill-2" fill="#009245" sketch:type="MSShapeGroup"></path>
                <path d="M0.1088,5.96571429 L0.1088,20.5945714 C0.1088,23.4608571 11.88215,25.7845714 26.40525,25.7845714 C40.9275,25.7845714 52.70085,23.4608571 52.70085,20.5945714 L52.70085,5.96571429 L0.1088,5.96571429" id="Fill-3" fill="#009245" sketch:type="MSShapeGroup"></path>
                <path d="M52.70085,5.36571429 C52.70085,8.232 40.9275,10.5557143 26.40525,10.5557143 C11.88215,10.5557143 0.1088,8.232 0.1088,5.36571429 C0.1088,2.49942857 11.88215,0.175714286 26.40525,0.175714286 C40.9275,0.175714286 52.70085,2.49942857 52.70085,5.36571429 L52.70085,5.36571429 Z" id="Fill-4" fill="#009245" sketch:type="MSShapeGroup"></path>
                <path d="M52.70085,5.36571429 C52.70085,8.232 40.9275,10.5557143 26.40525,10.5557143 C11.88215,10.5557143 0.1088,8.232 0.1088,5.36571429 C0.1088,2.49942857 11.88215,0.175714286 26.40525,0.175714286 C40.9275,0.175714286 52.70085,2.49942857 52.70085,5.36571429 L52.70085,5.36571429 Z" id="Stroke-5" stroke="#FFFFFF" stroke-width="3" sketch:type="MSShapeGroup"></path>
                <path d="M64.4912,56.5062857 C64.4912,63.0728571 59.21185,68.3957143 52.70085,68.3957143 C46.189,68.3957143 40.9105,63.0728571 40.9105,56.5062857 C40.9105,49.9405714 46.189,44.6168571 52.70085,44.6168571 C59.21185,44.6168571 64.4912,49.9405714 64.4912,56.5062857 L64.4912,56.5062857 Z" id="Fill-6" fill="#009245" sketch:type="MSShapeGroup"></path>
                <path d="M64.4912,56.5062857 C64.4912,63.0728571 59.21185,68.3957143 52.70085,68.3957143 C46.189,68.3957143 40.9105,63.0728571 40.9105,56.5062857 C40.9105,49.9405714 46.189,44.6168571 52.70085,44.6168571 C59.21185,44.6168571 64.4912,49.9405714 64.4912,56.5062857 L64.4912,56.5062857 Z" id="Stroke-7" stroke="#FFFFFF" stroke-width="3" sketch:type="MSShapeGroup"></path>
                <path d="M57.2883,56.0794286 L53.12415,56.0794286 L53.12415,51.8802857 L52.27755,51.8802857 L52.27755,56.0794286 L48.1134,56.0794286 L48.1134,56.9331429 L52.27755,56.9331429 L52.27755,61.1322857 L53.12415,61.1322857 L53.12415,56.9331429 L57.2883,56.9331429 L57.2883,56.0794286 L57.2883,56.0794286 Z" id="Fill-8" fill="#FFFFFF" sketch:type="MSShapeGroup"></path>
                <path d="M57.2883,56.0794286 L53.12415,56.0794286 L53.12415,51.8802857 L52.27755,51.8802857 L52.27755,56.0794286 L48.1134,56.0794286 L48.1134,56.9331429 L52.27755,56.9331429 L52.27755,61.1322857 L53.12415,61.1322857 L53.12415,56.9331429 L57.2883,56.9331429 L57.2883,56.0794286 L57.2883,56.0794286 Z" id="Stroke-9" stroke="#FFFFFF" stroke-linecap="round" stroke-linejoin="round" sketch:type="MSShapeGroup"></path>
            </g>
        </g>
    </g>
</svg>