<?xml version="1.0" encoding="utf-8"?>
<!-- Generator: Adobe Illustrator 18.1.0, SVG Export Plug-In . SVG Version: 6.00 Build 0)  -->
<svg version="1.1" id="Layer_1" xmlns="http://www.w3.org/2000/svg" xmlns:xlink="http://www.w3.org/1999/xlink" x="0px" y="0px"
	 viewBox="0 0 58.7 67.5" enable-background="new 0 0 58.7 67.5" xml:space="preserve">
<path fill="#009245" d="M29.3,0C26.3,0,0,0.2,0,6.9c0,0.2,0,0.3,0,0.5l6.5,54.5c0.3,5.3,19,5.6,22.8,5.6s22.6-0.3,22.8-5.6l6.5-54.5
	c0-0.2,0-0.3,0-0.5C58.7,0.2,32.3,0,29.3,0z M29.3,3c15.6,0,25,2.4,26.3,3.9c0,0-0.1,0.1-0.1,0.1c0,0-0.1,0.1-0.2,0.1
	c-0.1,0.1-0.2,0.1-0.2,0.2c-0.1,0-0.2,0.1-0.3,0.2c-0.1,0.1-0.2,0.1-0.3,0.2c-0.1,0.1-0.2,0.1-0.3,0.2C54,7.9,53.9,7.9,53.7,8
	c-0.1,0.1-0.3,0.1-0.4,0.2c-0.2,0.1-0.3,0.1-0.5,0.2c-0.2,0.1-0.3,0.1-0.5,0.2c-0.2,0.1-0.4,0.1-0.6,0.2c-0.2,0.1-0.4,0.1-0.6,0.2
	c-0.2,0.1-0.5,0.1-0.7,0.2c-0.2,0.1-0.5,0.1-0.7,0.2c-0.3,0.1-0.5,0.1-0.8,0.2c-0.3,0.1-0.5,0.1-0.8,0.1c-0.3,0.1-0.6,0.1-0.9,0.2
	c-0.3,0-0.6,0.1-0.8,0.1c-0.3,0.1-0.7,0.1-1,0.1c-0.3,0-0.6,0.1-0.9,0.1c-0.4,0-0.7,0.1-1.1,0.1c-0.3,0-0.6,0.1-1,0.1
	c-0.4,0-0.8,0.1-1.2,0.1c-0.3,0-0.7,0.1-1,0.1c-0.4,0-0.9,0.1-1.4,0.1c-0.3,0-0.7,0.1-1,0.1c-0.5,0-1,0.1-1.5,0.1
	c-0.4,0-0.7,0-1.1,0.1c-0.6,0-1.2,0-1.8,0.1c-0.3,0-0.6,0-1,0c-0.9,0-1.9,0-2.9,0c-1,0-2,0-2.9,0c-0.3,0-0.7,0-1,0
	c-0.6,0-1.2,0-1.7-0.1c-0.4,0-0.8,0-1.2-0.1c-0.5,0-0.9,0-1.4-0.1c-0.5,0-0.9-0.1-1.3-0.1c-0.4,0-0.7,0-1.1-0.1
	c-0.5,0-1-0.1-1.5-0.1c-0.3,0-0.5,0-0.8-0.1c-0.6-0.1-1.1-0.1-1.6-0.2c-0.1,0-0.3,0-0.4-0.1c-0.6-0.1-1.2-0.2-1.8-0.3
	c0,0-0.1,0-0.1,0C7,8.9,3.8,7.8,3.1,6.9C4.3,5.5,13.7,3,29.3,3z"/>
</svg>
