<?xml version="1.0" encoding="utf-8"?>
<!-- Generator: Adobe Illustrator 21.0.0, SVG Export Plug-In . SVG Version: 6.00 Build 0)  -->
<svg version="1.1" id="Layer_1" xmlns="http://www.w3.org/2000/svg" xmlns:xlink="http://www.w3.org/1999/xlink" x="0px" y="0px"
	 viewBox="0 0 408.4 361.5" enable-background="new 0 0 408.4 361.5" xml:space="preserve">
<g transform="translate(0.000000,365.000000) scale(0.100000,-0.100000)">
	<path fill="#0C9ED9" d="M577,3631c-58-27-72-59-76-174l-4-97l1543-3l1544-2l-4,102c-3,114-17,144-79,175c-32,17-122,18-1459,18
		C679,3650,615,3649,577,3631z"/>
	<path fill="#0C9ED9" d="M278,2887L0,2586l5-57c15-169,174-328,349-348c127-16,240,22,333,110c59,56,109,143,120,211l8,43l13-52
		c32-126,112-224,224-277c60-29,73-31,175-31c98,0,116,3,165,26c109,51,198,159,230,279l12,45l15-55c77-301,459-405,679-185
		c58,58,88,110,108,188l14,52l12-45c31-118,122-229,225-276c197-91,443-5,537,188c15,30,30,75,34,99l7,43l17-60
		c68-248,335-376,566-270c120,55,220,190,231,313l5,60l-278,301l-279,301H2042H557L278,2887z"/>
	<path fill="#0C9ED9" d="M3302,1571v-461H2042H782v455c0,250-2,455-5,455c-2,0-31-18-65-39c-33-21-94-50-135-62l-75-24l-1-45
		c0-25-1-422-1-883c-1-815,0-840,19-865c11-14,32-35,47-46c27-21,29-21,1474-21h1447l34,24c64,46,61,4,61,964v875l-47,11
		c-55,14-155,62-200,97l-33,25V1571z"/>
</g>
</svg>
