<?xml version="1.0" encoding="UTF-8" standalone="no"?>
<svg width="80px" height="55px" viewBox="0 0 80 55" version="1.1" xmlns="http://www.w3.org/2000/svg" xmlns:xlink="http://www.w3.org/1999/xlink" xmlns:sketch="http://www.bohemiancoding.com/sketch/ns">
    <!-- Generator: Sketch 3.2.2 (9983) - http://www.bohemiancoding.com/sketch -->
    <title>Fill 3 + Group</title>
    <desc>Created with Sketch.</desc>
    <defs></defs>
    <g id="Page-1" stroke="none" stroke-width="1" fill="none" fill-rule="evenodd" sketch:type="MSPage">
        <g id="CLC_KB_Home_3v3c" sketch:type="MSArtboardGroup" transform="translate(-504.000000, -266.000000)">
            <g id="Fill-3-+-Group" sketch:type="MSLayerGroup" transform="translate(505.000000, 266.000000)">
                <path d="M31.282,39.7595439 L23.814,36.9123525 L23.814,32.8066881 C25.93,30.8637639 27.344,27.5144334 27.344,24.5307686 C27.344,19.9938063 24.074,16.3152726 20.041,16.3152726 C16.007,16.3152726 12.737,19.9938063 12.737,24.5307686 C12.737,27.5144334 14.152,30.8637639 16.267,32.8066881 L16.267,36.9123525 L8.668,39.7595439 C6.874,40.4273264 5.702,42.004585 5.702,43.9891804 L5.702,47.4343549 L34.38,47.4343549 L34.38,43.9891804 C34.38,42.004585 33.077,40.4273264 31.282,39.7595439 L31.282,39.7595439 Z" id="Fill-3" fill="#009245" sketch:type="MSShapeGroup"></path>
                <g id="Group" sketch:type="MSShapeGroup">
                    <path d="M70.314,49.8210784 C70.314,51.3222868 69.145,52.5390887 67.704,52.5390887 L3.285,52.5390887 C1.844,52.5390887 0.676,51.3222868 0.676,49.8210784 L0.676,12.6419478 C0.676,11.1407394 1.844,9.9239375 3.285,9.9239375 L67.704,9.9239375 C69.145,9.9239375 70.314,11.1407394 70.314,12.6419478 L70.314,49.8210784 L70.314,49.8210784 Z" id="Stroke-1" stroke="#009245" stroke-width="3" stroke-linecap="round" stroke-linejoin="round"></path>
                    <path d="M42.214,22.2159281 L64.467,22.2159281 M42.214,31.9180477 L64.467,31.9180477 M42.214,41.6201672 L64.467,41.6201672" id="Stroke-2" stroke="#009245" stroke-width="4" stroke-linecap="round" stroke-linejoin="round"></path>
                    <path d="M23.814,36.9123525 L23.814,32.8066881 C25.93,30.8637639 27.344,27.5144334 27.344,24.5307686 C27.344,19.9938063 24.074,16.3152726 20.041,16.3152726 C16.007,16.3152726 12.737,19.9938063 12.737,24.5307686 C12.737,27.5144334 14.152,30.8637639 16.267,32.8066881 L16.267,36.9123525 L8.668,39.7595439 C6.874,40.4273264 5.702,42.004585 5.702,43.9891804 L5.702,47.4343549 L34.38,47.4343549 L34.38,43.9891804 C34.38,42.004585 33.077,40.4273264 31.282,39.7595439 L23.814,36.9123525 Z" id="Stroke-4" stroke="#009245" stroke-width="3"></path>
                    <path d="M74.733,18.0727595 C74.495,18.0727595 74.255,18.0123361 74.035,17.8925311 L70.314,15.8548047 L66.592,17.8925311 C66.372,18.0123361 66.132,18.0727595 65.894,18.0727595 C65.583,18.0727595 65.273,17.9717066 65.012,17.7737679 C64.55,17.4247708 64.319,16.8319966 64.415,16.2454731 L65.126,11.9272851 L62.115,8.87069549 C61.706,8.45502431 61.559,7.83412199 61.735,7.26843414 C61.912,6.7027463 62.381,6.29020046 62.946,6.20477431 L67.107,5.57449595 L68.968,1.64593449 C69.221,1.11358368 69.743,0.776046181 70.314,0.776046181 C70.884,0.776046181 71.406,1.11358368 71.659,1.64593449 L73.52,5.57449595 L77.681,6.20477431 C78.246,6.29020046 78.715,6.7027463 78.892,7.26843414 C79.068,7.83412199 78.921,8.45502431 78.512,8.87069549 L75.501,11.9272851 L76.212,16.2454731 C76.308,16.8319966 76.077,17.4247708 75.615,17.7737679 C75.354,17.9717066 75.044,18.0727595 74.733,18.0727595" id="Fill-5" fill="#009245"></path>
                </g>
            </g>
        </g>
    </g>
</svg>