<?xml version="1.0" encoding="utf-8"?>
<!-- Generator: Adobe Illustrator 18.1.0, SVG Export Plug-In . SVG Version: 6.00 Build 0)  -->
<svg version="1.1" id="Layer_1" xmlns="http://www.w3.org/2000/svg" xmlns:xlink="http://www.w3.org/1999/xlink" x="0px" y="0px"
	 viewBox="0 0 70.7 75.8" enable-background="new 0 0 70.7 75.8" xml:space="preserve">
<path fill="none" d="M51.7,14.4c-3.1-4.4-7.6-7.9-12.8-9.8c2.2,2.5,4.1,5.8,5.4,9.8H51.7z"/>
<path fill="none" d="M31.4,3.2v11.2h9.7C38.8,8.4,35.3,4.1,31.4,3.2z"/>
<path fill="none" d="M14.4,17.4H6c-1.7,3.3-2.8,7-3,11h9.9C13,24.5,13.5,20.8,14.4,17.4z"/>
<path fill="none" d="M18.5,14.4h9.9V3.1C24.4,3.9,20.8,8.3,18.5,14.4z"/>
<path fill="none" d="M20.7,4.6C15.4,6.5,11,10,7.9,14.4h7.4C16.6,10.4,18.4,7.1,20.7,4.6z"/>
<path fill="none" d="M7.4,44.4c3.1,4.8,7.8,8.5,13.3,10.5c-2.3-2.6-4.3-6.2-5.6-10.5H7.4z"/>
<path fill="none" d="M12.9,31.4H3.1c0.2,3.6,1.1,6.9,2.6,10h8.5C13.5,38.3,13,35,12.9,31.4z"/>
<path fill="#009245" d="M29.8,0C29.8,0,29.8,0,29.8,0C29.8,0,29.8,0,29.8,0C29.8,0,29.8,0,29.8,0z"/>
<path fill="#009245" d="M29.8,0L29.8,0C21.6,0,14.1,3.3,8.7,8.7C3.3,14.1,0,21.6,0,29.8c0,15.3,11.6,28,26.6,29.6
	c-0.2-0.7-0.3-1.1-0.3-1.2c0-0.2-0.1-0.5-0.1-0.7v-1.9c-3.3-1.8-6.1-5.8-7.9-11.1h7.9v-3h-8.9c-0.8-3.1-1.3-6.4-1.4-10h10.3v-2.6
	c0-0.1,0-0.3,0-0.4H15.9c0.1-3.9,0.7-7.7,1.6-11h10.9v7.9c0.1,0,0.2-0.1,0.2-0.1c0.9-0.4,1.9-0.4,2.8-0.1v-7.6H42
	c0.8,2.8,1.3,6,1.5,9.3c1.1-0.5,2-1.2,2.5-1.9c0.1-0.1,0.2-0.2,0.3-0.3c-0.2-2.5-0.7-4.8-1.2-7h8.3c1.6,3,2.6,6.4,2.9,9.9
	c1,0.3,2,0.6,3.1,0.7C58.5,12.4,45.6,0,29.8,0z M6,17.4h8.3c-0.8,3.4-1.4,7.1-1.5,11H3C3.2,24.5,4.3,20.7,6,17.4z M3.1,31.4h9.9
	c0.1,3.6,0.5,6.9,1.3,10H5.7C4.2,38.4,3.3,35,3.1,31.4z M20.6,54.9c-5.5-2-10.1-5.7-13.3-10.5H15C16.4,48.7,18.3,52.3,20.6,54.9z
	 M28.4,14.4h-9.9c2.3-6.2,5.9-10.5,9.9-11.3V14.4z M29.8,3C29.8,3,29.8,3,29.8,3C29.8,3,29.8,3,29.8,3c-3.2,0-6.3,0.6-9.1,1.6
	c-2.2,2.5-4.1,5.8-5.4,9.8H7.9C11,10,15.4,6.5,20.6,4.6C23.5,3.6,26.6,3,29.8,3C29.8,3,29.8,3,29.8,3L29.8,3c0.5,0,1.1,0,1.6,0.1
	C30.9,3,30.3,3,29.8,3z M31.4,14.4V3.2c3.9,0.9,7.4,5.2,9.7,11.2H31.4z M44.3,14.4c-1.3-4-3.2-7.3-5.4-9.8c5.2,1.9,9.6,5.3,12.7,9.8
	H44.3z"/>
<path fill="#009245" d="M51.4,27.4C51.4,27.3,51.4,27.3,51.4,27.4c-0.2-0.2-0.3-0.3-0.4-0.4C51.2,27.1,51.3,27.3,51.4,27.4z"/>
<path fill="#009245" d="M69.8,28.4C69.8,28.4,69.7,28.4,69.8,28.4c-0.2-0.4-0.5-0.8-0.9-0.9c-0.6-0.2-1.2-0.1-1.6,0.3
	c-2,2-3.8,2.7-6.9,2.7c-3.2,0-6.7-1.3-8.9-3.2c-0.1-0.1-0.3-0.2-0.4-0.4c-0.2-0.2-0.5-0.4-0.6-0.7c-0.6-0.7-1.8-0.7-2.4,0
	c-2,2.4-6.1,4.2-9.9,4.2c-3.1,0-4.8-0.7-6.9-2.7c-0.4-0.4-1.1-0.6-1.6-0.3c-0.6,0.2-0.9,0.8-0.9,1.4v28.6c0,0.1,0,0.2,0,0.3
	c0.1,0.3,0.9,4.9,5.8,9.5c3,3.1,7.7,6.4,15.3,8.6c0.1,0,0.3,0.1,0.4,0.1s0.3,0,0.4-0.1c17.8-5,20-16.6,20.1-17.1c0-0.1,0-0.2,0-0.3
	V29.8C70.7,29.2,70.4,28.7,69.8,28.4z M49,56.2c-1.1,1.9-0.7,3.7,0,5.1c-1.9-0.8-5.2-2.6-6.2-5.2c-1.4-3.7,0.9-5.8,2.6-7.4
	c0.3-0.3,0.6-0.6,0.8-0.8c1.3-1.4,2.7-3.2,2.7-5.3c0-0.8-0.1-1.5-0.2-2.1c0.7,0.5,1.8,1.2,2.5,2c1,1.1,1.7,2.2,2.5,3.7
	c0.2,1.5,0.1,2.7-0.2,3.6c-0.4,1.1-1.3,2.3-2.3,3.5C50.4,54.2,49.6,55.2,49,56.2z M57.1,54.7c-0.2,1.6-1.9,4-3.6,5.2
	c-0.9,0.7-1.8,1.2-2.5,1.6c-0.8-1.3-1.5-2.8-0.5-4.6c0.5-0.9,1.3-1.9,2.1-2.8c1.1-1.4,2.1-2.6,2.6-4c0.1-0.4,0.2-0.8,0.3-1.3
	l0.1,0.3C56.5,50.9,57.4,52.7,57.1,54.7z"/>
</svg>
