<?xml version="1.0" encoding="utf-8"?>
<!-- Generator: Adobe Illustrator 18.1.0, SVG Export Plug-In . SVG Version: 6.00 Build 0)  -->
<svg version="1.1" id="Layer_1" xmlns="http://www.w3.org/2000/svg" xmlns:xlink="http://www.w3.org/1999/xlink" x="0px" y="0px"
	 viewBox="0 0 85.5 43.5" enable-background="new 0 0 85.5 43.5" xml:space="preserve">
<g>
	<g>
		<path fill="#009245" d="M1.3,10.7c-0.7,0-1.3,0.6-1.3,1.3s0.6,1.3,1.3,1.3h22v-2.7H1.3z"/>
		<path fill="#009245" d="M8.1,19.2c-0.7,0-1.3,0.6-1.3,1.3c0,0.7,0.6,1.3,1.3,1.3h15.3v-2.7H8.1z"/>
		<path fill="#009245" d="M14.8,27.7c-0.7,0-1.3,0.6-1.3,1.3c0,0.7,0.6,1.3,1.3,1.3h8.5v-2.7H14.8z"/>
	</g>
	<path fill="#009245" d="M84.5,0.1c-0.1,0-0.1,0-0.2-0.1c0,0-0.1,0-0.1,0c-0.2,0-0.3,0-0.5,0H26c-0.4,0-0.7,0-1,0.3c0,0,0,0,0,0
		c-0.1,0.1-0.2,0.1-0.2,0.1c-0.1,0.1-0.1,0.1-0.1,0.2c0,0.1-0.1,0.1-0.1,0.2c0,0.1-0.1,0.2-0.1,0.3c0,0.1-0.1,0.3-0.1,0.4
		c0,0,0,0,0,0c0,0,0,0,0,0V42c0,0.8,0.7,1.5,1.5,1.5H84c0.8,0,1.5-0.7,1.5-1.5V1.5C85.5,0.9,85.1,0.3,84.5,0.1z M80.3,3L54.9,28.3
		L29.5,3H80.3z M82.5,40.5H27.3V5.1l26.5,26.4c0.3,0.3,0.7,0.4,1.1,0.4s0.8-0.1,1.1-0.4L82.5,5V40.5z"/>
</g>
</svg>
