<?xml version="1.0" encoding="utf-8"?>
<!-- Generator: Adobe Illustrator 21.1.0, SVG Export Plug-In . SVG Version: 6.00 Build 0)  -->
<svg version="1.1" id="Layer_1" xmlns="http://www.w3.org/2000/svg" xmlns:xlink="http://www.w3.org/1999/xlink" x="0px" y="0px"
	 viewBox="0 0 440 333.5" style="enable-background:new 0 0 440 333.5;" xml:space="preserve">
<style type="text/css">
	.st0{fill:#818181;}
	.st1{fill:#068643;}
	.st2{fill:#FFFFFF;}
</style>
<g id="Private_Cloud">
	<path class="st0" d="M110.7,186.4c-0.4-3.1-0.6-6.2-0.6-9.3c0-40.1,32.6-72.8,72.8-72.8c15.5,0,30.3,4.9,42.6,13.8
		c7.1-11.1,16.4-20.6,27.4-28.1c16.2-11,35.1-16.8,54.7-16.8c2.1,0,4.3,0.1,6.4,0.2C308.3,32,272.6,0,229.5,0
		c-35.4,0-65.8,21.6-78.7,52.4c-11.1-13-27.6-21.3-46-21.3c-33.4,0-60.4,27-60.4,60.4c0,5.7,0.8,11.3,2.3,16.5
		C19.4,118,0,144.2,0,174.9c0,38,29.7,69,67.2,71.1C71.8,220.6,87.9,198.3,110.7,186.4z"/>
	<path class="st1" d="M390.2,192.6c1.8-6.9,2.8-14.2,2.8-21.6c0-47.1-38.2-85.4-85.4-85.4c-35.4,0-65.8,21.6-78.7,52.4
		c-11.1-13-27.6-21.3-46-21.3c-33.4,0-60.4,27.1-60.4,60.4c0,5.7,0.8,11.3,2.3,16.6c-27.2,10-46.7,37-46.7,67.7
		c0,39.3,31.8,72.1,71.2,72.1h219.5c39.4,0,71.2-32.8,71.2-72.1C440,229.5,419.1,201.7,390.2,192.6z"/>
	<path class="st2" d="M304,274.7c0,2.5-1.1,5.8-3.6,5.8H218c-2.5,0-5-3.3-5-5.8v-55.2c0-2.5,2.5-4,5-4h4v-7.6
		c0-20.8,16.3-37.8,36.5-37.8S295,187,295,207.9v7.6h5.4c2.5,0,3.6,1.5,3.6,4V274.7z"/>
	<path class="st1" d="M258,182.5c-13.5,0-24,11.4-24,25.5v7.6h48V208C282,193.9,271.5,182.5,258,182.5z"/>
</g>
</svg>
