<?xml version="1.0" encoding="utf-8"?>
<!-- Generator: Adobe Illustrator 18.1.0, SVG Export Plug-In . SVG Version: 6.00 Build 0)  -->
<svg version="1.1" id="Layer_1" xmlns="http://www.w3.org/2000/svg" xmlns:xlink="http://www.w3.org/1999/xlink" x="0px" y="0px"
	 viewBox="0 0 63 78.6" enable-background="new 0 0 63 78.6" xml:space="preserve">
<g>
	<path fill="#0C9ED9" d="M61.5,12h-3.7V9.5c0-0.8-0.7-1.5-1.5-1.5H39.7c-0.3-4.4-4-8-8.5-8S23,3.5,22.7,8H6.1C5.3,8,4.6,8.7,4.6,9.5
		V12H1.5C0.7,12,0,12.7,0,13.5v63.6c0,0.8,0.7,1.5,1.5,1.5h60c0.8,0,1.5-0.7,1.5-1.5V13.5C63,12.7,62.3,12,61.5,12z M7.6,11h16.7
		c0.4,0,0.8-0.2,1.1-0.5c0.3-0.3,0.4-0.8,0.4-1.2c0-0.3-0.1-0.5-0.1-0.8c0-3,2.5-5.5,5.5-5.5s5.5,2.5,5.5,5.5c0,0.2,0,0.5-0.1,0.8
		c-0.1,0.4,0.1,0.9,0.4,1.2c0.3,0.3,0.7,0.5,1.1,0.5h16.7v3.6H7.6V11z M53.2,17.5v50.9H9.8V17.5H53.2z M60,75.6H3V15h1.6v1
		c0,0.8,0.7,1.5,1.5,1.5h0.7V70c0,0.8,0.7,1.5,1.5,1.5h46.4c0.8,0,1.5-0.7,1.5-1.5V17.5h0.1c0.8,0,1.5-0.7,1.5-1.5v-1H60V75.6z"/>
	<circle fill="#0C9ED9" cx="31.2" cy="8.5" r="1.9"/>
	<path fill="#0C9ED9" d="M46.2,38.9h-1.9c-0.2-0.8-0.6-1.5-0.9-2.2l1.4-1.4c0.9-0.9,0.9-2.4,0-3.2l-2.6-2.6c-0.9-0.9-2.4-0.9-3.2,0
		l-1.4,1.4c-0.7-0.4-1.5-0.7-2.2-0.9V28c0-1.3-1-2.3-2.3-2.3h-3.6c-1.3,0-2.3,1-2.3,2.3V30c-0.8,0.2-1.5,0.5-2.2,0.9l-1.4-1.4
		c-0.9-0.9-2.4-0.9-3.2,0l-2.6,2.6c-0.4,0.4-0.7,1-0.7,1.6c0,0.6,0.2,1.2,0.7,1.6l1.4,1.4c-0.4,0.7-0.7,1.5-0.9,2.2h-1.9
		c-1.3,0-2.3,1-2.3,2.3v3.6c0,1.3,1,2.3,2.3,2.3h1.9c0.2,0.8,0.5,1.5,0.9,2.2l-1.4,1.4c-0.9,0.9-0.9,2.4,0,3.2l2.6,2.6
		c0.9,0.9,2.4,0.9,3.2,0l1.4-1.4c0.7,0.4,1.5,0.7,2.2,0.9V58c0,1.3,1,2.3,2.3,2.3H33c1.3,0,2.3-1,2.3-2.3v-1.9
		c0.8-0.2,1.5-0.6,2.2-0.9l1.4,1.4c0.9,0.9,2.4,0.9,3.2,0l2.6-2.6c0.9-0.9,0.9-2.3,0-3.2l-1.4-1.4c0.4-0.7,0.7-1.5,0.9-2.2h1.9
		c1.3,0,2.3-1,2.3-2.3v-3.6C48.5,39.9,47.4,38.9,46.2,38.9z M30.5,47.9c-2.2-0.3-4-2-4.2-4.2c-0.4-3.2,2.3-5.9,5.5-5.5
		c2.2,0.3,4,2,4.2,4.2C36.5,45.6,33.8,48.3,30.5,47.9z"/>
</g>
</svg>
