<?xml version="1.0" encoding="utf-8"?>
<!-- Generator: Adobe Illustrator 18.1.0, SVG Export Plug-In . SVG Version: 6.00 Build 0)  -->
<svg version="1.1" id="Layer_1" xmlns="http://www.w3.org/2000/svg" xmlns:xlink="http://www.w3.org/1999/xlink" x="0px" y="0px"
	 viewBox="0 0 87 48.5" enable-background="new 0 0 87 48.5" xml:space="preserve">
<g>
	<g>
		<path fill="#009245" d="M87,11.9v18.2c0,5.5-4.5,9.9-9.9,9.9H58.9l-1.2-2l-0.1-0.2l4-2.5c0.1-0.1,0.2-0.2,0.4-0.3h13.2
			c3.8,0,6.9-3.1,6.9-6.9V9.9C82,6.1,78.9,3,75.1,3H9.9C6.1,3,3,6.1,3,9.9v18.2C3,31.9,6.1,35,9.9,35h28.8l0.3,3l0.2,2H11.9
			c-3.2,0-6.1-1.6-7.9-4c-2.4-1.8-4-4.7-4-7.9V9.9C0,4.4,4.5,0,9.9,0h65.2c3.2,0,6.1,1.6,7.9,4C85.4,5.8,87,8.7,87,11.9z"/>
		<polygon fill="#009245" points="59,45.8 53.4,36.8 60,32.7 40.2,20.1 42.6,43.5 49,39.5 54.6,48.5 		"/>
	</g>
	<g>
		<g>
			<path fill="#009245" d="M38.1,18c-0.5,0-1-0.3-1.3-0.8l-3.1-5.4c-0.4-0.7-0.2-1.6,0.6-2c0.7-0.4,1.6-0.2,2,0.6l3.1,5.4
				c0.4,0.7,0.2,1.6-0.6,2C38.6,18,38.3,18,38.1,18z"/>
		</g>
		<g>
			<path fill="#009245" d="M43.6,17.7c-0.1,0-0.3,0-0.4-0.1c-0.8-0.2-1.3-1.1-1-1.9l1.7-6c0.2-0.8,1.1-1.3,1.9-1
				c0.8,0.2,1.3,1.1,1,1.9l-1.7,6C44.9,17.2,44.3,17.7,43.6,17.7z"/>
		</g>
		<g>
			<path fill="#009245" d="M48,20.8c-0.5,0-0.9-0.2-1.2-0.7c-0.5-0.7-0.3-1.6,0.4-2.1l5.1-3.5c0.7-0.5,1.6-0.3,2.1,0.4
				c0.5,0.7,0.3,1.6-0.4,2.1l-5.1,3.5C48.6,20.7,48.3,20.8,48,20.8z"/>
		</g>
		<g>
			<path fill="#009245" d="M35.2,22.4c-0.1,0-0.3,0-0.4-0.1l-6-1.6c-0.8-0.2-1.3-1-1.1-1.8c0.2-0.8,1-1.3,1.8-1.1l6,1.6
				c0.8,0.2,1.3,1,1.1,1.8C36.4,22,35.8,22.4,35.2,22.4z"/>
		</g>
		<g>
			<path fill="#009245" d="M29.9,30.4c-0.6,0-1.1-0.3-1.4-0.9c-0.3-0.8,0-1.6,0.7-2l5.7-2.6c0.8-0.3,1.6,0,2,0.7
				c0.3,0.8,0,1.6-0.7,2l-5.7,2.6C30.4,30.3,30.2,30.4,29.9,30.4z"/>
		</g>
	</g>
</g>
</svg>
