<?xml version="1.0" encoding="utf-8"?>
<!-- Generator: Adobe Illustrator 18.1.0, SVG Export Plug-In . SVG Version: 6.00 Build 0)  -->
<svg version="1.1" id="Layer_1" xmlns="http://www.w3.org/2000/svg" xmlns:xlink="http://www.w3.org/1999/xlink" x="0px" y="0px"
	 viewBox="0 0 72.5 68.6" enable-background="new 0 0 72.5 68.6" xml:space="preserve">
<g>
	<path fill="#0C9ED9" d="M45.5,41.8c-3.8-1.3-6.9-2.5-7.7-2.9c-0.3-0.7-0.1-3.3,0.4-5.8c4.2-3.9,7-10.4,7-16.3
		C45.2,7.6,38.2,0,29.5,0c-8.7,0-15.7,7.6-15.7,16.9c0,5.9,2.8,12.3,7,16.3c0.4,2.5,0.6,5,0.3,5.8c-1.3,0.7-8.1,3.1-14.3,5
		C2.6,45.5,0,49.1,0,53.3v2.4c0,0.8,0.7,1.5,1.5,1.5h39.7c-0.2-1-0.4-2-0.4-3c0-0.2,0-0.5,0-0.7c0-3.4,1-6.5,2.8-9.2
		C44.1,43.4,44.7,42.6,45.5,41.8z"/>
	<path fill="#0C9ED9" d="M57.4,38.4c-8.3,0-15.1,6.8-15.1,15.1s6.8,15.1,15.1,15.1c8.3,0,15.1-6.8,15.1-15.1S65.8,38.4,57.4,38.4z
		 M45.1,53.5c0-6.8,5.5-12.3,12.3-12.3s12.3,5.5,12.3,12.3s-5.5,12.3-12.3,12.3S45.1,60.3,45.1,53.5z"/>
	<path fill="#0C9ED9" d="M58.1,55.2c0.6,0.2,1.2,0.4,1.8,0.4c1.2,0,2.4-0.5,3.3-1.4c1.4-1.4,1.7-3.4,1-5.1c-0.1-0.1-0.2-0.2-0.3-0.2
		c-0.1,0-0.3,0-0.3,0.1l-0.7,0.7c0,0-0.1,0.1-0.1,0.1l-1.3,2.6l-2.6-0.4l-0.4-2.6L61,48c0.1,0,0.1-0.1,0.2-0.1l0.7-0.7
		C62,47.1,62,47,62,46.9c0-0.1-0.1-0.2-0.2-0.3c-1.7-0.7-3.8-0.3-5.1,1c-1.3,1.3-1.7,3.3-1,5.1l-7.1,6.9c0.7,1.1,1.7,2,2.7,2.8
		L58.1,55.2z"/>
</g>
</svg>
