<?xml version="1.0" encoding="UTF-8" standalone="no"?>
<svg width="26px" height="24px" viewBox="0 0 26 24" version="1.1" xmlns="http://www.w3.org/2000/svg" xmlns:xlink="http://www.w3.org/1999/xlink" xmlns:sketch="http://www.bohemiancoding.com/sketch/ns">
    <!-- Generator: Sketch 3.2.2 (9983) - http://www.bohemiancoding.com/sketch -->
    <title>Rectangle 25 + Imported Layers + YES 2</title>
    <desc>Created with Sketch.</desc>
    <defs></defs>
    <g id="Knowledge-Base" stroke="none" stroke-width="1" fill="none" fill-rule="evenodd" sketch:type="MSPage">
        <g id="CLC_KB_Article" sketch:type="MSArtboardGroup" transform="translate(-416.000000, -833.000000)">
            <g id="Rectangle-25-+-Imported-Layers-+-YES-2" sketch:type="MSLayerGroup" transform="translate(416.000000, 833.000000)">
                <rect id="Rectangle-25" stroke="#BBBBBB" fill="#F5F5F5" sketch:type="MSShapeGroup" x="0" y="0" width="26" height="24" rx="3"></rect>
                <path d="M14.0833333,13.6909091 C14.0833333,14.4507273 14.6100397,14.5090909 15.3281349,14.5090909 L18.984127,14.5090909 C19.8353175,14.5090909 20.531746,13.7727273 20.531746,12.8727273 L20.531746,11.2363636 C20.531746,10.3363636 19.8353175,9.6 18.984127,9.6 L15.3281349,9.6 C14.6100397,9.6 14.0833333,10.2038182 14.0833333,10.9636364 M12.0198413,13.6909091 C12.0198413,14.4507273 11.4931349,14.5090909 10.7750397,14.5090909 L7.11904762,14.5090909 C6.26785714,14.5090909 5.57142857,13.7727273 5.57142857,12.8727273 L5.57142857,11.2363636 C5.57142857,10.3363636 6.26785714,9.6 7.11904762,9.6 L10.7750397,9.6 C11.4931349,9.6 12.0198413,10.2038182 12.0198413,10.9636364 M9.44047619,12.3272727 L16.6626984,12.3272727" id="Imported-Layers" stroke="#231F1F" stroke-linecap="round" stroke-linejoin="round" opacity="0.595615672" sketch:type="MSShapeGroup"></path>
            </g>
        </g>
    </g>
</svg>