<?xml version="1.0" encoding="utf-8"?>
<!-- Generator: Adobe Illustrator 18.1.0, SVG Export Plug-In . SVG Version: 6.00 Build 0)  -->
<svg version="1.1" id="Layer_1" xmlns="http://www.w3.org/2000/svg" xmlns:xlink="http://www.w3.org/1999/xlink" x="0px" y="0px"
	 viewBox="0 0 54.4 52.5" enable-background="new 0 0 54.4 52.5" xml:space="preserve">
<path fill="#0C9ED9" d="M52.4,24.9l-0.9-0.2v-0.3C51.5,10.9,40.6,0,27.2,0S2.9,10.9,2.9,24.3v0.3L2,24.9c-1.5,0.4-2.4,2-1.9,3.5
	L3,38.4c0.4,1.5,2,2.4,3.5,1.9l4.4-1.3c1.5-0.4,2.4-2,1.9-3.5L9.9,25.5c-0.4-1.5-2-2.4-3.5-1.9l-0.5,0.1C6.2,12.2,15.6,3,27.2,3
	s21,9.2,21.3,20.7L48,23.6c-1.5-0.4-3.1,0.4-3.5,1.9l-2.9,10.1c-0.4,1.5,0.4,3.1,1.9,3.5l1.2,0.3c-1.4,5.4-6.3,9.2-11.8,9.4
	c-0.1-0.6-0.6-1.1-1.3-1.1l-4.8,0.1c-0.7,0-1.3,0.6-1.3,1.3l0.1,2.1c0,0.7,0.6,1.3,1.3,1.3l4.8-0.1c0.7,0,1.3-0.6,1.3-1.3l0-0.5
	c6.2-0.2,11.7-4.5,13.4-10.6l1.5,0.4c1.5,0.4,3.1-0.4,3.5-1.9l2.9-10.1C54.7,26.9,53.9,25.3,52.4,24.9z"/>
</svg>
