<?xml version="1.0" encoding="utf-8"?>
<!-- Generator: Adobe Illustrator 18.1.0, SVG Export Plug-In . SVG Version: 6.00 Build 0)  -->
<svg version="1.1" id="Layer_1" xmlns="http://www.w3.org/2000/svg" xmlns:xlink="http://www.w3.org/1999/xlink" x="0px" y="0px"
	 viewBox="0 0 70.2 69.4" enable-background="new 0 0 70.2 69.4" xml:space="preserve">
<g>
	<path fill="#009245" d="M16.7,0C7.5,0,0,7.5,0,16.7s7.5,16.7,16.7,16.7s16.7-7.5,16.7-16.7S25.8,0,16.7,0z M16.7,30.3
		C9.1,30.3,3,24.2,3,16.7S9.1,3,16.7,3s13.7,6.1,13.7,13.7S24.2,30.3,16.7,30.3z"/>
	<path fill="#009245" d="M21.9,15.7h-4.3v-4.3c0-0.3-0.2-0.5-0.5-0.5h-1c-0.3,0-0.5,0.2-0.5,0.5v4.3h-4.3c-0.3,0-0.5,0.2-0.5,0.5v1
		c0,0.3,0.2,0.5,0.5,0.5h4.3v4.3c0,0.3,0.2,0.5,0.5,0.5h1c0.3,0,0.5-0.2,0.5-0.5v-4.3h4.3c0.3,0,0.5-0.2,0.5-0.5v-1
		C22.4,15.9,22.2,15.7,21.9,15.7z"/>
	<path fill="#009245" d="M60.3,30.3c0.3,0.5,0.8,0.7,1.3,0.7c0.3,0,0.5-0.1,0.8-0.2c1.5-0.9,2.8-2.1,4-3.4c0.5-0.6,0.5-1.6-0.2-2.1
		c-0.6-0.5-1.6-0.4-2.1,0.2c-0.9,1.1-2,2.1-3.3,2.8C60.1,28.7,59.9,29.6,60.3,30.3z"/>
	<path fill="#009245" d="M39.3,23.4c0.2,0,0.3,0,0.5-0.1c0.8-0.3,1.2-1.1,0.9-1.9c-0.5-1.4-0.8-2.8-0.8-4.2c0-0.8-0.7-1.5-1.5-1.4
		c-0.8,0-1.5,0.7-1.4,1.5c0.1,1.8,0.4,3.5,1,5.2C38.2,23,38.7,23.4,39.3,23.4z"/>
	<path fill="#009245" d="M66.2,11.5c0.2,0.6,0.8,0.9,1.4,0.9c0.2,0,0.4,0,0.6-0.1c0.8-0.3,1.1-1.2,0.8-2c-0.7-1.6-1.6-3.2-2.7-4.5
		c-0.5-0.6-1.5-0.7-2.1-0.2c-0.6,0.5-0.7,1.5-0.2,2.1C65,9,65.7,10.2,66.2,11.5z"/>
	<path fill="#009245" d="M38.8,12.9C39,13,39.1,13,39.3,13c0.6,0,1.2-0.4,1.4-1c0.5-1.4,1.2-2.6,2.1-3.8c0.5-0.7,0.4-1.6-0.3-2.1
		c-0.7-0.5-1.6-0.4-2.1,0.3c-1.1,1.4-2,2.9-2.6,4.6C37.6,11.8,38,12.6,38.8,12.9z"/>
	<path fill="#009245" d="M55.9,3.2c1.4,0.2,2.8,0.7,4.1,1.4c0.2,0.1,0.5,0.2,0.7,0.2c0.5,0,1.1-0.3,1.3-0.8c0.4-0.7,0.1-1.6-0.6-2
		c-1.6-0.8-3.2-1.4-5-1.7c-0.8-0.1-1.6,0.4-1.7,1.2C54.5,2.3,55.1,3.1,55.9,3.2z"/>
	<path fill="#009245" d="M46,5c0.3,0,0.5-0.1,0.8-0.2c1.3-0.7,2.6-1.3,4-1.6c0.8-0.2,1.3-1,1.2-1.8c-0.2-0.8-1-1.3-1.8-1.2
		c-1.7,0.4-3.4,1-4.9,1.9c-0.7,0.4-1,1.3-0.5,2.1C44.9,4.8,45.4,5,46,5z"/>
	<path fill="#009245" d="M41.3,25.7c-0.6,0.6-0.7,1.5-0.1,2.1c1.2,1.3,2.6,2.4,4.1,3.3c0.2,0.1,0.5,0.2,0.7,0.2c0.5,0,1-0.3,1.3-0.8
		c0.4-0.7,0.2-1.6-0.5-2c-1.3-0.7-2.4-1.6-3.4-2.7C42.9,25.2,41.9,25.1,41.3,25.7z"/>
	<path fill="#009245" d="M56.5,33.1c0.8-0.1,1.4-0.9,1.2-1.7c-0.1-0.8-0.9-1.4-1.7-1.2c-1.4,0.2-2.9,0.3-4.3,0.1
		c-0.8-0.1-1.6,0.5-1.7,1.3c-0.1,0.8,0.5,1.6,1.3,1.7c0.8,0.1,1.6,0.2,2.4,0.2C54.6,33.3,55.5,33.2,56.5,33.1z"/>
	<path fill="#009245" d="M70.2,16.6c0-0.8-0.7-1.5-1.5-1.5c-0.8,0-1.5,0.7-1.5,1.5c0,1.5-0.2,2.9-0.7,4.3c-0.3,0.8,0.2,1.6,1,1.9
		c0.2,0.1,0.3,0.1,0.5,0.1c0.6,0,1.2-0.4,1.4-1C70,20.2,70.2,18.4,70.2,16.6"/>
	<path fill="#009245" d="M47.8,16.2v1c0,0.3,0.2,0.5,0.5,0.5h4.3v4.3c0,0.3,0.2,0.5,0.5,0.5h1c0.3,0,0.5-0.2,0.5-0.5v-4.3h4.3
		c0.3,0,0.5-0.2,0.5-0.5v-1c0-0.3-0.2-0.5-0.5-0.5h-4.3v-4.3c0-0.3-0.2-0.5-0.5-0.5h-1c-0.3,0-0.5,0.2-0.5,0.5v4.3h-4.3
		C48,15.7,47.8,15.9,47.8,16.2z"/>
	<path fill="#009245" d="M21.9,51.8h-4.3v-4.3c0-0.3-0.2-0.5-0.5-0.5h-1c-0.3,0-0.5,0.2-0.5,0.5v4.3h-4.3c-0.3,0-0.5,0.2-0.5,0.5v1
		c0,0.3,0.2,0.5,0.5,0.5h4.3V58c0,0.3,0.2,0.5,0.5,0.5h1c0.3,0,0.5-0.2,0.5-0.5v-4.3h4.3c0.3,0,0.5-0.2,0.5-0.5v-1
		C22.4,52,22.2,51.8,21.9,51.8z"/>
	<path fill="#009245" d="M50.1,36.5c-1.7,0.4-3.4,1-4.9,1.9c-0.7,0.4-1,1.3-0.5,2.1c0.3,0.5,0.8,0.7,1.3,0.7c0.3,0,0.5-0.1,0.8-0.2
		c1.3-0.7,2.6-1.3,4-1.6c0.8-0.2,1.3-1,1.2-1.8S50.9,36.3,50.1,36.5z"/>
	<path fill="#009245" d="M56,66.2c-1.4,0.2-2.9,0.3-4.3,0.1c-0.8-0.1-1.6,0.5-1.7,1.3c-0.1,0.8,0.5,1.6,1.3,1.7
		c0.8,0.1,1.6,0.2,2.4,0.2c1,0,2-0.1,2.9-0.3c0.8-0.1,1.4-0.9,1.2-1.7C57.6,66.6,56.8,66.1,56,66.2z"/>
	<path fill="#009245" d="M46.8,64.6c-1.3-0.7-2.4-1.6-3.4-2.7c-0.6-0.6-1.5-0.7-2.1-0.1c-0.6,0.6-0.7,1.5-0.1,2.1
		c1.2,1.3,2.6,2.4,4.1,3.3c0.2,0.1,0.5,0.2,0.7,0.2c0.5,0,1-0.3,1.3-0.8C47.7,66,47.5,65,46.8,64.6z"/>
	<path fill="#009245" d="M40.7,57.5c-0.5-1.4-0.8-2.8-0.8-4.2c0-0.8-0.7-1.5-1.5-1.4c-0.8,0-1.5,0.7-1.4,1.5c0.1,1.8,0.4,3.5,1,5.2
		c0.2,0.6,0.8,1,1.4,1c0.2,0,0.3,0,0.5-0.1C40.6,59.1,41,58.3,40.7,57.5z"/>
	<path fill="#009245" d="M64.2,41.9c-0.6,0.5-0.7,1.5-0.2,2.1c0.9,1.1,1.7,2.4,2.2,3.7c0.2,0.6,0.8,0.9,1.4,0.9c0.2,0,0.4,0,0.6-0.1
		c0.8-0.3,1.1-1.2,0.8-2c-0.7-1.6-1.6-3.2-2.7-4.5C65.8,41.4,64.8,41.3,64.2,41.9z"/>
	<path fill="#009245" d="M70.2,52.7c0-0.8-0.7-1.5-1.5-1.5c-0.8,0-1.5,0.7-1.5,1.5c0,1.5-0.2,2.9-0.7,4.3c-0.3,0.8,0.2,1.6,1,1.9
		C67.7,59,67.8,59,68,59c0.6,0,1.2-0.4,1.4-1C70,56.3,70.2,54.6,70.2,52.7"/>
	<path fill="#009245" d="M62,40.1c0.4-0.7,0.1-1.6-0.6-2c-1.6-0.8-3.2-1.4-5-1.7c-0.8-0.1-1.6,0.4-1.7,1.2c-0.1,0.8,0.4,1.6,1.2,1.7
		c1.4,0.2,2.8,0.7,4.1,1.4c0.2,0.1,0.5,0.2,0.7,0.2C61.2,40.9,61.8,40.6,62,40.1z"/>
	<path fill="#009245" d="M40.5,42.5c-1.1,1.4-2,2.9-2.6,4.6c-0.3,0.8,0.1,1.6,0.9,1.9c0.2,0.1,0.3,0.1,0.5,0.1c0.6,0,1.2-0.4,1.4-1
		c0.5-1.4,1.2-2.6,2.1-3.8c0.5-0.7,0.4-1.6-0.3-2.1C41.9,41.8,41,41.9,40.5,42.5z"/>
	<path fill="#009245" d="M64,61.6c-0.9,1.1-2,2.1-3.3,2.8c-0.7,0.4-0.9,1.4-0.5,2.1c0.3,0.5,0.8,0.7,1.3,0.7c0.3,0,0.5-0.1,0.8-0.2
		c1.5-0.9,2.8-2.1,4-3.4c0.5-0.6,0.5-1.6-0.2-2.1C65.5,60.8,64.6,60.9,64,61.6z"/>
	<path fill="#009245" d="M19,66.2c-1.4,0.2-2.9,0.3-4.3,0.1c-0.8-0.1-1.6,0.5-1.7,1.3c-0.1,0.8,0.5,1.6,1.3,1.7
		c0.8,0.1,1.6,0.2,2.4,0.2c1,0,2-0.1,2.9-0.3c0.8-0.1,1.4-0.9,1.2-1.7C20.6,66.6,19.9,66.1,19,66.2z"/>
	<path fill="#009245" d="M27.1,61.6c-0.9,1.1-2,2.1-3.3,2.8c-0.7,0.4-0.9,1.4-0.5,2.1c0.3,0.5,0.8,0.7,1.3,0.7
		c0.3,0,0.5-0.1,0.8-0.2c1.5-0.9,2.8-2.1,4-3.4c0.5-0.6,0.5-1.6-0.2-2.1C28.6,60.8,27.7,60.9,27.1,61.6z"/>
	<path fill="#009245" d="M3.8,57.5c-0.5-1.4-0.8-2.8-0.8-4.2c0-0.8-0.7-1.5-1.5-1.4c-0.8,0-1.5,0.7-1.4,1.5c0.1,1.8,0.4,3.5,1,5.2
		c0.2,0.6,0.8,1,1.4,1c0.2,0,0.3,0,0.5-0.1C3.7,59.1,4.1,58.3,3.8,57.5z"/>
	<path fill="#009245" d="M30.7,48.6c0.2,0,0.4,0,0.6-0.1c0.8-0.3,1.1-1.2,0.8-2c-0.7-1.6-1.6-3.2-2.7-4.5c-0.5-0.6-1.5-0.7-2.1-0.2
		c-0.6,0.5-0.7,1.5-0.2,2.1c0.9,1.1,1.7,2.4,2.2,3.7C29.6,48.2,30.1,48.6,30.7,48.6z"/>
	<path fill="#009245" d="M31.8,51.3c-0.8,0-1.5,0.7-1.5,1.5c0,1.5-0.2,2.9-0.7,4.3c-0.3,0.8,0.2,1.6,1,1.9c0.2,0.1,0.3,0.1,0.5,0.1
		c0.6,0,1.2-0.4,1.4-1c0.5-1.7,0.8-3.4,0.8-5.2v0C33.3,51.9,32.6,51.3,31.8,51.3z"/>
	<path fill="#009245" d="M25.1,40.1c0.4-0.7,0.1-1.6-0.6-2c-1.6-0.8-3.2-1.4-5-1.7c-0.8-0.1-1.6,0.4-1.7,1.2
		c-0.1,0.8,0.4,1.6,1.2,1.7c1.4,0.2,2.8,0.7,4.1,1.4c0.2,0.1,0.5,0.2,0.7,0.2C24.3,40.9,24.8,40.6,25.1,40.1z"/>
	<path fill="#009245" d="M2.4,49.1c0.6,0,1.2-0.4,1.4-1c0.5-1.4,1.2-2.6,2.1-3.8c0.5-0.7,0.4-1.6-0.3-2.1C5,41.8,4,41.9,3.5,42.5
		c-1.1,1.4-2,2.9-2.6,4.6c-0.3,0.8,0.1,1.6,0.9,1.9C2.1,49.1,2.2,49.1,2.4,49.1z"/>
	<path fill="#009245" d="M9.8,64.6c-1.3-0.7-2.4-1.6-3.4-2.7c-0.6-0.6-1.5-0.7-2.1-0.1c-0.6,0.6-0.7,1.5-0.1,2.1
		c1.2,1.3,2.6,2.4,4.1,3.3c0.2,0.1,0.5,0.2,0.7,0.2c0.5,0,1-0.3,1.3-0.8C10.8,66,10.6,65,9.8,64.6z"/>
	<path fill="#009245" d="M9,41.2c0.3,0,0.5-0.1,0.8-0.2c1.3-0.7,2.6-1.3,4-1.6c0.8-0.2,1.3-1,1.2-1.8s-1-1.3-1.8-1.2
		c-1.7,0.4-3.4,1-4.9,1.9c-0.7,0.4-1,1.3-0.5,2.1C8,40.9,8.5,41.2,9,41.2z"/>
	<path fill="#009245" d="M58.8,51.8h-4.3v-4.3c0-0.3-0.2-0.5-0.5-0.5h-1c-0.3,0-0.5,0.2-0.5,0.5v4.3h-4.3c-0.3,0-0.5,0.2-0.5,0.5v1
		c0,0.3,0.2,0.5,0.5,0.5h4.3V58c0,0.3,0.2,0.5,0.5,0.5h1c0.3,0,0.5-0.2,0.5-0.5v-4.3h4.3c0.3,0,0.5-0.2,0.5-0.5v-1
		C59.3,52,59.1,51.8,58.8,51.8z"/>
</g>
</svg>
