<?xml version="1.0" encoding="utf-8"?>
<!-- Generator: Adobe Illustrator 18.1.0, SVG Export Plug-In . SVG Version: 6.00 Build 0)  -->
<svg version="1.1" id="Layer_1" xmlns="http://www.w3.org/2000/svg" xmlns:xlink="http://www.w3.org/1999/xlink" x="0px" y="0px"
	 viewBox="0 0 78.3 49.7" enable-background="new 0 0 78.3 49.7" xml:space="preserve">
<g>
	<path fill="#009245" d="M65.3,21.1H43c-1.1,0-2-0.9-2-2s0.9-2,2-2h22.3c1.1,0,2,0.9,2,2S66.4,21.1,65.3,21.1z"/>
</g>
<g>
	<path fill="#009245" d="M65.3,30.4H43c-1.1,0-2-0.9-2-2s0.9-2,2-2h22.3c1.1,0,2,0.9,2,2S66.4,30.4,65.3,30.4z"/>
</g>
<g>
	<path fill="#009245" d="M65.3,39.7H43c-1.1,0-2-0.9-2-2s0.9-2,2-2h22.3c1.1,0,2,0.9,2,2S66.4,39.7,65.3,39.7z"/>
</g>
<path fill="#009245" d="M32.6,34.5l-6.5-2.4v-2.2c2.1-2.2,3.5-5.5,3.5-8.6c0-5.2-3.9-9.4-8.8-9.4s-8.8,4.2-8.8,9.4
	c0,3.1,1.4,6.4,3.5,8.6v2.2L9,34.5c-2.4,0.9-4,3-4,5.5v4.8h31.7V40C36.7,37.5,35.1,35.4,32.6,34.5z"/>
<polygon fill="#009245" points="73.3,4.5 71.1,0 68.9,4.5 64,5.2 67.6,8.7 66.7,13.6 71.1,11.3 75.6,13.6 74.7,8.7 78.3,5.2 "/>
<g>
	<path fill="#009245" d="M64.1,8.8l-59.9,0C3.5,8.8,3,9.3,3,9.9v35.7c0,0.6,0.5,1.1,1.1,1.1h64.4c0.6,0,1.1-0.5,1.1-1.1V15.5
		l1.5-0.8l1.5,0.8v30.1c0,2.3-1.8,4.1-4.1,4.1H4.1c-2.3,0-4.1-1.8-4.1-4.1V9.9c0-2.3,1.8-4.1,4.1-4.1H61L64.1,8.8z"/>
</g>
</svg>
