<?xml version="1.0" encoding="utf-8"?>
<!-- Generator: Adobe Illustrator 18.1.0, SVG Export Plug-In . SVG Version: 6.00 Build 0)  -->
<svg version="1.1" id="Layer_1" xmlns="http://www.w3.org/2000/svg" xmlns:xlink="http://www.w3.org/1999/xlink" x="0px" y="0px"
	 viewBox="0 0 28.3 21.7" enable-background="new 0 0 28.3 21.7" xml:space="preserve">
<g>
	<g>
		<path fill="#009245" d="M19.4,10.8c0,0.2-0.1,0.3-0.2,0.4l-7.6,4.4c-0.1,0-0.2,0.1-0.2,0.1c-0.1,0-0.2,0-0.2-0.1
			c-0.2-0.1-0.2-0.3-0.2-0.4V6.4c0-0.2,0.1-0.3,0.2-0.4c0.2-0.1,0.3-0.1,0.5,0l7.6,4.4C19.3,10.5,19.4,10.7,19.4,10.8z"/>
	</g>
	<g>
		<path fill="#009245" d="M24,21.7H4.4c-2.4,0-4.4-2-4.4-4.4v-13C0,2,2,0,4.4,0H24c2.4,0,4.4,2,4.4,4.4v13
			C28.3,19.7,26.4,21.7,24,21.7z M4.4,1.5c-1.6,0-2.9,1.3-2.9,2.9v13c0,1.6,1.3,2.9,2.9,2.9H24c1.6,0,2.9-1.3,2.9-2.9v-13
			c0-1.6-1.3-2.9-2.9-2.9H4.4z"/>
	</g>
</g>
</svg>
