<?xml version="1.0" encoding="utf-8"?>
<!-- Generator: Adobe Illustrator 18.1.0, SVG Export Plug-In . SVG Version: 6.00 Build 0)  -->
<svg version="1.1" id="Layer_1" xmlns="http://www.w3.org/2000/svg" xmlns:xlink="http://www.w3.org/1999/xlink" x="0px" y="0px"
	 viewBox="0 0 59.8 64.8" enable-background="new 0 0 59.8 64.8" xml:space="preserve">
<path fill="#009245" d="M12,41.3c-4.9,0-9-4-9-9c0-4.9,4-9,9-9c0.8,0,1.5-0.7,1.5-1.5s-0.7-1.5-1.5-1.5c-6.6,0-12,5.4-12,12
	c0,6.6,5.4,12,12,12c0.8,0,1.5-0.7,1.5-1.5S12.8,41.3,12,41.3z"/>
<path fill="#009245" d="M59.8,12c0-3.2-1.2-6.2-3.5-8.5C54.1,1.3,51.1,0,47.9,0c0,0,0,0,0,0c-3.2,0-6.2,1.2-8.4,3.5
	c-0.6,0.6-0.6,1.5,0,2.1c0.6,0.6,1.5,0.6,2.1,0C43.2,3.9,45.5,3,47.8,3c0,0,0,0,0,0c2.4,0,4.6,0.9,6.3,2.6c1.7,1.7,2.6,3.9,2.6,6.3
	s-0.9,4.6-2.6,6.3c-0.3,0.3-0.4,0.7-0.4,1.1v26.1c0,0.4,0.2,0.8,0.4,1.1c1.7,1.7,2.6,3.9,2.6,6.3s-0.9,4.6-2.6,6.3
	c-3.5,3.5-9.2,3.5-12.7,0c-0.6-0.6-1.5-0.6-2.1,0c-0.6,0.6-0.6,1.5,0,2.1c2.3,2.3,5.4,3.5,8.4,3.5c3.1,0,6.1-1.2,8.5-3.5
	c2.3-2.3,3.5-5.3,3.5-8.5c0-3-1.1-5.8-3.1-8V20C58.7,17.8,59.8,15,59.8,12z"/>
<path fill="#009245" d="M53,47.7c-1.4-1.4-3.2-2.2-5.2-2.2c0,0-0.1,0-0.1,0c-1.9,0-3.7,0.8-5.1,2.2c-0.1,0.1-0.2,0.3-0.3,0.4
	L19,34.6c0.2-0.7,0.4-1.5,0.4-2.3S19.2,30.7,19,30l23.2-13.4c0.2,0.2,0.3,0.4,0.5,0.5c1.4,1.4,3.2,2.1,5.1,2.2c0,0,0.1,0,0.1,0
	c0,0,0,0,0,0c2,0,3.8-0.8,5.2-2.2c2.9-2.9,2.9-7.6,0-10.4c-1.4-1.4-3.2-2.2-5.2-2.2c-2,0-3.8,0.8-5.2,2.2c-1.4,1.4-2.2,3.2-2.2,5.2
	c0,0.7,0.1,1.4,0.3,2L17.5,27.4c-1.4-1.5-3.3-2.5-5.5-2.5c-4.1,0-7.4,3.3-7.4,7.4s3.3,7.4,7.4,7.4c2.2,0,4.1-1,5.5-2.5l23.4,13.5
	c-0.8,2.5-0.2,5.4,1.8,7.4c1.4,1.4,3.2,2.2,5.2,2.2c2,0,3.8-0.8,5.2-2.2C55.9,55.2,55.9,50.5,53,47.7z M44.7,8.9
	c0.8-0.8,1.9-1.3,3.1-1.3c1.2,0,2.3,0.5,3.1,1.3c1.7,1.7,1.7,4.5,0,6.2c-0.8,0.8-1.9,1.3-3.1,1.3c-1.2,0-2.3-0.5-3.1-1.3
	c-0.8-0.8-1.3-1.9-1.3-3.1S43.9,9.7,44.7,8.9z M12,36.7c-2.4,0-4.4-2-4.4-4.4s2-4.4,4.4-4.4c2.4,0,4.4,2,4.4,4.4S14.4,36.7,12,36.7z
	 M50.9,56c-0.8,0.8-1.9,1.3-3.1,1.3c-1.2,0-2.3-0.5-3.1-1.3c-1.7-1.7-1.7-4.5,0-6.2c0.8-0.8,1.9-1.3,3.1-1.3c1.2,0,2.3,0.5,3.1,1.3
	C52.6,51.5,52.6,54.3,50.9,56z"/>
</svg>
