<?xml version="1.0" encoding="utf-8"?>
<!-- Generator: Adobe Illustrator 18.1.0, SVG Export Plug-In . SVG Version: 6.00 Build 0)  -->
<svg version="1.1" id="Layer_1" xmlns="http://www.w3.org/2000/svg" xmlns:xlink="http://www.w3.org/1999/xlink" x="0px" y="0px"
	 viewBox="0 0 73.8 79.1" enable-background="new 0 0 73.8 79.1" xml:space="preserve">
<path fill="#009245" d="M10.1,62.5c-2.2,0-4,1.8-4,4s1.8,4,4,4s4-1.8,4-4S12.3,62.5,10.1,62.5z M10.1,68c-0.8,0-1.5-0.7-1.5-1.5
	S9.3,65,10.1,65s1.5,0.7,1.5,1.5S10.9,68,10.1,68z"/>
<circle fill="#009245" cx="64" cy="62.1" r="1.1"/>
<circle fill="#009245" cx="64" cy="66.5" r="1.1"/>
<circle fill="#009245" cx="64" cy="71" r="1.1"/>
<g>
	<path fill="#009245" d="M72.7,59.5c-0.4-2-2.1-3.5-4.2-3.5H5.1c-2.4,0-4.3,1.9-4.3,4.3v12.4c0,1.1,0.4,2.1,1.1,2.8
		c0.4,2,2.1,3.5,4.2,3.5h63.4c2.4,0,4.3-1.9,4.3-4.3V62.4C73.8,61.3,73.4,60.3,72.7,59.5z M69.8,72.8c0,0.7-0.6,1.3-1.3,1.3H5.1
		c-0.7,0-1.3-0.6-1.3-1.3V60.4c0-0.7,0.6-1.3,1.3-1.3h63.4c0.7,0,1.3,0.6,1.3,1.3V72.8z"/>
	<path fill="#009245" d="M19,62.5c-2.2,0-4,1.8-4,4s1.8,4,4,4s4-1.8,4-4S21.2,62.5,19,62.5z M19,68c-0.8,0-1.5-0.7-1.5-1.5
		S18.2,65,19,65s1.5,0.7,1.5,1.5S19.8,68,19,68z"/>
	<circle fill="#009245" cx="59.6" cy="62.1" r="1.1"/>
	<circle fill="#009245" cx="55.1" cy="62.1" r="1.1"/>
	<circle fill="#009245" cx="50.7" cy="62.1" r="1.1"/>
	<circle fill="#009245" cx="46.2" cy="62.1" r="1.1"/>
	<circle fill="#009245" cx="41.8" cy="62.1" r="1.1"/>
	<circle fill="#009245" cx="37.3" cy="62.1" r="1.1"/>
	<circle fill="#009245" cx="32.9" cy="62.1" r="1.1"/>
	<circle fill="#009245" cx="28.4" cy="62.1" r="1.1"/>
	<circle fill="#009245" cx="59.6" cy="66.5" r="1.1"/>
	<circle fill="#009245" cx="55.1" cy="66.5" r="1.1"/>
	<circle fill="#009245" cx="50.7" cy="66.5" r="1.1"/>
	<circle fill="#009245" cx="46.2" cy="66.5" r="1.1"/>
	<circle fill="#009245" cx="41.8" cy="66.5" r="1.1"/>
	<circle fill="#009245" cx="37.3" cy="66.5" r="1.1"/>
	<circle fill="#009245" cx="32.9" cy="66.5" r="1.1"/>
	<circle fill="#009245" cx="28.4" cy="66.5" r="1.1"/>
	<circle fill="#009245" cx="59.6" cy="71" r="1.1"/>
	<circle fill="#009245" cx="55.1" cy="71" r="1.1"/>
	<circle fill="#009245" cx="50.7" cy="71" r="1.1"/>
	<circle fill="#009245" cx="46.2" cy="71" r="1.1"/>
	<circle fill="#009245" cx="41.8" cy="71" r="1.1"/>
	<circle fill="#009245" cx="37.3" cy="71" r="1.1"/>
	<circle fill="#009245" cx="32.9" cy="71" r="1.1"/>
	<circle fill="#009245" cx="28.4" cy="71" r="1.1"/>
	<g>
		<g>
			<polygon fill="#009245" points="18.3,47.6 14.4,51.4 16.8,51.4 16.8,53.9 19.7,53.9 19.7,51.4 22.1,51.4 			"/>
		</g>
		<g>
			<polygon fill="#009245" points="54.4,47.6 50.6,51.4 53,51.4 53,53.9 55.9,53.9 55.9,51.4 58.3,51.4 			"/>
		</g>
	</g>
	<g>
		<path fill="#009245" d="M65.9,20.9h-4.1c-0.8,0-1.5-0.7-1.5-1.5s0.7-1.5,1.5-1.5h4.1c0.8,0,1.5,0.7,1.5,1.5S66.7,20.9,65.9,20.9z
			 M56.6,20.9h-4.1c-0.8,0-1.5-0.7-1.5-1.5s0.7-1.5,1.5-1.5h4.1c0.8,0,1.5,0.7,1.5,1.5S57.4,20.9,56.6,20.9z M47.4,20.9h-4.1
			c-0.8,0-1.5-0.7-1.5-1.5s0.7-1.5,1.5-1.5h4.1c0.8,0,1.5,0.7,1.5,1.5S48.2,20.9,47.4,20.9z M38.2,20.9h-4.1c-0.8,0-1.5-0.7-1.5-1.5
			s0.7-1.5,1.5-1.5h4.1c0.8,0,1.5,0.7,1.5,1.5S39,20.9,38.2,20.9z M29,20.9h-4.1c-0.8,0-1.5-0.7-1.5-1.5s0.7-1.5,1.5-1.5H29
			c0.8,0,1.5,0.7,1.5,1.5S29.8,20.9,29,20.9z M19.8,20.9h-4.1c-0.8,0-1.5-0.7-1.5-1.5s0.7-1.5,1.5-1.5h4.1c0.8,0,1.5,0.7,1.5,1.5
			S20.6,20.9,19.8,20.9z M10.6,20.9H6.5c-0.8,0-1.5-0.7-1.5-1.5s0.7-1.5,1.5-1.5h4.1c0.8,0,1.5,0.7,1.5,1.5S11.4,20.9,10.6,20.9z
			 M2.2,18.7c-0.5,0-1-0.3-1.3-0.7C0.3,17,0,15.9,0,14.7v-1.6c0-0.8,0.7-1.5,1.5-1.5S3,12.4,3,13.2v1.6c0,0.6,0.2,1.1,0.5,1.6
			c0.4,0.7,0.2,1.6-0.5,2.1C2.7,18.6,2.4,18.7,2.2,18.7z M70,18.3c-0.2,0-0.5-0.1-0.7-0.2c-0.7-0.4-1-1.3-0.7-2
			c0.2-0.4,0.3-0.9,0.3-1.4v-1.9c0-0.8,0.7-1.5,1.5-1.5S72,12,72,12.8v1.9c0,1-0.2,1.9-0.6,2.7C71.1,18,70.5,18.3,70,18.3z M1.5,9.6
			C0.7,9.6,0,8.9,0,8.1V6.2c0-1,0.2-1.9,0.7-2.8c0.4-0.7,1.3-1,2-0.7c0.7,0.4,1,1.3,0.7,2C3.1,5.2,3,5.7,3,6.2v1.9
			C3,8.9,2.3,9.6,1.5,9.6z M70.5,9.2c-0.8,0-1.5-0.7-1.5-1.5V6.2c0-0.6-0.2-1.2-0.5-1.6c-0.4-0.7-0.2-1.6,0.5-2.1
			C69.7,2,70.6,2.2,71.1,3C71.6,3.9,72,5,72,6.2v1.5C72,8.5,71.3,9.2,70.5,9.2z M65.5,3h-4.1c-0.8,0-1.5-0.7-1.5-1.5S60.5,0,61.4,0
			h4.1C66.3,0,67,0.7,67,1.5S66.3,3,65.5,3z M56.2,3h-4.1c-0.8,0-1.5-0.7-1.5-1.5S51.3,0,52.2,0h4.1c0.8,0,1.5,0.7,1.5,1.5
			S57.1,3,56.2,3z M47,3H43c-0.8,0-1.5-0.7-1.5-1.5S42.1,0,43,0H47c0.8,0,1.5,0.7,1.5,1.5S47.9,3,47,3z M37.8,3h-4.1
			c-0.8,0-1.5-0.7-1.5-1.5S32.9,0,33.7,0h4.1c0.8,0,1.5,0.7,1.5,1.5S38.7,3,37.8,3z M28.6,3h-4.1C23.7,3,23,2.3,23,1.5
			S23.7,0,24.5,0h4.1c0.8,0,1.5,0.7,1.5,1.5S29.5,3,28.6,3z M19.4,3h-4.1c-0.8,0-1.5-0.7-1.5-1.5S14.5,0,15.3,0h4.1
			c0.8,0,1.5,0.7,1.5,1.5S20.3,3,19.4,3z M10.2,3H6.2C5.3,3,4.6,2.3,4.6,1.5S5.3,0,6.1,0h4.1c0.8,0,1.5,0.7,1.5,1.5S11.1,3,10.2,3z"
			/>
	</g>
	<g>
		<path fill="#009245" d="M65.9,45.2h-4.1c-0.8,0-1.5-0.7-1.5-1.5s0.7-1.5,1.5-1.5h4.1c0.8,0,1.5,0.7,1.5,1.5S66.7,45.2,65.9,45.2z
			 M56.6,45.2h-4.1c-0.8,0-1.5-0.7-1.5-1.5s0.7-1.5,1.5-1.5h4.1c0.8,0,1.5,0.7,1.5,1.5S57.4,45.2,56.6,45.2z M47.4,45.2h-4.1
			c-0.8,0-1.5-0.7-1.5-1.5s0.7-1.5,1.5-1.5h4.1c0.8,0,1.5,0.7,1.5,1.5S48.2,45.2,47.4,45.2z M38.2,45.2h-4.1c-0.8,0-1.5-0.7-1.5-1.5
			s0.7-1.5,1.5-1.5h4.1c0.8,0,1.5,0.7,1.5,1.5S39,45.2,38.2,45.2z M29,45.2h-4.1c-0.8,0-1.5-0.7-1.5-1.5s0.7-1.5,1.5-1.5H29
			c0.8,0,1.5,0.7,1.5,1.5S29.8,45.2,29,45.2z M19.8,45.2h-4.1c-0.8,0-1.5-0.7-1.5-1.5s0.7-1.5,1.5-1.5h4.1c0.8,0,1.5,0.7,1.5,1.5
			S20.6,45.2,19.8,45.2z M10.6,45.2H6.5c-0.8,0-1.5-0.7-1.5-1.5s0.7-1.5,1.5-1.5h4.1c0.8,0,1.5,0.7,1.5,1.5S11.4,45.2,10.6,45.2z
			 M2.2,42.9c-0.5,0-1-0.3-1.3-0.7C0.3,41.2,0,40.1,0,39v-1.6c0-0.8,0.7-1.5,1.5-1.5S3,36.6,3,37.4V39c0,0.6,0.2,1.1,0.5,1.6
			c0.4,0.7,0.2,1.6-0.5,2.1C2.7,42.8,2.4,42.9,2.2,42.9z M70,42.6c-0.2,0-0.5-0.1-0.7-0.2c-0.7-0.4-1-1.3-0.7-2
			C68.8,40,69,39.5,69,39v-1.9c0-0.8,0.7-1.5,1.5-1.5s1.5,0.7,1.5,1.5V39c0,1-0.2,1.9-0.6,2.7C71.1,42.3,70.5,42.6,70,42.6z
			 M1.5,33.8c-0.8,0-1.5-0.7-1.5-1.5v-1.9c0-1,0.2-1.9,0.7-2.8c0.4-0.7,1.3-1,2-0.7c0.7,0.4,1,1.3,0.7,2C3.1,29.4,3,29.9,3,30.4v1.9
			C3,33.1,2.3,33.8,1.5,33.8z M70.5,33.4c-0.8,0-1.5-0.7-1.5-1.5v-1.5c0-0.6-0.2-1.2-0.5-1.6c-0.4-0.7-0.2-1.6,0.5-2.1
			c0.7-0.4,1.6-0.2,2.1,0.5c0.6,1,0.9,2.1,0.9,3.2v1.5C72,32.8,71.3,33.4,70.5,33.4z M65.5,27.2h-4.1c-0.8,0-1.5-0.7-1.5-1.5
			s0.7-1.5,1.5-1.5h4.1c0.8,0,1.5,0.7,1.5,1.5S66.3,27.2,65.5,27.2z M56.2,27.2h-4.1c-0.8,0-1.5-0.7-1.5-1.5s0.7-1.5,1.5-1.5h4.1
			c0.8,0,1.5,0.7,1.5,1.5S57.1,27.2,56.2,27.2z M47,27.2H43c-0.8,0-1.5-0.7-1.5-1.5s0.7-1.5,1.5-1.5H47c0.8,0,1.5,0.7,1.5,1.5
			S47.9,27.2,47,27.2z M37.8,27.2h-4.1c-0.8,0-1.5-0.7-1.5-1.5s0.7-1.5,1.5-1.5h4.1c0.8,0,1.5,0.7,1.5,1.5S38.7,27.2,37.8,27.2z
			 M28.6,27.2h-4.1c-0.8,0-1.5-0.7-1.5-1.5s0.7-1.5,1.5-1.5h4.1c0.8,0,1.5,0.7,1.5,1.5S29.5,27.2,28.6,27.2z M19.4,27.2h-4.1
			c-0.8,0-1.5-0.7-1.5-1.5s0.7-1.5,1.5-1.5h4.1c0.8,0,1.5,0.7,1.5,1.5S20.3,27.2,19.4,27.2z M10.2,27.2H6.2c-0.8,0-1.5-0.7-1.5-1.5
			s0.7-1.5,1.5-1.5h4.1c0.8,0,1.5,0.7,1.5,1.5S11.1,27.2,10.2,27.2z"/>
	</g>
</g>
</svg>
