<?xml version="1.0" encoding="utf-8"?>
<!-- Generator: Adobe Illustrator 18.1.0, SVG Export Plug-In . SVG Version: 6.00 Build 0)  -->
<svg version="1.1" id="Layer_1" xmlns="http://www.w3.org/2000/svg" xmlns:xlink="http://www.w3.org/1999/xlink" x="0px" y="0px"
	 viewBox="0 0 68.2 62.9" enable-background="new 0 0 68.2 62.9" xml:space="preserve">
<path fill="#009245" d="M21.4,12.5c0,0.8,0.7,1.5,1.5,1.5s1.5-0.7,1.5-1.5C24.4,7.3,28.7,3,34,3s9.5,4.3,9.5,9.5
	c0,0.8,0.7,1.5,1.5,1.5s1.5-0.7,1.5-1.5C46.5,5.6,40.9,0,34,0S21.4,5.6,21.4,12.5z"/>
<path fill="#009245" d="M62.4,41.5c-0.6,0.6-0.6,1.5,0,2.1c1.8,1.8,2.8,4.2,2.8,6.7c0,2.5-1,4.9-2.8,6.7c-1.8,1.8-4.2,2.8-6.7,2.8
	c0,0,0,0,0,0c-2.5,0-4.9-1-6.7-2.8c-0.6-0.6-1.5-0.6-2.1,0c-0.6,0.6-0.6,1.5,0,2.1c2.4,2.4,5.5,3.7,8.9,3.7c0,0,0,0,0,0
	c3.3,0,6.5-1.3,8.8-3.7c2.4-2.4,3.7-5.5,3.7-8.9s-1.3-6.5-3.7-8.9C64,40.9,63,40.9,62.4,41.5z"/>
<path fill="#009245" d="M61.1,44.9c-1.5-1.5-3.4-2.3-5.5-2.3c-0.8,0-1.6,0.1-2.4,0.4L39,18.3c1.6-1.4,2.6-3.5,2.6-5.8
	c0-4.2-3.5-7.7-7.7-7.7s-7.7,3.5-7.7,7.7c0,2.3,1,4.4,2.6,5.8L14.7,43c-0.7-0.2-1.4-0.3-2.1-0.3c-2.1,0-4,0.8-5.5,2.3
	c-3,3-3,7.9,0,10.9c1.5,1.4,3.4,2.2,5.4,2.2c2.1,0,4-0.8,5.5-2.3c1.1-1.1,1.8-2.5,2.1-4.1h28c0.3,1.5,1,2.9,2.1,4.1
	c1.5,1.5,3.4,2.3,5.5,2.3c2.1,0,4-0.8,5.4-2.2C64.1,52.8,64.1,47.9,61.1,44.9z M34,7.8c2.6,0,4.7,2.1,4.7,4.7s-2.1,4.7-4.7,4.7
	s-4.7-2.1-4.7-4.7S31.4,7.8,34,7.8z M15.9,53.7c-0.9,0.9-2.1,1.4-3.3,1.4c-1.3,0-2.4-0.5-3.3-1.4c-1.8-1.8-1.8-4.8,0-6.6
	c0.9-0.9,2.1-1.4,3.3-1.4c1.3,0,2.4,0.5,3.3,1.4c0.9,0.9,1.4,2.1,1.4,3.3C17.2,51.6,16.7,52.8,15.9,53.7z M50.3,44.9
	c-1.1,1.1-1.8,2.4-2.1,3.8H20.1c-0.3-1.4-1-2.8-2.1-3.8c-0.2-0.2-0.4-0.4-0.6-0.6l14.2-24.5c0.8,0.3,1.6,0.4,2.5,0.4
	s1.7-0.1,2.5-0.4l14.3,24.7C50.5,44.6,50.4,44.8,50.3,44.9z M59,53.7c-0.9,0.9-2.1,1.4-3.3,1.4c-1.3,0-2.4-0.5-3.3-1.4
	c-0.9-0.9-1.4-2.1-1.4-3.3c0-1.3,0.5-2.4,1.4-3.3c0.9-0.9,2.1-1.4,3.3-1.4c1.3,0,2.4,0.5,3.3,1.4C60.8,48.9,60.8,51.9,59,53.7z"/>
<path fill="#009245" d="M19.3,57.1c-1.8,1.8-4.2,2.8-6.7,2.8c0,0,0,0,0,0c-2.5,0-4.9-1-6.7-2.8C4,55.3,3,52.9,3,50.4
	c0-2.5,1-4.9,2.8-6.7c0.6-0.6,0.6-1.5,0-2.1c-0.6-0.6-1.5-0.6-2.1,0C1.3,43.9,0,47,0,50.4s1.3,6.5,3.7,8.9c2.4,2.4,5.5,3.7,8.8,3.7
	c0,0,0,0,0,0c3.3,0,6.5-1.3,8.9-3.7c0.6-0.6,0.6-1.5,0-2.1C20.8,56.5,19.9,56.5,19.3,57.1z"/>
</svg>
