<?xml version="1.0" encoding="utf-8"?>
<!-- Generator: Adobe Illustrator 18.1.0, SVG Export Plug-In . SVG Version: 6.00 Build 0)  -->
<svg version="1.1" id="Layer_1" xmlns="http://www.w3.org/2000/svg" xmlns:xlink="http://www.w3.org/1999/xlink" x="0px" y="0px"
	 viewBox="0 0 82.5 54.4" enable-background="new 0 0 82.5 54.4" xml:space="preserve">
<g>
	<path fill="none" d="M43,31.1h22.3c1.1,0,2,0.9,2,2s-0.9,2-2,2H43c-1.1,0-2-0.9-2-2S41.9,31.1,43,31.1z M43,40.5h22.3
		c1.1,0,2,0.9,2,2s-0.9,2-2,2H43c-1.1,0-2-0.9-2-2S41.9,40.5,43,40.5z M5,44.7c0-2.5,1.5-4.6,4-5.5l6.6-2.4v-2.2
		c-2.1-2.2-3.5-5.5-3.5-8.6c0-5.2,3.9-9.4,8.8-9.4s8.8,4.2,8.8,9.4c0,3.1-1.4,6.4-3.5,8.6v2.2l6.5,2.4c2.5,0.9,4.1,3,4.1,5.5v4.8H5
		V44.7z"/>
	<path fill="#0C9ED9" d="M69.6,50.3c0,0.6-0.5,1.1-1.1,1.1H4.1c-0.6,0-1.1-0.5-1.1-1.1V14.6c0-0.6,0.5-1.1,1.1-1.1H54
		c0-0.2,0-0.3,0-0.5c0-0.9,0.1-1.7,0.2-2.5h-50c-2.3,0-4.1,1.8-4.1,4.1v35.7c0,2.3,1.8,4.1,4.1,4.1h64.4c2.3,0,4.1-1.8,4.1-4.1V28.2
		c-1,0.2-2,0.3-3,0.3V50.3z"/>
	<path fill="#0C9ED9" d="M41,23.8c0,1.1,0.9,2,2,2h17.6c-1.6-1.1-2.9-2.4-4-4H43C41.9,21.8,41,22.7,41,23.8z"/>
	<path fill="#0C9ED9" d="M43,35.1h22.3c1.1,0,2-0.9,2-2s-0.9-2-2-2H43c-1.1,0-2,0.9-2,2S41.9,35.1,43,35.1z"/>
	<path fill="#0C9ED9" d="M43,44.5h22.3c1.1,0,2-0.9,2-2s-0.9-2-2-2H43c-1.1,0-2,0.9-2,2S41.9,44.5,43,44.5z"/>
	<path fill="#0C9ED9" d="M34.7,40.5L34.7,40.5L34.7,40.5c-0.7-0.6-1.3-1-2.1-1.3l-6.5-2.4v-2.2c2.1-2.2,3.5-5.5,3.5-8.6
		c0-5.2-3.9-9.4-8.8-9.4s-8.8,4.2-8.8,9.4c0,3.1,1.4,6.4,3.5,8.6v2.2L9,39.3c-2.4,0.9-4,3-4,5.5v4.8h31.7v-4.8
		C36.7,43.1,36,41.6,34.7,40.5z"/>
	<path fill="#0C9ED9" d="M69.5,0c-7.2,0-13,5.8-13,13c0,7.2,5.8,13,13,13s13-5.8,13-13C82.5,5.8,76.6,0,69.5,0z M59.4,13
		c0-5.5,4.5-10,10-10s10,4.5,10,10c0,5.5-4.5,10-10,10S59.4,18.6,59.4,13z"/>
	<path fill="#0C9ED9" d="M69.5,12.7c0,0.1-0.2,0.3-0.3,0.3c0.1,0,0.3,0.2,0.3,0.3c0-0.1,0.2-0.3,0.3-0.3
		C69.6,13,69.5,12.9,69.5,12.7z"/>
	<path fill="#0C9ED9" d="M64.3,14h4.2v4.2c0,0.3,0.2,0.5,0.5,0.5h0.9c0.3,0,0.5-0.2,0.5-0.5V14h4.2c0.3,0,0.5-0.2,0.5-0.5v-0.9
		c0-0.3-0.2-0.5-0.5-0.5h-4.2V7.9c0-0.3-0.2-0.5-0.5-0.5H69c-0.3,0-0.5,0.2-0.5,0.5v4.2h-4.2c-0.3,0-0.5,0.2-0.5,0.5v0.9
		C63.8,13.8,64.1,14,64.3,14z M69.5,13.3c0-0.1-0.2-0.3-0.3-0.3c0.1,0,0.3-0.2,0.3-0.3c0,0.1,0.2,0.3,0.3,0.3
		C69.6,13.1,69.5,13.2,69.5,13.3z"/>
</g>
</svg>
