<?xml version="1.0" encoding="utf-8"?>
<!-- Generator: Adobe Illustrator 18.1.0, SVG Export Plug-In . SVG Version: 6.00 Build 0)  -->
<svg version="1.1" id="Layer_1" xmlns="http://www.w3.org/2000/svg" xmlns:xlink="http://www.w3.org/1999/xlink" x="0px" y="0px"
	 viewBox="0 0 67.9 72.7" enable-background="new 0 0 67.9 72.7" xml:space="preserve">
<path fill="none" d="M49.8,14.3c-3-4.4-7.2-7.8-12.2-9.7c2.1,2.4,3.9,5.8,5.2,9.7H49.8z"/>
<path fill="none" d="M29.5,3.1v11.2h10C37.2,8,33.6,3.7,29.5,3.1z"/>
<path fill="none" d="M19.6,4.6c-5,1.9-9.3,5.3-12.3,9.7h7.1C15.7,10.4,17.5,7.1,19.6,4.6z"/>
<path fill="none" d="M13.6,17.3h-8c-1.5,3-2.4,6.4-2.6,10h9.4C12.4,23.7,12.9,20.4,13.6,17.3z"/>
<path fill="none" d="M6.9,42.3c3,4.7,7.4,8.4,12.7,10.4c-2.3-2.6-4.1-6.1-5.4-10.4H6.9z"/>
<path fill="none" d="M17.7,14.3h8.9v-11C22.9,4.5,19.7,8.6,17.7,14.3z"/>
<path fill="none" d="M12.3,30.3H3c0.2,3.2,1,6.2,2.3,9h8.2C12.8,36.5,12.4,33.5,12.3,30.3z"/>
<path fill="#009245" d="M28.6,0C28.6,0,28.6,0,28.6,0C28.6,0,28.6,0,28.6,0C28.6,0,28.6,0,28.6,0z"/>
<path fill="#009245" d="M24.8,54v-0.8c-3-1.8-5.6-5.8-7.3-10.9h7.3v-3h-8.2c-0.7-2.8-1.1-5.8-1.2-9h9.4v-3h-9.4
	c0.1-3.5,0.6-6.9,1.4-10h9.8v6.4c0.1-0.1,0.3-0.1,0.4-0.2c0.8-0.4,1.8-0.3,2.6,0v-6.2h10.9c0.6,2.4,1.1,5,1.3,7.8
	c1.2-0.6,2.2-1.3,2.8-2.1c-0.2-2-0.5-3.9-1-5.7h8.1c1.3,2.5,2.1,5.3,2.5,8.2c1,0.4,2,0.6,3.1,0.8C56,11.6,43.7,0,28.7,0h0
	C20.8,0,13.6,3.2,8.4,8.4C3.2,13.6,0,20.8,0,28.7c0,14.6,11,26.7,25.2,28.4c-0.2-0.6-0.3-0.9-0.3-1c0-0.4-0.1-0.5-0.1-0.7l-0.1-2.2
	 M5.7,17.3h7.9c-0.7,3.1-1.2,6.4-1.3,10h0H3C3.2,23.7,4.2,20.3,5.7,17.3z M3.1,30.3C3.1,30.3,3.1,30.3,3.1,30.3l9.3,0
	c0.1,3.2,0.5,6.2,1.1,9H5.3C4.1,36.5,3.3,33.5,3.1,30.3z M19.6,52.6C14.3,50.7,9.9,47,7,42.3c0,0,0,0,0,0h7.3
	C15.5,46.5,17.3,50.1,19.6,52.6z M14.5,14.3H7.4c3-4.4,7.3-7.8,12.3-9.7C17.6,7.1,15.8,10.4,14.5,14.3z M26.6,14.3h-8.9
	c2-5.7,5.2-9.8,8.9-11V14.3z M29.6,14.3V3.1c4,0.6,7.7,5,9.9,11.2H29.6z M42.7,14.3c-1.3-3.9-3.1-7.3-5.2-9.7c0,0,0.1,0,0.1,0
	c5,1.9,9.3,5.3,12.2,9.7H42.7z"/>
<path fill="#009245" d="M66.9,25.4c-0.6-0.2-1.2-0.1-1.6,0.3c-2,2-3.8,2.7-6.9,2.7c-3.8,0-8-1.8-9.9-4.2c-0.6-0.7-1.8-0.7-2.4,0
	c-2,2.4-6.1,4.2-9.9,4.2c-3.1,0-4.8-0.7-6.9-2.7c-0.4-0.4-1.1-0.6-1.6-0.3c-0.6,0.2-0.9,0.8-0.9,1.4v28.6c0,0.1,0,0.2,0,0.3
	c0.1,0.5,2.3,12.1,20.1,17.1c0.1,0,0.3,0.1,0.4,0.1s0.3,0,0.4-0.1c17.8-5,20-16.6,20.1-17.1c0-0.1,0-0.2,0-0.3V26.7
	C67.9,26.1,67.5,25.6,66.9,25.4z M64.9,55.2c-0.3,1.2-2.7,10.2-17.6,14.5C32.5,65.3,30,56.3,29.8,55.2V29.9c1.8,1.1,3.8,1.6,6.4,1.6
	c4.1,0,8.4-1.6,11.1-4.1c2.7,2.5,7.1,4.1,11.1,4.1c2.6,0,4.6-0.5,6.4-1.6V55.2z"/>
<path fill="#009245" d="M48.8,56c0.5-0.3,1.1-0.7,1.9-1.2c1.4-0.9,2.7-2.8,2.8-4c0.2-1.6-0.5-2.9-1.2-4.4c0,0.3-0.1,0.5-0.2,0.8
	c-0.4,1.1-1.2,2.1-2.1,3.2c-0.6,0.7-1.2,1.5-1.6,2.2C47.7,53.9,48.2,55,48.8,56z"/>
<path fill="#009245" d="M47,55.8c-0.5-1.1-0.7-2.4,0.1-3.9c0.5-0.8,1.1-1.6,1.7-2.4c0.8-1,1.6-1.9,1.8-2.8c0.2-0.7,0.3-1.6,0.2-2.8
	c-0.6-1.1-1.2-2-2-2.9c-0.5-0.5-1.2-1.1-1.8-1.4c0.1,0.4,0.1,0.9,0.1,1.5c-0.1,1.7-1.1,3.1-2.2,4.2c-0.2,0.2-0.4,0.4-0.7,0.6
	c-1.3,1.2-3.1,2.9-2,5.8C43.1,53.8,45.5,55.1,47,55.8z"/>
</svg>
