<?xml version="1.0" encoding="UTF-8" standalone="no"?>
<svg width="63px" height="55px" viewBox="0 0 63 55" version="1.1" xmlns="http://www.w3.org/2000/svg" xmlns:xlink="http://www.w3.org/1999/xlink" xmlns:sketch="http://www.bohemiancoding.com/sketch/ns">
    <!-- Generator: Sketch 3.2.2 (9983) - http://www.bohemiancoding.com/sketch -->
    <title>Imported Layers</title>
    <desc>Created with Sketch.</desc>
    <defs></defs>
    <g id="Page-1" stroke="none" stroke-width="1" fill="none" fill-rule="evenodd" sketch:type="MSPage">
        <g id="CLC_KB_Home_3a" sketch:type="MSArtboardGroup" transform="translate(-149.000000, -803.000000)">
            <g id="Imported-Layers" sketch:type="MSLayerGroup" transform="translate(151.000000, 805.000000)">
                <path d="M10.788,33.176 C9.982,30.999 9.541,28.644 9.541,26.187 L9.541,20.347 C9.541,9.236 18.547,0.23 29.658,0.23 C40.768,0.23 49.774,9.236 49.774,20.347 L49.774,26.187 C49.774,28.644 49.334,30.998 48.528,33.174" id="Stroke-1" stroke="#009245" stroke-width="3" stroke-linecap="round" stroke-linejoin="round" sketch:type="MSShapeGroup"></path>
                <path d="M7.553,20.914 C7.237,20.866 6.915,20.833 6.585,20.833 C3.068,20.833 0.216,23.685 0.216,27.202 L0.216,30.837 C0.216,34.355 3.068,37.206 6.585,37.206 C6.915,37.206 7.237,37.174 7.553,37.126 L7.553,20.914 L7.553,20.914 Z" id="Fill-2" fill="#FFFFFF" sketch:type="MSShapeGroup"></path>
                <path d="M7.553,20.914 C7.237,20.866 6.915,20.833 6.585,20.833 C3.068,20.833 0.216,23.685 0.216,27.202 L0.216,30.837 C0.216,34.355 3.068,37.206 6.585,37.206 C6.915,37.206 7.237,37.174 7.553,37.126 L7.553,20.914 L7.553,20.914 Z" id="Stroke-3" stroke="#009245" stroke-width="3" stroke-linecap="round" stroke-linejoin="round" sketch:type="MSShapeGroup"></path>
                <path d="M11.181,37.092 C11.181,38.094 10.369,38.907 9.367,38.907 C8.365,38.907 7.553,38.094 7.553,37.092 L7.553,20.947 C7.553,19.945 8.365,19.133 9.367,19.133 C10.369,19.133 11.181,19.945 11.181,20.947 L11.181,37.092 L11.181,37.092 Z" id="Fill-4" fill="#FFFFFF" sketch:type="MSShapeGroup"></path>
                <path d="M11.181,37.092 C11.181,38.094 10.369,38.907 9.367,38.907 C8.365,38.907 7.553,38.094 7.553,37.092 L7.553,20.947 C7.553,19.945 8.365,19.133 9.367,19.133 C10.369,19.133 11.181,19.945 11.181,20.947 L11.181,37.092 L11.181,37.092 Z" id="Stroke-5" stroke="#009245" stroke-width="3" stroke-linecap="round" stroke-linejoin="round" sketch:type="MSShapeGroup"></path>
                <path d="M51.739,20.914 C52.055,20.866 52.377,20.833 52.707,20.833 C56.224,20.833 59.076,23.685 59.076,27.202 L59.076,30.837 C59.076,34.355 56.224,37.206 52.707,37.206 C52.377,37.206 52.055,37.174 51.739,37.126 L51.739,20.914 L51.739,20.914 Z" id="Fill-6" fill="#FFFFFF" sketch:type="MSShapeGroup"></path>
                <path d="M51.739,20.914 C52.055,20.866 52.377,20.833 52.707,20.833 C56.224,20.833 59.076,23.685 59.076,27.202 L59.076,30.837 C59.076,34.355 56.224,37.206 52.707,37.206 C52.377,37.206 52.055,37.174 51.739,37.126 L51.739,20.914 L51.739,20.914 Z" id="Stroke-7" stroke="#009245" stroke-width="3" stroke-linecap="round" stroke-linejoin="round" sketch:type="MSShapeGroup"></path>
                <path d="M48.111,37.092 C48.111,38.094 48.923,38.907 49.925,38.907 C50.927,38.907 51.739,38.094 51.739,37.092 L51.739,20.947 C51.739,19.945 50.927,19.133 49.925,19.133 C48.923,19.133 48.111,19.945 48.111,20.947 L48.111,37.092 L48.111,37.092 Z" id="Fill-8" fill="#FFFFFF" sketch:type="MSShapeGroup"></path>
                <path d="M48.111,37.092 C48.111,38.094 48.923,38.907 49.925,38.907 C50.927,38.907 51.739,38.094 51.739,37.092 L51.739,20.947 C51.739,19.945 50.927,19.133 49.925,19.133 C48.923,19.133 48.111,19.945 48.111,20.947 L48.111,37.092 L48.111,37.092 Z" id="Stroke-9" stroke="#009245" stroke-width="3" stroke-linecap="round" stroke-linejoin="round" sketch:type="MSShapeGroup"></path>
                <path d="M49.925,38.907 L48.314,44.181 L30.162,48.967" id="Stroke-10" stroke="#009245" stroke-width="3" stroke-linecap="round" stroke-linejoin="round" sketch:type="MSShapeGroup"></path>
                <path d="M31.996,48.31 C32.183,49.323 31.514,50.297 30.501,50.484 L27.071,51.119 C26.058,51.307 25.084,50.638 24.897,49.624 C24.709,48.611 25.379,47.638 26.392,47.45 L29.821,46.815 C30.835,46.628 31.808,47.297 31.996,48.31 L31.996,48.31 Z" id="Fill-11" fill="#FFFFFF" sketch:type="MSShapeGroup"></path>
                <path d="M31.996,48.31 C32.183,49.323 31.514,50.297 30.501,50.484 L27.071,51.119 C26.058,51.307 25.084,50.638 24.897,49.624 C24.709,48.611 25.379,47.638 26.392,47.45 L29.821,46.815 C30.835,46.628 31.808,47.297 31.996,48.31 L31.996,48.31 Z" id="Stroke-12" stroke="#009245" stroke-width="3" stroke-linecap="round" stroke-linejoin="round" sketch:type="MSShapeGroup"></path>
            </g>
        </g>
    </g>
</svg>