<svg version="1.1" id="loading" xmlns="http://www.w3.org/2000/svg" xmlns:xlink="http://www.w3.org/1999/xlink" x="0px" y="0px" viewBox="0 0 41 41" enable-background="new 0 0 41 41" xml:space="preserve">
  <g class="rotation">
    <g>
      <path fill="#8DC63F" d="M3.7,32.3c1.4,1.9,3,3.6,5,5l6.8-11.8L3.7,32.3"/>
      <path fill="#8DC63F" d="M8.6,3.7c-1.9,1.4-3.6,3-5,5l11.8,6.8L8.6,3.7"/>
      <path fill="#8DC63F" d="M29.1,1.8c-2.1-1-4.4-1.6-6.8-1.8v13.6L29.1,1.8"/>
      <path fill="#8DC63F" d="M11.8,39.2c2.1,1,4.4,1.6,6.8,1.8V27.4L11.8,39.2"/>
      <path fill="#8DC63F" d="M37.3,8.6c-1.4-1.9-3-3.6-5-5l-6.8,11.8L37.3,8.6"/>
      <path fill="#8DC63F" d="M32.3,37.3c1.9-1.4,3.6-3,5-5l-11.8-6.8L32.3,37.3"/>
    </g>
    <g>
      <path fill="#007F3E" d="M41,18.6c-0.2-2.4-0.8-4.7-1.8-6.8l-11.8,6.8H41"/>
      <path fill="#007F3E" d="M0,22.3c0.2,2.4,0.8,4.7,1.8,6.8l11.8-6.8H0"/>
      <path fill="#007F3E" d="M1.8,11.8c-1,2.1-1.6,4.4-1.8,6.8h13.6L1.8,11.8"/>
      <path fill="#007F3E" d="M27.4,22.3l11.8,6.8c1-2.1,1.6-4.4,1.8-6.8H27.4"/>
      <path fill="#007F3E" d="M18.6,0c-2.4,0.2-4.7,0.8-6.8,1.8l6.8,11.8V0"/>
      <path fill="#007F3E" d="M22.3,41c2.4-0.2,4.7-0.8,6.8-1.8l-6.8-11.8V41"/>
    </g>
  </g>

</svg>