<?xml version="1.0" encoding="utf-8"?>
<!-- Generator: Adobe Illustrator 16.0.1, SVG Export Plug-In . SVG Version: 6.00 Build 0)  -->
<!DOCTYPE svg PUBLIC "-//W3C//DTD SVG 1.1//EN" "http://www.w3.org/Graphics/SVG/1.1/DTD/svg11.dtd">
<svg version="1.1" id="Layer_1" xmlns="http://www.w3.org/2000/svg" xmlns:xlink="http://www.w3.org/1999/xlink" x="0px" y="0px"
	 width="149px" height="47px" viewBox="0 0 149 47" enable-background="new 0 0 149 47" xml:space="preserve">
<path fill="#D9272D" d="M115.769,6.302v4.566h5.952V6.302H115.769z M115.769,12.056v23.823h5.952V12.056H115.769z M115.769,12.056"
	/>
<path fill="#D9272D" d="M50.179,6.723v19.373c0,1.598,0.229,3.041,0.676,4.335c0.45,1.265,1.12,2.327,1.995,3.199
	c0.876,0.876,1.952,1.505,3.246,1.897c1.293,0.39,2.806,0.495,4.517,0.313v-5.409c-1.5,0.091-2.633-0.198-3.384-0.86
	c-0.722-0.664-1.089-1.806-1.089-3.433v-8.22h4.202v-5.28h-4.202V6.723H50.179z M50.179,6.723"/>
<path fill="#D9272D" d="M12.527,12.047c-1.597,0-3.042,0.28-4.335,0.818c-1.267,0.514-2.355,1.236-3.287,2.17
	c-0.902,0.931-1.614,2.036-2.123,3.297c-0.483,1.268-0.721,2.631-0.721,4.106v13.447h5.96v-13.59c0-1.322,0.417-2.388,1.26-3.198
	c0.841-0.816,1.919-1.223,3.246-1.223c0.993,0,1.781,0.171,2.352,0.502c0.569,0.332,1.005,0.739,1.305,1.219
	c0.301,0.482,0.501,0.983,0.591,1.494c0.085,0.48,0.142,0.874,0.142,1.206v13.59h5.955V22.438c0-1.535-0.249-2.939-0.73-4.205
	c-0.452-1.265-1.123-2.339-2.026-3.242c-0.87-0.934-1.964-1.654-3.258-2.168C15.595,12.313,14.149,12.047,12.527,12.047
	L12.527,12.047z M12.527,12.047"/>
<path fill="#D9272D" d="M36.787,12.042c-1.66,0-3.195,0.344-4.639,1.008c-1.446,0.629-2.71,1.493-3.793,2.606
	c-1.084,1.082-1.942,2.399-2.575,3.903c-0.6,1.474-0.899,3.041-0.899,4.729c0,1.683,0.299,3.25,0.899,4.725
	c0.632,1.479,1.49,2.792,2.575,3.904c1.083,1.085,2.348,1.941,3.793,2.569c1.443,0.635,2.979,0.938,4.639,0.938
	c2.917,0,5.355-0.714,7.28-2.16c1.957-1.475,3.283-3.411,3.972-5.79h-6.359c-0.514,0.935-1.22,1.634-2.126,2.086
	c-0.903,0.422-1.838,0.631-2.806,0.631c-1.023,0-1.959-0.209-2.805-0.631c-0.841-0.452-1.556-1.07-2.156-1.851l16.434-6.904
	c-0.269-1.565-0.77-2.951-1.49-4.154c-0.695-1.205-1.548-2.209-2.572-3.021c-0.996-0.842-2.137-1.468-3.399-1.891
	C39.496,12.292,38.171,12.042,36.787,12.042L36.787,12.042z M36.749,17.292c0.968,0,1.844,0.176,2.625,0.537
	c0.787,0.364,1.439,0.869,1.983,1.531l-10.917,4.623c0.03-0.996,0.205-1.904,0.539-2.718c0.361-0.812,0.807-1.514,1.347-2.086
	c0.574-0.6,1.225-1.053,1.979-1.383C35.056,17.465,35.879,17.292,36.749,17.292L36.749,17.292z M36.749,17.292"/>
<path fill="#D9272D" d="M111.18,12.059c-1.114,0.004-2.143,0.139-3.1,0.399c-1.505,0.424-2.776,1.091-3.834,2.024
	c-1.051,0.934-1.866,2.079-2.437,3.432c-0.542,1.354-0.82,2.865-0.82,4.522v13.443h5.956V22.436c0-1.657,0.579-2.917,1.72-3.792
	c1.181-0.903,2.715-1.19,4.605-0.859v-5.599C112.551,12.097,111.849,12.056,111.18,12.059L111.18,12.059z M111.18,12.059"/>
<path fill="#D9272D" d="M123.882,12.475l8.094,11.353l-8.436,12.051h7.246l4.806-7.247l4.767,7.247h7.605l-8.672-12.312
	l7.938-11.092h-7.278l-4.36,6.442l-4.147-6.442H123.882z M123.882,12.475"/>
<path fill="#D9272D" d="M62.855,12.638v13.417c0,1.536,0.219,2.938,0.672,4.233c0.482,1.264,1.167,2.367,2.037,3.3
	c0.902,0.901,1.982,1.611,3.245,2.124c1.264,0.513,2.707,0.76,4.336,0.76c1.532,0,2.936-0.291,4.201-0.859
	c1.267-0.603,2.328-1.402,3.197-2.426c0.877,1.023,1.927,1.823,3.161,2.426c1.265,0.568,2.693,0.859,4.288,0.859
	c1.567,0,2.999-0.247,4.292-0.76c1.295-0.543,2.387-1.278,3.285-2.208c0.933-0.934,1.646-2.037,2.124-3.301
	c0.511-1.297,0.775-2.674,0.775-4.148V12.638h-5.97v13.589c0,1.324-0.418,2.39-1.265,3.199c-0.839,0.814-1.917,1.219-3.242,1.219
	c-0.992,0-1.78-0.156-2.351-0.487c-0.575-0.33-1.005-0.737-1.304-1.217c-0.303-0.484-0.501-0.971-0.594-1.45
	c-0.089-0.511-0.125-0.931-0.125-1.264V12.638h-5.957v13.589c0,1.324-0.435,2.39-1.279,3.199c-0.812,0.814-1.888,1.219-3.238,1.219
	c-0.969,0-1.727-0.156-2.297-0.487c-0.575-0.33-1.021-0.737-1.321-1.217c-0.305-0.484-0.501-0.971-0.593-1.45
	c-0.086-0.511-0.125-0.931-0.125-1.264V12.638H62.855z M62.855,12.638"/>
</svg>
